<svg width="51" height="61" viewBox="0 0 51 61" fill="none" xmlns="http://www.w3.org/2000/svg">
<path d="M45.8667 12.1802C45.4251 12.1959 45.0059 12.4167 44.698 12.7958L18.6999 43.8915L8.0019 31.0958C7.84525 30.9006 7.65763 30.7448 7.45001 30.6375C7.24239 30.5302 7.01895 30.4735 6.79278 30.4707C6.56662 30.468 6.34226 30.5192 6.13286 30.6215C5.92346 30.7237 5.73322 30.8749 5.57329 31.0662C5.41335 31.2575 5.28694 31.485 5.20145 31.7355C5.11595 31.986 5.0731 32.2543 5.07541 32.5248C5.07771 32.7953 5.12511 33.0626 5.21485 33.3109C5.30458 33.5592 5.43484 33.7837 5.59799 33.971L17.498 48.2044C17.8168 48.5855 18.2492 48.7997 18.6999 48.7997C19.1507 48.7997 19.5831 48.5855 19.9019 48.2044L47.1019 15.671C47.3476 15.3854 47.5153 15.0177 47.5833 14.6161C47.6512 14.2145 47.6161 13.7977 47.4826 13.4203C47.3491 13.0429 47.1234 12.7226 46.835 12.5013C46.5467 12.2801 46.2092 12.1681 45.8667 12.1802Z" fill="#FF4500"/>
</svg>
