<svg width="283" height="129" viewBox="0 0 283 129" fill="none" xmlns="http://www.w3.org/2000/svg">
<path d="M144.534 128.727C153.046 128.727 159.946 124.263 159.946 118.758C159.946 113.252 153.046 108.789 144.534 108.789C136.022 108.789 129.122 113.252 129.122 118.758C129.122 124.263 136.022 128.727 144.534 128.727Z" fill="#FF4500"/>
<path d="M236.605 128.167C245.227 126.492 254.394 124.745 261.232 120.763C267.342 117.205 271.467 111.772 268.936 106.436C266.41 101.111 258.843 97.5606 251.031 95.7946C246.6 94.793 241.964 94.2373 237.33 93.8008C232.293 93.3263 227.234 92.9375 222.176 92.5634C201.699 91.0485 181.145 90.123 160.514 89.7871C150.334 89.6212 140.156 89.6253 129.975 89.7208C120.882 89.8062 111.306 89.8041 102.87 87.3044C96.3107 85.3605 90.3572 81.824 88.5295 77.1767C86.4196 71.8121 90.3112 66.349 95.8936 62.4637C98.8362 60.4158 102.275 58.6921 105.823 57.1072C109.672 55.3878 113.655 53.7901 117.724 52.2988C125.738 49.3629 134.117 46.8644 142.774 44.829C147.044 43.8247 151.378 42.9582 155.749 42.1588C159.44 41.4839 163.143 40.8079 166.71 39.8883C173.606 38.1104 180.166 35.099 181.919 30.1619C183.581 25.4828 180.779 20.4033 175.867 16.9273C170.183 12.9057 161.614 11.1428 153.399 10.8576C144.176 10.5374 135.165 12.0304 126.496 13.9253C117.25 15.9464 108.203 18.2702 98.7622 19.9073C89.3997 21.529 79.8562 22.6765 70.2182 23.3392C65.5001 23.6642 60.6393 24.0311 55.8931 23.7823C51.9154 23.5738 47.958 22.8172 45.0264 20.9912C42.5128 19.4255 41.0154 17.2737 41.5302 15.0029C41.6237 14.5905 42.5923 14.7658 42.4994 15.1758C41.8727 17.9399 44.7776 20.4871 48.3573 21.7918C52.4944 23.2998 57.5287 23.3018 62.1347 23.1294C72.1219 22.7392 82.0415 21.8117 91.7906 20.3564C101.37 18.9411 110.608 16.918 119.835 14.7568C128.598 12.7042 137.557 10.7008 146.919 10.2563C155.043 9.8705 163.588 10.636 170.665 13.3819C176.885 15.7952 181.458 19.8198 182.916 24.4381C184.34 28.9511 182.367 33.4934 177.086 36.6427C171.618 39.9034 164.12 41.2975 157.132 42.5814C148.27 44.2099 139.597 46.1134 131.203 48.585C122.694 51.0832 114.533 54.0507 106.812 57.4546C99.3583 60.7491 92.0027 64.8944 89.6454 70.7717C88.5473 73.5095 88.7501 76.4132 90.5874 78.9991C92.2211 81.2984 94.9116 83.2325 98.0459 84.7243C105.524 88.2837 114.95 89.0145 123.983 89.0872C134.128 89.1688 144.274 88.9473 154.423 89.0551C175.106 89.2747 195.746 90.089 216.344 91.498C221.506 91.8514 226.661 92.242 231.809 92.6698C236.44 93.0547 241.086 93.4371 245.639 94.1206C253.734 95.336 261.612 97.6728 266.643 102.112C268.876 104.037 270.26 106.317 270.646 108.71C270.998 111.208 270.053 113.71 268.307 115.931C264.444 120.849 257.206 123.976 249.521 126.031C245.404 127.132 241.134 127.966 236.872 128.793C236.251 128.914 235.986 128.287 236.605 128.167L236.605 128.167Z" fill="#F2F2F2"/>
<path d="M42.1791 20.2625C46.62 20.2625 50.2201 17.9339 50.2201 15.0614C50.2201 12.189 46.62 9.86035 42.1791 9.86035C37.7382 9.86035 34.1382 12.189 34.1382 15.0614C34.1382 17.9339 37.7382 20.2625 42.1791 20.2625Z" fill="#F2F2F2"/>
<path d="M97.9633 30.1229C102.404 30.1229 106.004 27.7943 106.004 24.9218C106.004 22.0493 102.404 19.7207 97.9633 19.7207C93.5224 19.7207 89.9224 22.0493 89.9224 24.9218C89.9224 27.7943 93.5224 30.1229 97.9633 30.1229Z" fill="#F2F2F2"/>
<path d="M145.204 10.4022C149.645 10.4022 153.245 8.07355 153.245 5.20108C153.245 2.3286 149.645 0 145.204 0C140.763 0 137.163 2.3286 137.163 5.20108C137.163 8.07355 140.763 10.4022 145.204 10.4022Z" fill="#F2F2F2"/>
<path d="M174.687 32.5067C179.128 32.5067 182.728 30.1781 182.728 27.3056C182.728 24.4332 179.128 22.1046 174.687 22.1046C170.247 22.1046 166.646 24.4332 166.646 27.3056C166.646 30.1781 170.247 32.5067 174.687 32.5067Z" fill="#F2F2F2"/>
<path d="M134.818 58.0787C139.259 58.0787 142.859 55.7501 142.859 52.8776C142.859 50.0051 139.259 47.6765 134.818 47.6765C130.377 47.6765 126.777 50.0051 126.777 52.8776C126.777 55.7501 130.377 58.0787 134.818 58.0787Z" fill="#F2F2F2"/>
<path d="M84.2266 70.4312C88.6675 70.4312 92.2676 68.1026 92.2676 65.2302C92.2676 62.3577 88.6675 60.0291 84.2266 60.0291C79.7857 60.0291 76.1857 62.3577 76.1857 65.2302C76.1857 68.1026 79.7857 70.4312 84.2266 70.4312Z" fill="#F2F2F2"/>
<path d="M137.833 89.7186C142.274 89.7186 145.874 87.39 145.874 84.5175C145.874 81.645 142.274 79.3164 137.833 79.3164C133.392 79.3164 129.792 81.645 129.792 84.5175C129.792 87.39 133.392 89.7186 137.833 89.7186Z" fill="#F2F2F2"/>
<path d="M195.46 100.554C199.901 100.554 203.501 98.2255 203.501 95.353C203.501 92.4805 199.901 90.1519 195.46 90.1519C191.019 90.1519 187.419 92.4805 187.419 95.353C187.419 98.2255 191.019 100.554 195.46 100.554Z" fill="#F2F2F2"/>
<path d="M262.803 98.1703C267.244 98.1703 270.844 95.8417 270.844 92.9692C270.844 90.0967 267.244 87.7681 262.803 87.7681C258.362 87.7681 254.762 90.0967 254.762 92.9692C254.762 95.8417 258.362 98.1703 262.803 98.1703Z" fill="#F2F2F2"/>
<path d="M142.883 14.7371C118.796 14.8472 99.0744 27.5079 98.7322 43.0865C98.7291 43.2303 98.7276 44.2417 98.7278 45.5644C98.728 47.5039 99.9191 49.3639 102.039 50.7353C104.159 52.1068 107.035 52.8773 110.033 52.8776H110.033C111.52 52.8774 112.991 52.6877 114.364 52.3195C115.737 51.9512 116.985 51.4116 118.035 50.7314C119.086 50.0512 119.919 49.2438 120.487 48.3553C121.054 47.4668 121.346 46.5146 121.345 45.5532C121.344 44.6534 121.343 44.0306 121.343 43.9924C121.342 41.5848 122.31 39.2184 124.152 37.1262C125.994 35.034 128.646 33.288 131.848 32.0599C135.05 30.8318 138.69 30.1639 142.412 30.122C146.134 30.0801 149.808 30.6655 153.074 31.8208C156.34 32.976 159.085 34.6613 161.038 36.7107C162.992 38.7602 164.087 41.1032 164.215 43.5095C164.344 45.9157 163.502 48.3021 161.773 50.4341C160.043 52.566 157.486 54.3701 154.351 55.6687L154.355 55.6718C154.355 55.6718 138.264 62.3724 133.358 71.5644L133.362 71.565C132.499 73.4481 132.062 75.402 132.064 77.366C132.064 78.1733 132.138 85.2372 132.279 90.9706C132.329 92.9488 133.579 94.8352 135.76 96.2226C137.94 97.6101 140.877 98.3874 143.936 98.387H143.936C145.473 98.3869 146.994 98.1903 148.413 97.8084C149.832 97.4265 151.121 96.8669 152.204 96.1618C153.287 95.4566 154.145 94.6199 154.726 93.6996C155.308 92.7794 155.602 91.7939 155.593 90.7998C155.544 85.549 155.517 79.4351 155.517 78.9913C155.517 73.3471 163.935 67.7234 170.85 64.0561C178.812 59.8331 184.542 54.0781 186.843 47.5862C187.353 46.2497 187.633 44.881 187.681 43.5048C187.681 39.7094 186.52 35.9515 184.264 32.4476C182.009 28.9437 178.704 25.7632 174.54 23.0891C170.376 20.415 165.435 18.3004 160.002 16.867C154.569 15.4335 148.751 14.7097 142.883 14.7371Z" fill="#FF4500"/>
<path d="M282.601 129H0.398383C0.292782 129 0.191612 128.973 0.117048 128.924C0.0424844 128.876 0.000610352 128.81 0.000610352 128.742C0.000610352 128.674 0.0424844 128.608 0.117048 128.56C0.191612 128.511 0.292782 128.484 0.398383 128.484H282.601C282.706 128.484 282.808 128.511 282.883 128.56C282.957 128.608 282.999 128.674 282.999 128.742C282.999 128.81 282.957 128.876 282.883 128.924C282.808 128.973 282.706 129 282.601 129Z" fill="#3F3D56"/>
<path d="M210.555 59.1614C216.107 59.1614 220.607 56.2506 220.607 52.66C220.607 49.0694 216.107 46.1587 210.555 46.1587C205.004 46.1587 200.504 49.0694 200.504 52.66C200.504 56.2506 205.004 59.1614 210.555 59.1614Z" fill="#2F2E41"/>
<path d="M191.982 126.154H187.875L185.92 115.906H191.983L191.982 126.154Z" fill="#A0616A"/>
<path d="M184.941 125.395H192.862V128.621H179.953C179.953 128.197 180.082 127.778 180.333 127.386C180.583 126.995 180.951 126.639 181.414 126.34C181.877 126.04 182.427 125.803 183.032 125.64C183.637 125.478 184.286 125.395 184.941 125.395Z" fill="#2F2E41"/>
<path d="M223.811 126.154H219.704L217.749 115.906H223.812L223.811 126.154Z" fill="#A0616A"/>
<path d="M216.769 125.395H224.691V128.621H211.782C211.782 128.197 211.911 127.778 212.161 127.386C212.412 126.995 212.779 126.639 213.243 126.34C213.706 126.04 214.256 125.803 214.861 125.64C215.466 125.478 216.114 125.395 216.769 125.395Z" fill="#2F2E41"/>
<path d="M209.028 59.1993C213.573 59.1993 217.257 56.8163 217.257 53.8767C217.257 50.9371 213.573 48.554 209.028 48.554C204.483 48.554 200.799 50.9371 200.799 53.8767C200.799 56.8163 204.483 59.1993 209.028 59.1993Z" fill="#A0616A"/>
<path d="M213.933 76.3704L217.615 70.8984C218.509 69.6148 218.765 68.1832 218.348 66.8014C217.931 65.4195 216.861 64.1554 215.286 63.1835C214.963 62.9767 214.619 62.7834 214.258 62.6049C212.441 61.6856 210.202 61.1845 207.895 61.1811C206.344 61.185 204.813 61.4053 203.406 61.8269C203.285 61.8616 203.168 61.8984 203.047 61.9352C202.816 62.0068 202.588 62.0848 202.367 62.165C200.925 62.7006 199.697 63.4481 198.784 64.347C197.87 65.2459 197.296 66.2712 197.107 67.34L195.482 76.1472C195.073 76.8385 180.492 101.804 185.592 120.863C185.646 121.067 185.799 121.254 186.03 121.397C186.26 121.54 186.555 121.632 186.872 121.659L192.041 122.114C192.419 122.147 192.802 122.087 193.113 121.945C193.425 121.803 193.641 121.59 193.72 121.349L202.394 94.6045C202.448 94.4383 202.587 94.2887 202.788 94.1795C202.989 94.0702 203.241 94.0078 203.503 94.002C203.765 93.9963 204.023 94.0476 204.235 94.1478C204.447 94.248 204.601 94.3912 204.672 94.5547L216.928 122.679C217.015 122.884 217.204 123.064 217.465 123.192C217.726 123.321 218.044 123.39 218.372 123.39C218.47 123.39 218.567 123.384 218.664 123.373L224.979 122.586C225.346 122.542 225.674 122.41 225.899 122.218C226.124 122.025 226.23 121.784 226.195 121.544C225.267 114.85 220.335 81.3179 213.933 76.3704Z" fill="#2F2E41"/>
<path d="M177.048 58.3062C176.991 58.6226 177.042 58.9433 177.197 59.2457C177.353 59.548 177.608 59.8247 177.947 60.0562C178.285 60.2876 178.698 60.4683 179.156 60.5854C179.614 60.7026 180.106 60.7533 180.598 60.7341L185.198 67.8839L188.677 64.5478L183.776 58.2697C183.671 57.7376 183.268 57.2488 182.644 56.896C182.019 56.5431 181.216 56.3507 180.387 56.3552C179.558 56.3597 178.76 56.5608 178.144 56.9204C177.529 57.28 177.139 57.773 177.048 58.3062L177.048 58.3062Z" fill="#A0616A"/>
<path d="M208.572 83.5696C209.061 83.5318 209.531 83.4251 209.949 83.257C210.368 83.0889 210.724 82.8636 210.993 82.5967C211.263 82.3299 211.438 82.0282 211.507 81.7128C211.577 81.3974 211.538 81.076 211.395 80.7712L221.073 76.2119L215.246 74.8007L206.949 79.3466C206.174 79.5364 205.533 79.9036 205.148 80.3787C204.763 80.8538 204.661 81.4037 204.861 81.9242C205.061 82.4448 205.549 82.8998 206.233 83.203C206.917 83.5063 207.749 83.6367 208.572 83.5696Z" fill="#A0616A"/>
<path d="M192.795 72.6506C192.424 72.6503 192.054 72.6267 191.69 72.5801C190.81 72.4717 189.984 72.225 189.286 71.8615C188.588 71.4981 188.039 71.0292 187.687 70.4962L181.243 65.4136C181.107 65.3061 181.008 65.1811 180.952 65.0468C180.897 64.9126 180.886 64.7722 180.922 64.6351C180.957 64.498 181.037 64.3674 181.157 64.2519C181.276 64.1365 181.433 64.039 181.615 63.9658L186.2 62.1301C186.369 62.0623 186.558 62.0169 186.754 61.9964C186.951 61.976 187.152 61.9809 187.345 62.0109C187.539 62.0409 187.721 62.0955 187.882 62.1714C188.043 62.2472 188.179 62.343 188.282 62.4531L192.824 67.2931L201.523 63.1351C202.215 62.9003 203.015 62.8344 203.777 62.9496C204.538 63.0647 205.21 63.3533 205.67 63.7624C206.129 64.1716 206.346 64.674 206.281 65.178C206.215 65.6821 205.871 66.1539 205.312 66.5075L196.63 71.6299C195.61 72.2839 194.232 72.6508 192.795 72.6506Z" fill="#2F2E41"/>
<path d="M216.298 80.2945C216.287 80.2945 216.275 80.2945 216.263 80.2943C216.052 80.291 215.844 80.259 215.652 80.2003C215.461 80.1417 215.291 80.0578 215.154 79.954L211.078 76.8781C210.939 76.7734 210.836 76.6508 210.776 76.5184C210.715 76.386 210.699 76.2469 210.729 76.1102C210.758 75.9735 210.831 75.8424 210.945 75.7255C211.058 75.6086 211.208 75.5086 211.386 75.432L219.019 72.1407L212.104 66.7636C211.702 66.3298 211.554 65.817 211.688 65.3187C211.822 64.8204 212.229 64.3699 212.834 64.0496C213.439 63.7293 214.203 63.5605 214.984 63.574C215.766 63.5876 216.514 63.7826 217.092 64.1235L225.496 69.4357C226.157 69.8265 226.662 70.3153 226.967 70.8601C227.272 71.405 227.368 71.9895 227.247 72.5637C227.126 73.1378 226.791 73.6844 226.272 74.1565C225.752 74.6285 225.063 75.012 224.264 75.2739L217.396 79.9883C217.255 80.0849 217.084 80.1619 216.896 80.2146C216.707 80.2672 216.504 80.2944 216.298 80.2945Z" fill="#2F2E41"/>
<path d="M206.936 68.9607C206.87 68.9607 206.805 68.958 206.74 68.9527C206.456 68.9303 206.188 68.8558 205.968 68.7379C205.748 68.6201 205.584 68.4638 205.497 68.2876L202.434 62.2133C202.357 62.0598 202.369 61.8934 202.467 61.745C202.565 61.5967 202.743 61.4763 202.968 61.4062L203.067 61.3758C203.157 61.3481 203.247 61.3207 203.338 61.2944C204.766 60.866 206.321 60.6425 207.895 60.6393C209.939 60.6418 211.938 61.0302 213.645 61.7568C213.874 61.8554 214.034 62.0081 214.09 62.1822C214.147 62.3563 214.095 62.5377 213.947 62.6875L208.201 68.51C208.066 68.6483 207.88 68.7621 207.658 68.841C207.437 68.9198 207.188 68.961 206.936 68.9607Z" fill="#E6E6E6"/>
<path d="M218.48 49.7576C220.296 49.7576 221.769 48.8051 221.769 47.6302C221.769 46.4553 220.296 45.5028 218.48 45.5028C216.663 45.5028 215.191 46.4553 215.191 47.6302C215.191 48.8051 216.663 49.7576 218.48 49.7576Z" fill="#2F2E41"/>
<path d="M207.205 45.2918C204.895 45.2918 202.679 45.8854 201.045 46.9421C199.412 47.9988 198.494 49.4319 198.494 50.9263V53.3101H203.027L205.195 50.9263L205.845 53.3101H219.602L215.916 50.9263C215.916 49.4319 214.998 47.9988 213.365 46.9421C211.731 45.8854 209.515 45.2918 207.205 45.2918Z" fill="#2F2E41"/>
<path d="M220.17 46.173C220.534 45.4373 221.287 44.8082 222.297 44.3962C223.307 43.9841 224.509 43.8156 225.692 43.9201C227.788 44.1468 229.445 45.2365 230.433 46.4537C231.42 47.6709 231.876 49.0331 232.54 50.3389C233.204 51.6447 234.145 52.9576 235.821 53.8028C237.497 54.6481 240.068 54.8773 241.714 54.0078C241.526 54.914 240.903 55.7591 239.931 56.4234C238.96 57.0877 237.691 57.5378 236.302 57.7098C234.914 57.8819 233.477 57.7673 232.195 57.3822C230.913 56.9972 229.851 56.3611 229.158 55.5641C228.29 54.5647 228.065 53.3933 227.808 52.259C227.55 51.1247 227.216 49.9511 226.179 49.0213C225.142 48.0914 223.201 47.4841 221.554 47.9077L220.17 46.173Z" fill="#2F2E41"/>
<path d="M113.226 49.4185C110.227 49.4183 107.352 48.6477 105.231 47.2763C103.111 45.9048 101.92 44.0448 101.92 42.1054C101.92 40.7826 101.921 39.7713 101.924 39.6275C102.02 35.0967 103.784 30.646 107.07 26.6445C101.671 31.4258 98.7016 37.1743 98.574 43.0948C98.5709 43.2387 98.5694 44.25 98.5696 45.5728C98.5698 47.5122 99.7609 49.3722 101.881 50.7437C104.001 52.1151 106.877 52.8857 109.875 52.8859C112.339 52.8853 114.735 52.3645 116.7 51.4027C118.664 50.4408 120.09 49.0905 120.76 47.5568C118.69 48.7576 116.006 49.4207 113.226 49.4185Z" fill="#3F3D56"/>
<path d="M143.649 30.1466C147.116 30.2537 150.49 30.9033 153.483 32.0397C156.476 33.1762 158.997 34.7654 160.831 36.6711C162.665 38.5767 163.757 40.7418 164.012 42.9804C164.267 45.219 163.679 47.4643 162.297 49.5234C164.296 48.0052 165.765 46.2262 166.604 44.3076C167.443 42.389 167.633 40.3759 167.16 38.4055C166.687 36.4352 165.563 34.5539 163.865 32.89C162.166 31.2261 159.933 29.8187 157.317 28.7637C154.701 27.7087 151.765 27.0309 148.707 26.7765C145.65 26.5222 142.543 26.6973 139.6 27.2898C136.657 27.8824 133.945 28.8785 131.651 30.2102C129.357 31.542 127.534 33.1781 126.305 35.0069C128.428 33.3918 131.096 32.1137 134.103 31.271C137.11 30.4283 140.376 30.0436 143.649 30.1466Z" fill="#3F3D56"/>
<path d="M147.128 94.9279C144.069 94.9283 141.132 94.151 138.952 92.7635C136.771 91.3761 135.521 89.4898 135.472 87.5115C135.33 81.7781 135.256 74.7142 135.256 73.9069C135.254 71.9429 135.691 69.989 136.554 68.106L136.55 68.1053C137.059 67.1601 137.675 66.2402 138.391 65.3529C136.192 67.2479 134.443 69.3442 133.2 71.5727L133.204 71.5734C132.341 73.4564 131.904 75.4103 131.906 77.3743C131.906 78.1816 131.979 85.2455 132.121 90.9789C132.171 92.9571 133.421 94.8435 135.601 96.2309C137.782 97.6184 140.718 98.3957 143.777 98.3953C146.299 98.395 148.753 97.8658 150.771 96.8871C152.789 95.9084 154.261 94.5329 154.968 92.967C152.825 94.231 150.028 94.9305 147.128 94.9279Z" fill="#3F3D56"/>
<path d="M42.3963 126.253L46.5035 126.253L48.4578 116.005L42.3953 116.005L42.3963 126.253Z" fill="#FFB8B8"/>
<path d="M54.4254 128.72L41.5161 128.72L41.5159 125.494L49.4375 125.494C50.7603 125.494 52.029 125.833 52.9644 126.438C53.8998 127.043 54.4254 127.864 54.4254 128.72L54.4254 128.72Z" fill="#2F2E41"/>
<path d="M27.6546 126.253L31.7618 126.253L33.7161 116.005L27.6536 116.005L27.6546 126.253Z" fill="#FFB8B8"/>
<path d="M39.6837 128.72L26.7744 128.72L26.7742 125.494L34.6958 125.494C36.0186 125.494 37.2873 125.833 38.2227 126.438C39.1581 127.043 39.6837 127.864 39.6837 128.72L39.6837 128.72Z" fill="#2F2E41"/>
<path d="M31.2439 123.101L27.2318 122.965C27.0249 122.958 26.8222 122.924 26.6355 122.866C26.4488 122.808 26.2818 122.726 26.1441 122.626C26.0064 122.526 25.9008 122.409 25.8334 122.283C25.766 122.156 25.7381 122.022 25.7514 121.888L30.5467 87.5468L52.6295 91.4011L54.7571 91.0257L48.1038 121.427C48.0471 121.656 47.8715 121.865 47.6061 122.02C47.3406 122.176 47.0011 122.268 46.6436 122.282L42.3186 122.412C42.1024 122.42 41.886 122.399 41.6831 122.35C41.4803 122.3 41.2953 122.225 41.1401 122.127C40.9848 122.029 40.8625 121.912 40.781 121.782C40.6994 121.652 40.6604 121.513 40.6664 121.373L41.45 103.127C41.4537 103.042 41.4084 102.96 41.323 102.896C41.2376 102.832 41.1184 102.792 40.9888 102.782C40.8592 102.772 40.7286 102.794 40.6228 102.843C40.5169 102.893 40.4435 102.966 40.4171 103.049L32.8596 122.295C32.7882 122.524 32.5967 122.729 32.3175 122.876C32.0384 123.023 31.6889 123.103 31.3287 123.103C31.3006 123.103 31.2723 123.102 31.2439 123.101Z" fill="#2F2E41"/>
<path d="M43.1337 59.4482C47.6784 59.4482 51.3626 57.0652 51.3626 54.1256C51.3626 51.186 47.6784 48.8029 43.1337 48.8029C38.589 48.8029 34.9048 51.186 34.9048 54.1256C34.9048 57.0652 38.589 59.4482 43.1337 59.4482Z" fill="#FFB8B8"/>
<path d="M29.4331 69.7633L30.3379 82.3905L30.665 86.9845C30.678 87.1844 30.783 87.3774 30.9665 87.5386C31.15 87.6997 31.4036 87.8219 31.695 87.8893L52.9151 92.8614C53.0865 92.9026 53.2682 92.9232 53.451 92.9222C53.66 92.9228 53.8671 92.8962 54.0599 92.844C54.2526 92.7917 54.4272 92.7149 54.573 92.618C54.7188 92.5212 54.833 92.4063 54.9087 92.2803C54.9844 92.1543 55.0201 92.0197 55.0135 91.8845L54.1436 69.1803C54.0864 67.3175 53.0263 65.526 51.146 64.1146C49.2657 62.7032 46.683 61.7604 43.8432 61.4486C43.638 61.4284 43.4291 61.4081 43.2203 61.3901C41.4594 61.2487 39.6719 61.3587 37.9838 61.7121C36.2956 62.0656 34.7476 62.6541 33.4489 63.4361C32.104 64.2362 31.0473 65.2176 30.3534 66.3109C29.6595 67.4042 29.3453 68.5828 29.4331 69.7633L29.4331 69.7633Z" fill="#CCCCCC"/>
<path d="M63.0519 90.3418C62.55 90.241 62.0914 90.0658 61.7128 89.8301C61.3342 89.5943 61.0461 89.3046 60.8713 88.9841C60.6966 88.6635 60.6401 88.321 60.7064 87.9838C60.7727 87.6466 60.9599 87.3241 61.2531 87.042L54.0571 80.8527L60.2668 80.6041L66.1483 86.5197C66.7779 86.8346 67.216 87.2828 67.3858 87.7857C67.5556 88.2887 67.4462 88.8142 67.0768 89.2702C66.7074 89.7262 66.1016 90.0835 65.3656 90.2794C64.6296 90.4754 63.8105 90.4974 63.0519 90.3418H63.0519Z" fill="#FFB8B8"/>
<path d="M57.9923 85.922C57.8017 85.8719 57.6283 85.7979 57.4822 85.7042C57.336 85.6106 57.2201 85.4991 57.141 85.3762L46.2997 68.669C46.087 68.3419 45.976 67.9908 45.9731 67.636C45.9702 67.2811 46.0754 66.9294 46.2828 66.6008C46.4902 66.2723 46.7956 65.9734 47.1817 65.7212C47.5677 65.4691 48.0268 65.2686 48.5327 65.1313C49.0386 64.9939 49.5814 64.9224 50.13 64.9208C50.6786 64.9192 51.2224 64.9876 51.7302 65.122C52.2379 65.2563 52.6998 65.4541 53.0893 65.704C53.4788 65.9539 53.7884 66.2511 54.0004 66.5784L64.8417 83.2858C65.0019 83.5335 65.0037 83.8123 64.8466 84.0608C64.6896 84.3094 64.3865 84.5075 64.0039 84.6117L59.1909 85.9183C59.0014 85.9701 58.7979 85.9972 58.5922 85.9978C58.3865 85.9985 58.1826 85.9727 57.9923 85.922L57.9923 85.922Z" fill="#CCCCCC"/>
<path d="M40.4881 85.3326L50.9008 72.4364C51.1016 72.1884 51.4463 72.002 51.8593 71.9182C52.2723 71.8344 52.7198 71.8599 53.1037 71.9892L68.2179 77.095C68.6013 77.2249 68.8894 77.4478 69.019 77.715C69.1486 77.9821 69.1091 78.2715 68.9092 78.5199L58.4964 91.4161C58.2956 91.6641 57.9509 91.8505 57.5379 91.9343C57.1249 92.0181 56.6774 91.9926 56.2935 91.8633L41.1794 86.7575C40.796 86.6276 40.5078 86.4047 40.3782 86.1376C40.2486 85.8704 40.2881 85.581 40.4881 85.3326Z" fill="#3F3D56"/>
<path d="M47.4712 79.4407C47.2861 79.1226 46.9886 78.8368 46.6024 78.6063C46.2162 78.3758 45.7521 78.2068 45.2471 78.1129C44.742 78.019 44.21 78.0028 43.6935 78.0655C43.1771 78.1282 42.6904 78.2681 42.2724 78.4741L32.2954 74.1932L32.2784 78.2174L41.7553 81.6657C42.2785 82.0537 42.9961 82.3101 43.7823 82.39C44.5685 82.47 45.3732 82.3683 46.0551 82.1029C46.737 81.8374 47.2527 81.4251 47.5116 80.9383C47.7705 80.4516 47.7562 79.9213 47.4712 79.4407Z" fill="#FFB8B8"/>
<path d="M34.857 80.3457L26.7032 76.168C25.8211 75.9764 25.024 75.6492 24.3805 75.2146C23.7369 74.7799 23.266 74.2507 23.0083 73.6724C22.7505 73.0941 22.7135 72.484 22.9006 71.8944C23.0876 71.3048 23.493 70.7534 24.082 70.2875L31.4854 64.0116C31.9999 63.605 32.7235 63.3317 33.5238 63.2417C34.3242 63.1517 35.1479 63.251 35.8443 63.5214C36.5408 63.7919 37.0635 64.2155 37.317 64.7147C37.5704 65.2139 37.5376 65.7555 37.2245 66.2404L31.3668 72.4383L39.9753 75.0793C40.1754 75.1407 40.3532 75.2289 40.4968 75.3381C40.6404 75.4472 40.7465 75.5748 40.8082 75.7124C40.8699 75.8501 40.8857 75.9946 40.8547 76.1365C40.8236 76.2784 40.7463 76.4144 40.628 76.5356L37.153 80.0927C37.0356 80.2127 36.8804 80.3155 36.6976 80.3943C36.5149 80.4731 36.3086 80.5262 36.092 80.5502C36.0835 80.5511 36.0748 80.552 36.0661 80.5528C35.8534 80.5736 35.6363 80.566 35.4284 80.5303C35.2204 80.4947 35.0259 80.4319 34.857 80.3457Z" fill="#CCCCCC"/>
<path d="M36.9158 57.6897C36.8805 57.6229 36.8693 57.5518 36.8831 57.4817C36.8968 57.4117 36.9352 57.3446 36.9952 57.2856C37.0553 57.2267 37.1354 57.1774 37.2294 57.1415C37.3234 57.1057 37.4289 57.0842 37.5377 57.0788C37.7606 57.0867 37.9787 57.1236 38.1789 57.1875C38.3791 57.2514 38.5571 57.3408 38.7024 57.4505C39.0002 57.6726 39.3469 57.8651 39.7313 58.022C40.1294 58.1517 40.6693 58.1332 40.8962 57.8858C41.1093 57.6534 40.9633 57.3423 40.8343 57.0724C40.506 56.3857 40.3223 55.6735 40.2882 54.9551C40.2511 54.1532 40.426 53.3163 41.1123 52.6909C41.9981 51.8837 43.582 51.5773 45.081 51.5995C46.58 51.6217 48.0546 51.921 49.5394 52.1102C50.052 52.1755 50.6545 52.2089 50.9974 51.9519C51.3619 51.6787 51.228 51.2365 51.073 50.8676C50.6706 49.9103 50.2437 48.9205 49.3089 48.1473C48.2981 47.344 46.8542 46.8182 45.268 46.6758C43.7452 46.5538 42.1994 46.6673 40.7576 47.0071C38.4086 47.4859 36.3416 48.4173 34.8331 49.6766C33.2781 51.0159 32.6062 52.6989 32.9643 54.3576C33.3141 55.8024 34.4977 57.1076 36.2764 58.0102L36.9158 57.6897Z" fill="#2F2E41"/>
<path d="M141.138 126.295C138.949 125.678 137.011 124.741 135.478 123.557C133.945 122.373 132.858 120.974 132.303 119.472C131.749 117.969 131.741 116.404 132.282 114.9C132.823 113.395 133.897 111.993 135.419 110.803C133.654 111.636 132.183 112.703 131.104 113.932C130.026 115.162 129.363 116.525 129.162 117.933C128.96 119.341 129.223 120.76 129.934 122.096C130.645 123.433 131.788 124.657 133.286 125.686C134.784 126.715 136.603 127.527 138.623 128.066C140.643 128.606 142.817 128.862 145.001 128.816C147.186 128.771 149.33 128.426 151.292 127.803C153.254 127.181 154.989 126.295 156.382 125.206C154.21 126.233 151.659 126.874 148.985 127.065C146.31 127.256 143.605 126.991 141.138 126.295Z" fill="#3F3D56"/>
</svg>
