<svg width="444" height="250" viewBox="0 0 444 250" fill="none" xmlns="http://www.w3.org/2000/svg">
<g clip-path="url(#clip0)">
<path d="M411.435 216.766L368.36 151.622C368.24 151.438 368.067 151.286 367.858 151.18C367.649 151.075 367.411 151.019 367.17 151.019C366.928 151.019 366.691 151.075 366.482 151.18C366.273 151.286 366.099 151.438 365.979 151.622L322.892 216.766C322.766 216.949 322.698 217.157 322.696 217.37C322.693 217.584 322.756 217.793 322.878 217.978C322.999 218.163 323.175 218.316 323.387 218.422C323.599 218.528 323.84 218.582 324.084 218.579H336.937C337.302 218.58 337.651 218.707 337.908 218.932C338.166 219.157 338.311 219.461 338.312 219.779V233.697C338.312 233.854 338.347 234.01 338.415 234.155C338.483 234.3 338.584 234.432 338.711 234.544C338.838 234.655 338.989 234.744 339.155 234.804C339.321 234.865 339.499 234.896 339.679 234.897H356.45C356.814 234.897 357.164 234.77 357.422 234.545C357.68 234.32 357.825 234.015 357.825 233.697V226.963C357.825 226.645 357.969 226.341 358.226 226.117C358.483 225.892 358.832 225.766 359.196 225.766H375.14C375.503 225.766 375.853 225.892 376.11 226.116C376.368 226.341 376.513 226.645 376.515 226.963V233.682C376.515 234.001 376.659 234.306 376.917 234.531C377.175 234.756 377.525 234.882 377.89 234.882H394.656C395.021 234.881 395.369 234.754 395.627 234.529C395.886 234.304 396.032 234 396.035 233.682V219.765C396.035 219.447 396.18 219.141 396.438 218.916C396.696 218.691 397.046 218.565 397.41 218.565H410.264C410.503 218.562 410.737 218.504 410.943 218.397C411.149 218.291 411.32 218.139 411.438 217.958C411.557 217.776 411.619 217.57 411.618 217.361C411.618 217.152 411.554 216.947 411.435 216.766ZM351.377 223.975C351.12 224.204 350.769 224.334 350.401 224.337H344.353C343.988 224.337 343.638 224.211 343.38 223.986C343.122 223.761 342.977 223.456 342.977 223.137C342.977 222.819 343.122 222.514 343.38 222.289C343.638 222.063 343.988 221.937 344.353 221.937H350.401C350.582 221.936 350.761 221.967 350.928 222.027C351.095 222.088 351.247 222.176 351.375 222.287C351.502 222.399 351.604 222.531 351.673 222.677C351.741 222.823 351.777 222.979 351.776 223.137C351.773 223.451 351.63 223.751 351.377 223.975ZM390.955 223.975C390.828 224.089 390.677 224.179 390.51 224.242C390.344 224.304 390.164 224.336 389.983 224.337H383.938C383.574 224.337 383.225 224.21 382.967 223.985C382.709 223.76 382.564 223.455 382.563 223.137C382.565 222.819 382.711 222.515 382.968 222.291C383.226 222.066 383.574 221.939 383.938 221.937H389.983C390.255 221.935 390.523 222.005 390.75 222.136C390.977 222.268 391.154 222.456 391.259 222.676C391.363 222.896 391.39 223.138 391.336 223.371C391.282 223.605 391.149 223.819 390.955 223.986V223.975Z" fill="#F2F2F2"/>
<path d="M145.124 217.339L102.04 152.198C101.919 152.016 101.745 151.865 101.536 151.76C101.327 151.655 101.089 151.599 100.848 151.599C100.607 151.599 100.37 151.655 100.16 151.76C99.9512 151.865 99.7772 152.016 99.6559 152.198L62.4381 208.462C67.0942 213.577 72.3164 218.278 78.0289 222.499H84.0817C84.3535 222.499 84.6193 222.57 84.8454 222.701C85.0714 222.833 85.2476 223.021 85.3516 223.24C85.4557 223.459 85.4829 223.701 85.4299 223.933C85.3769 224.166 85.246 224.38 85.0537 224.548C84.928 224.662 84.7771 224.753 84.61 224.816C84.443 224.878 84.2633 224.91 84.0817 224.91H81.5226C84.6569 226.968 87.9933 228.779 91.4928 230.324V227.55C91.4939 227.232 91.6397 226.926 91.8982 226.701C92.1568 226.476 92.5069 226.35 92.872 226.35H108.812C109.176 226.35 109.526 226.476 109.784 226.702C110.042 226.927 110.187 227.232 110.187 227.55V234.266C110.184 234.44 110.228 234.613 110.316 234.77C110.424 234.979 110.6 235.155 110.821 235.279C111.042 235.402 111.299 235.467 111.562 235.466H128.333C128.545 235.466 128.755 235.422 128.945 235.339C129.134 235.255 129.299 235.133 129.425 234.984C129.608 234.777 129.705 234.521 129.699 234.259V220.341C129.699 220.023 129.844 219.718 130.102 219.493C130.36 219.268 130.71 219.141 131.074 219.141H143.927C144.17 219.143 144.409 219.089 144.62 218.984C144.831 218.88 145.006 218.728 145.128 218.545C145.249 218.361 145.313 218.153 145.312 217.941C145.312 217.73 145.247 217.522 145.124 217.339ZM116.643 222.851C116.77 222.737 116.922 222.647 117.089 222.585C117.257 222.522 117.437 222.49 117.619 222.488H123.667C124.032 222.488 124.382 222.615 124.64 222.84C124.897 223.065 125.042 223.37 125.042 223.688C125.04 224.006 124.895 224.31 124.637 224.535C124.38 224.76 124.031 224.887 123.667 224.889H117.619C117.438 224.889 117.259 224.858 117.092 224.798C116.925 224.738 116.773 224.65 116.645 224.538C116.517 224.427 116.416 224.294 116.347 224.148C116.278 224.002 116.243 223.846 116.244 223.688C116.247 223.375 116.39 223.074 116.643 222.851ZM89.5819 198.744C89.4011 198.744 89.2221 198.714 89.055 198.653C88.8879 198.593 88.7361 198.505 88.6083 198.393C88.4805 198.282 88.3793 198.149 88.3104 198.003C88.2414 197.858 88.2063 197.701 88.2068 197.544V188.427C88.2063 188.27 88.2414 188.113 88.3104 187.968C88.3793 187.822 88.4805 187.689 88.6083 187.578C88.7361 187.466 88.8879 187.378 89.055 187.317C89.2221 187.257 89.4011 187.227 89.5819 187.227H112.119C112.483 187.227 112.833 187.354 113.091 187.579C113.349 187.804 113.494 188.109 113.494 188.427V197.544C113.494 197.862 113.349 198.167 113.091 198.392C112.833 198.617 112.483 198.744 112.119 198.744H89.5819Z" fill="#F2F2F2"/>
<path d="M315.443 100.315H262.119V90.2485C262.12 89.9322 262.049 89.6189 261.911 89.3265C261.772 89.0342 261.569 88.7686 261.313 88.5449C261.057 88.3212 260.752 88.1439 260.417 88.023C260.082 87.9022 259.723 87.8402 259.361 87.8407H243.704V77.1362C243.704 76.7342 243.521 76.3487 243.195 76.0644C242.87 75.7802 242.428 75.6205 241.967 75.6205H221.799C221.338 75.6205 220.896 75.7802 220.571 76.0644C220.245 76.3487 220.062 76.7342 220.062 77.1362V87.8589H201.646C200.915 87.8589 200.213 88.1125 199.696 88.5641C199.179 89.0156 198.888 89.628 198.888 90.2666V100.308H148.057C147.909 100.308 147.767 100.36 147.663 100.452C147.559 100.544 147.5 100.668 147.5 100.797V234.436C147.5 234.566 147.559 234.69 147.663 234.781C147.767 234.873 147.909 234.925 148.057 234.926H181.847C181.996 234.926 182.139 234.874 182.244 234.783C182.349 234.691 182.408 234.566 182.408 234.436V216.458C182.41 216.328 182.471 216.204 182.576 216.113C182.682 216.021 182.824 215.969 182.973 215.968H197.243C197.391 215.969 197.533 216.021 197.638 216.113C197.743 216.204 197.803 216.328 197.804 216.458V234.436C197.805 234.565 197.864 234.689 197.968 234.78C198.072 234.872 198.213 234.924 198.36 234.926H265.135C265.284 234.925 265.426 234.873 265.531 234.782C265.636 234.69 265.695 234.566 265.696 234.436V216.458C265.697 216.329 265.756 216.205 265.86 216.114C265.964 216.022 266.105 215.97 266.253 215.968H280.527C280.676 215.968 280.819 216.02 280.925 216.111C281.031 216.203 281.091 216.328 281.092 216.458V234.436C281.093 234.565 281.152 234.689 281.256 234.78C281.36 234.872 281.501 234.924 281.648 234.926H315.443C315.591 234.925 315.733 234.873 315.837 234.781C315.941 234.69 316 234.566 316 234.436V100.804C316 100.675 315.941 100.551 315.837 100.459C315.733 100.368 315.591 100.316 315.443 100.315ZM176.355 209.724C176.355 209.852 176.297 209.975 176.194 210.066C176.09 210.157 175.95 210.209 175.803 210.21H154.932C154.858 210.21 154.785 210.198 154.717 210.174C154.649 210.15 154.587 210.114 154.534 210.069C154.482 210.024 154.44 209.97 154.411 209.911C154.383 209.852 154.368 209.788 154.367 209.724V203.501C154.368 203.371 154.428 203.247 154.534 203.155C154.64 203.063 154.783 203.012 154.932 203.012H175.803C175.95 203.014 176.091 203.066 176.194 203.158C176.297 203.249 176.355 203.373 176.355 203.501V209.724ZM176.355 193.646C176.356 193.709 176.342 193.773 176.315 193.832C176.287 193.891 176.247 193.945 176.195 193.99C176.144 194.036 176.083 194.072 176.016 194.097C175.948 194.122 175.876 194.135 175.803 194.135H154.932C154.858 194.136 154.785 194.123 154.716 194.099C154.648 194.074 154.585 194.038 154.533 193.993C154.48 193.947 154.439 193.893 154.41 193.834C154.382 193.774 154.367 193.71 154.367 193.646V187.427C154.367 187.362 154.382 187.298 154.41 187.238C154.439 187.179 154.48 187.125 154.533 187.079C154.585 187.034 154.648 186.998 154.716 186.973C154.785 186.949 154.858 186.937 154.932 186.937H175.803C175.876 186.938 175.948 186.951 176.016 186.975C176.083 187 176.144 187.036 176.195 187.082C176.247 187.127 176.287 187.181 176.315 187.24C176.342 187.3 176.356 187.363 176.355 187.427V193.646ZM176.355 177.571C176.355 177.699 176.297 177.823 176.194 177.914C176.091 178.006 175.95 178.058 175.803 178.06H154.932C154.783 178.06 154.64 178.009 154.534 177.917C154.428 177.825 154.368 177.701 154.367 177.571V171.348C154.368 171.218 154.428 171.093 154.534 171.002C154.64 170.91 154.783 170.859 154.932 170.859H175.803C175.95 170.86 176.091 170.913 176.194 171.005C176.297 171.096 176.355 171.22 176.355 171.348V177.571ZM176.355 161.492C176.356 161.556 176.342 161.619 176.315 161.678C176.287 161.738 176.247 161.791 176.195 161.837C176.144 161.882 176.083 161.918 176.016 161.943C175.948 161.968 175.876 161.981 175.803 161.982H154.932C154.858 161.982 154.785 161.97 154.716 161.945C154.648 161.921 154.585 161.885 154.533 161.84C154.48 161.794 154.439 161.74 154.41 161.68C154.382 161.621 154.367 161.557 154.367 161.492V155.273C154.367 155.209 154.382 155.145 154.41 155.085C154.439 155.025 154.48 154.971 154.533 154.926C154.585 154.88 154.648 154.844 154.716 154.82C154.785 154.796 154.858 154.783 154.932 154.784H175.803C175.876 154.784 175.948 154.797 176.016 154.822C176.083 154.847 176.144 154.883 176.195 154.929C176.247 154.974 176.287 155.028 176.315 155.087C176.342 155.146 176.356 155.209 176.355 155.273V161.492ZM176.355 145.417C176.355 145.546 176.297 145.669 176.194 145.761C176.091 145.852 175.95 145.905 175.803 145.907H154.932C154.783 145.907 154.64 145.855 154.534 145.764C154.428 145.672 154.368 145.547 154.367 145.417V139.195C154.368 139.13 154.383 139.067 154.411 139.008C154.44 138.948 154.482 138.895 154.534 138.85C154.587 138.805 154.649 138.769 154.717 138.745C154.785 138.721 154.858 138.708 154.932 138.709H175.803C175.95 138.71 176.09 138.761 176.194 138.852C176.297 138.943 176.355 139.066 176.355 139.195V145.417ZM176.355 129.342C176.355 129.471 176.297 129.594 176.194 129.685C176.09 129.776 175.95 129.827 175.803 129.828H154.932C154.858 129.829 154.785 129.817 154.717 129.792C154.649 129.768 154.587 129.733 154.534 129.687C154.482 129.642 154.44 129.589 154.411 129.529C154.383 129.47 154.368 129.407 154.367 129.342V123.12C154.368 122.99 154.428 122.865 154.534 122.773C154.64 122.682 154.783 122.63 154.932 122.63H175.803C175.95 122.632 176.091 122.685 176.194 122.776C176.297 122.868 176.355 122.991 176.355 123.12V129.342ZM176.355 113.264C176.356 113.328 176.342 113.391 176.315 113.45C176.287 113.509 176.247 113.563 176.195 113.609C176.144 113.654 176.083 113.69 176.016 113.715C175.948 113.74 175.876 113.753 175.803 113.753H154.932C154.858 113.754 154.785 113.742 154.716 113.717C154.648 113.693 154.585 113.657 154.533 113.611C154.48 113.566 154.439 113.512 154.41 113.452C154.382 113.392 154.367 113.328 154.367 113.264V107.045C154.367 106.98 154.382 106.916 154.41 106.857C154.439 106.797 154.48 106.743 154.533 106.698C154.585 106.652 154.648 106.616 154.716 106.592C154.785 106.567 154.858 106.555 154.932 106.555H175.803C175.876 106.556 175.948 106.569 176.016 106.594C176.083 106.619 176.144 106.655 176.195 106.7C176.247 106.746 176.287 106.8 176.315 106.859C176.342 106.918 176.356 106.981 176.355 107.045V113.264ZM225.841 209.72C225.84 209.785 225.825 209.848 225.796 209.907C225.768 209.967 225.726 210.02 225.673 210.065C225.621 210.111 225.559 210.146 225.491 210.17C225.422 210.195 225.349 210.207 225.276 210.206H204.405C204.257 210.206 204.116 210.155 204.011 210.064C203.907 209.973 203.848 209.849 203.848 209.72V203.501C203.848 203.372 203.907 203.248 204.011 203.157C204.115 203.065 204.257 203.013 204.405 203.012H225.276C225.425 203.012 225.568 203.063 225.674 203.155C225.779 203.247 225.839 203.371 225.841 203.501V209.72ZM225.841 193.642C225.841 193.706 225.826 193.77 225.798 193.83C225.769 193.89 225.727 193.944 225.675 193.989C225.622 194.035 225.56 194.071 225.492 194.095C225.423 194.12 225.35 194.132 225.276 194.131H204.405C204.331 194.131 204.259 194.119 204.191 194.094C204.123 194.069 204.061 194.033 204.01 193.988C203.958 193.942 203.917 193.888 203.889 193.829C203.862 193.77 203.848 193.706 203.848 193.642V187.427C203.848 187.363 203.862 187.299 203.889 187.24C203.917 187.18 203.958 187.126 204.01 187.081C204.061 187.035 204.123 186.999 204.191 186.974C204.259 186.95 204.331 186.937 204.405 186.937H225.276C225.35 186.937 225.423 186.949 225.492 186.973C225.56 186.998 225.622 187.034 225.675 187.079C225.727 187.125 225.769 187.179 225.798 187.238C225.826 187.298 225.841 187.362 225.841 187.427V193.642ZM225.841 177.567C225.839 177.697 225.779 177.822 225.674 177.913C225.568 178.005 225.425 178.057 225.276 178.057H204.405C204.26 178.056 204.12 178.006 204.017 177.917C203.913 177.828 203.852 177.708 203.848 177.582V171.348C203.848 171.219 203.907 171.095 204.011 171.003C204.115 170.912 204.257 170.86 204.405 170.859H225.276C225.425 170.859 225.568 170.91 225.674 171.002C225.779 171.093 225.839 171.218 225.841 171.348V177.567ZM225.841 161.489C225.841 161.553 225.826 161.617 225.798 161.677C225.769 161.736 225.727 161.79 225.675 161.836C225.622 161.881 225.56 161.917 225.492 161.942C225.423 161.966 225.35 161.979 225.276 161.978H204.405C204.331 161.978 204.259 161.965 204.191 161.941C204.123 161.916 204.061 161.88 204.01 161.834C203.958 161.789 203.917 161.735 203.889 161.676C203.862 161.616 203.848 161.553 203.848 161.489V155.273C203.848 155.209 203.862 155.146 203.889 155.086C203.917 155.027 203.958 154.973 204.01 154.927C204.061 154.882 204.123 154.846 204.191 154.821C204.259 154.796 204.331 154.784 204.405 154.784H225.276C225.35 154.783 225.423 154.796 225.492 154.82C225.56 154.844 225.622 154.88 225.675 154.926C225.727 154.971 225.769 155.025 225.798 155.085C225.826 155.145 225.841 155.209 225.841 155.273V161.489ZM225.841 145.414C225.839 145.544 225.779 145.668 225.674 145.76C225.568 145.852 225.425 145.903 225.276 145.903H204.405C204.257 145.902 204.115 145.85 204.011 145.759C203.907 145.667 203.848 145.543 203.848 145.414V139.195C203.848 139.066 203.907 138.942 204.011 138.851C204.116 138.76 204.257 138.709 204.405 138.709H225.276C225.349 138.708 225.422 138.721 225.491 138.745C225.559 138.769 225.621 138.805 225.673 138.85C225.726 138.895 225.768 138.948 225.796 139.008C225.825 139.067 225.84 139.13 225.841 139.195V145.414ZM225.841 129.339C225.84 129.403 225.825 129.467 225.796 129.526C225.768 129.585 225.726 129.639 225.673 129.684C225.621 129.729 225.559 129.765 225.491 129.789C225.422 129.813 225.349 129.825 225.276 129.825H204.405C204.26 129.825 204.121 129.776 204.017 129.688C203.913 129.6 203.852 129.48 203.848 129.353V123.12C203.848 122.991 203.907 122.867 204.011 122.775C204.115 122.683 204.257 122.631 204.405 122.63H225.276C225.425 122.63 225.568 122.682 225.674 122.773C225.779 122.865 225.839 122.99 225.841 123.12V129.339ZM225.841 113.26C225.841 113.325 225.826 113.389 225.798 113.448C225.769 113.508 225.727 113.562 225.675 113.608C225.622 113.653 225.56 113.689 225.492 113.714C225.423 113.738 225.35 113.75 225.276 113.75H204.405C204.331 113.75 204.259 113.737 204.191 113.712C204.123 113.688 204.061 113.652 204.01 113.606C203.958 113.561 203.917 113.507 203.889 113.447C203.862 113.388 203.848 113.324 203.848 113.26V107.045C203.848 106.981 203.862 106.917 203.889 106.858C203.917 106.799 203.958 106.745 204.01 106.699C204.061 106.654 204.123 106.617 204.191 106.593C204.259 106.568 204.331 106.555 204.405 106.555H225.276C225.35 106.555 225.423 106.567 225.492 106.592C225.56 106.616 225.622 106.652 225.675 106.698C225.727 106.743 225.769 106.797 225.798 106.857C225.826 106.916 225.841 106.98 225.841 107.045V113.26ZM259.648 209.717C259.648 209.781 259.633 209.844 259.605 209.904C259.577 209.963 259.535 210.016 259.483 210.062C259.431 210.107 259.369 210.143 259.301 210.167C259.233 210.191 259.16 210.203 259.087 210.203H238.204C238.055 210.203 237.913 210.152 237.807 210.061C237.701 209.97 237.641 209.846 237.639 209.717V203.501C237.641 203.372 237.701 203.248 237.807 203.156C237.912 203.065 238.055 203.013 238.204 203.012H259.07C259.219 203.012 259.362 203.064 259.467 203.155C259.572 203.247 259.631 203.372 259.631 203.501L259.648 209.717ZM259.648 193.638C259.648 193.703 259.634 193.767 259.606 193.826C259.578 193.886 259.537 193.94 259.485 193.985C259.432 194.031 259.37 194.067 259.302 194.092C259.234 194.116 259.161 194.128 259.087 194.128H238.204C238.054 194.128 237.911 194.076 237.806 193.985C237.7 193.893 237.64 193.768 237.639 193.638V187.427C237.64 187.296 237.7 187.172 237.806 187.08C237.911 186.989 238.054 186.937 238.204 186.937H259.07C259.144 186.937 259.217 186.949 259.286 186.973C259.354 186.998 259.416 187.034 259.468 187.079C259.52 187.125 259.562 187.179 259.59 187.239C259.617 187.298 259.632 187.362 259.631 187.427L259.648 193.638ZM259.648 177.563C259.648 177.628 259.633 177.691 259.605 177.751C259.577 177.81 259.536 177.864 259.483 177.91C259.431 177.955 259.37 177.991 259.301 178.016C259.233 178.04 259.161 178.053 259.087 178.053H238.204C238.055 178.052 237.912 178 237.807 177.909C237.701 177.817 237.641 177.693 237.639 177.563V171.348C237.641 171.218 237.701 171.094 237.807 171.003C237.912 170.911 238.055 170.86 238.204 170.859H259.07C259.144 170.859 259.217 170.871 259.285 170.896C259.353 170.92 259.415 170.956 259.467 171.002C259.519 171.047 259.56 171.101 259.588 171.161C259.617 171.22 259.631 171.284 259.631 171.348L259.648 177.563ZM259.648 161.485C259.648 161.549 259.634 161.613 259.606 161.673C259.578 161.732 259.537 161.787 259.485 161.832C259.432 161.878 259.37 161.914 259.302 161.938C259.234 161.963 259.161 161.975 259.087 161.974H238.204C238.054 161.974 237.911 161.923 237.806 161.831C237.7 161.74 237.64 161.615 237.639 161.485V155.273C237.64 155.143 237.7 155.019 237.806 154.927C237.911 154.835 238.054 154.784 238.204 154.784H259.07C259.144 154.783 259.217 154.796 259.286 154.82C259.354 154.844 259.416 154.88 259.468 154.926C259.52 154.972 259.562 155.026 259.59 155.085C259.617 155.145 259.632 155.209 259.631 155.273L259.648 161.485ZM259.648 145.41C259.648 145.474 259.633 145.538 259.605 145.597C259.577 145.657 259.536 145.711 259.483 145.756C259.431 145.802 259.37 145.838 259.301 145.862C259.233 145.887 259.161 145.9 259.087 145.9H238.204C238.055 145.899 237.912 145.847 237.807 145.755C237.701 145.664 237.641 145.54 237.639 145.41V139.195C237.641 139.065 237.701 138.942 237.807 138.851C237.913 138.76 238.055 138.709 238.204 138.709H259.07C259.144 138.708 259.217 138.721 259.285 138.745C259.353 138.769 259.414 138.805 259.467 138.85C259.519 138.895 259.56 138.949 259.588 139.008C259.617 139.067 259.631 139.131 259.631 139.195L259.648 145.41ZM259.648 129.335C259.648 129.399 259.633 129.463 259.605 129.522C259.577 129.581 259.535 129.635 259.483 129.68C259.431 129.725 259.369 129.761 259.301 129.785C259.233 129.809 259.16 129.822 259.087 129.821H238.204C238.055 129.821 237.913 129.77 237.807 129.679C237.701 129.588 237.641 129.465 237.639 129.335V123.12C237.641 122.99 237.701 122.866 237.807 122.775C237.912 122.683 238.055 122.631 238.204 122.63H259.07C259.219 122.63 259.362 122.682 259.467 122.774C259.572 122.866 259.631 122.99 259.631 123.12L259.648 129.335ZM259.648 113.257C259.648 113.321 259.634 113.385 259.606 113.445C259.578 113.504 259.537 113.558 259.485 113.604C259.432 113.649 259.37 113.685 259.302 113.71C259.234 113.734 259.161 113.747 259.087 113.746H238.204C238.054 113.746 237.911 113.695 237.806 113.603C237.7 113.511 237.64 113.387 237.639 113.257V107.045C237.64 106.915 237.7 106.79 237.806 106.699C237.911 106.607 238.054 106.555 238.204 106.555H259.07C259.144 106.555 259.217 106.567 259.286 106.592C259.354 106.616 259.416 106.652 259.468 106.698C259.52 106.743 259.562 106.797 259.59 106.857C259.617 106.917 259.632 106.981 259.631 107.045L259.648 113.257ZM309.133 209.713C309.131 209.843 309.07 209.966 308.964 210.057C308.859 210.148 308.716 210.199 308.568 210.199H287.697C287.624 210.2 287.551 210.187 287.483 210.163C287.416 210.139 287.354 210.103 287.302 210.058C287.25 210.013 287.209 209.959 287.182 209.9C287.154 209.84 287.14 209.777 287.14 209.713V203.501C287.14 203.437 287.154 203.374 287.182 203.314C287.209 203.255 287.25 203.201 287.302 203.156C287.354 203.11 287.415 203.074 287.483 203.049C287.551 203.025 287.624 203.012 287.697 203.012H308.568C308.717 203.013 308.859 203.065 308.965 203.156C309.07 203.248 309.131 203.372 309.133 203.501V209.713ZM309.133 193.635C309.132 193.765 309.072 193.889 308.966 193.981C308.86 194.073 308.717 194.124 308.568 194.124H287.697C287.624 194.124 287.551 194.111 287.483 194.087C287.415 194.062 287.354 194.026 287.302 193.981C287.25 193.935 287.209 193.881 287.182 193.822C287.154 193.762 287.14 193.699 287.14 193.635V187.427C287.14 187.363 287.154 187.299 287.182 187.24C287.209 187.18 287.25 187.126 287.302 187.081C287.354 187.035 287.415 186.999 287.483 186.974C287.551 186.95 287.624 186.937 287.697 186.937H308.568C308.717 186.937 308.86 186.989 308.966 187.08C309.072 187.172 309.132 187.296 309.133 187.427V193.635ZM309.133 177.56C309.131 177.69 309.07 177.814 308.965 177.905C308.859 177.997 308.717 178.048 308.568 178.049H287.697C287.553 178.049 287.414 178.001 287.311 177.913C287.207 177.826 287.146 177.707 287.14 177.582V171.348C287.14 171.284 287.154 171.22 287.182 171.161C287.209 171.102 287.25 171.048 287.302 171.002C287.354 170.957 287.415 170.921 287.483 170.896C287.551 170.871 287.624 170.859 287.697 170.859H308.568C308.717 170.86 308.859 170.911 308.965 171.003C309.07 171.094 309.131 171.218 309.133 171.348V177.56ZM309.133 161.481C309.132 161.611 309.072 161.736 308.966 161.828C308.86 161.919 308.717 161.971 308.568 161.971H287.697C287.624 161.971 287.551 161.958 287.483 161.933C287.415 161.909 287.354 161.873 287.302 161.827C287.25 161.782 287.209 161.728 287.182 161.668C287.154 161.609 287.14 161.545 287.14 161.481V155.273C287.14 155.209 287.154 155.146 287.182 155.086C287.209 155.027 287.25 154.973 287.302 154.927C287.354 154.882 287.415 154.846 287.483 154.821C287.551 154.796 287.624 154.784 287.697 154.784H308.568C308.717 154.784 308.86 154.835 308.966 154.927C309.072 155.019 309.132 155.143 309.133 155.273V161.481ZM309.133 145.406C309.131 145.536 309.07 145.66 308.965 145.752C308.859 145.843 308.717 145.895 308.568 145.896H287.697C287.624 145.896 287.551 145.883 287.483 145.859C287.415 145.834 287.354 145.798 287.302 145.752C287.25 145.707 287.209 145.653 287.182 145.593C287.154 145.534 287.14 145.47 287.14 145.406V139.195C287.14 139.131 287.154 139.067 287.182 139.008C287.209 138.949 287.25 138.895 287.302 138.85C287.354 138.805 287.416 138.769 287.483 138.745C287.551 138.721 287.624 138.708 287.697 138.709H308.568C308.716 138.709 308.859 138.76 308.964 138.851C309.07 138.942 309.131 139.065 309.133 139.195V145.406ZM309.133 129.332C309.131 129.461 309.07 129.585 308.964 129.676C308.859 129.766 308.716 129.817 308.568 129.817H287.697C287.553 129.818 287.415 129.771 287.311 129.684C287.207 129.597 287.146 129.479 287.14 129.353V123.12C287.14 123.056 287.154 122.992 287.182 122.933C287.209 122.873 287.25 122.819 287.302 122.774C287.354 122.728 287.415 122.692 287.483 122.668C287.551 122.643 287.624 122.63 287.697 122.63H308.568C308.717 122.631 308.859 122.683 308.965 122.775C309.07 122.866 309.131 122.99 309.133 123.12V129.332ZM309.133 113.253C309.132 113.383 309.072 113.508 308.966 113.599C308.86 113.691 308.717 113.743 308.568 113.743H287.697C287.624 113.743 287.551 113.73 287.483 113.705C287.415 113.681 287.354 113.644 287.302 113.599C287.25 113.553 287.209 113.499 287.182 113.44C287.154 113.381 287.14 113.317 287.14 113.253V107.045C287.14 106.981 287.154 106.917 287.182 106.858C287.209 106.799 287.25 106.745 287.302 106.699C287.354 106.654 287.415 106.617 287.483 106.593C287.551 106.568 287.624 106.555 287.697 106.555H308.568C308.717 106.555 308.86 106.607 308.966 106.699C309.072 106.79 309.132 106.915 309.133 107.045V113.253Z" fill="#F2F2F2"/>
<path d="M77.9334 101.693C78.8125 100.717 79.6134 99.6896 80.3304 98.6177L63.4352 96.1954L81.7138 96.3151C83.4691 92.9877 84.4272 89.3824 84.5293 85.7203C84.6315 82.0582 83.8755 78.4165 82.3078 75.0185L57.7979 86.1146L80.401 71.6099C78.2768 68.4254 75.4251 65.6561 72.0231 63.4741C68.6211 61.2922 64.7415 59.744 60.6252 58.9259C56.509 58.1078 52.244 58.0372 48.0951 58.7185C43.9463 59.3998 40.0022 60.8184 36.5079 62.8862C33.0136 64.954 30.0436 67.6269 27.7826 70.7388C25.5215 73.8507 24.0176 77.3351 23.3642 80.9757C22.7108 84.6164 22.922 88.3353 23.9845 91.9017C25.0471 95.4681 26.9383 98.8057 29.5408 101.707C28.1715 103.226 26.9946 104.87 26.0305 106.61L47.9399 116.538L24.564 109.688C22.9258 113.926 22.5238 118.453 23.3942 122.86C24.2646 127.268 26.38 131.416 29.5491 134.93C26.9839 137.768 25.1056 141.031 24.0281 144.522C28.1419 154.904 32.9838 165.056 38.5264 174.92C41.4931 176.396 44.723 177.427 48.0811 177.969C47.6765 178.972 47.4713 180.028 47.4746 181.092C47.4435 182.662 47.8908 184.211 48.7707 185.581C47.9987 186.751 47.5493 188.062 47.458 189.41C51.2521 195.061 55.4275 200.51 59.9622 205.728C59.745 204.964 59.4036 204.232 58.9486 203.552C59.8257 202.18 60.2862 200.634 60.2862 199.063C60.2862 197.492 59.8257 195.946 58.9486 194.574C59.8257 193.201 60.2862 191.656 60.2862 190.085C60.2862 188.513 59.8257 186.968 58.9486 185.595C59.843 184.229 60.3047 182.68 60.2863 181.106C60.2926 180.027 60.0817 178.956 59.6631 177.94C64.8375 177.055 69.6646 175.024 73.682 172.042C77.6995 169.061 80.7726 165.229 82.6072 160.914C84.4417 156.599 84.9761 151.945 84.1592 147.398C83.3423 142.851 81.2014 138.563 77.9417 134.945C82.2125 130.207 84.5345 124.354 84.5345 118.326C84.5345 112.298 82.2125 106.445 77.9417 101.707L77.9334 101.693Z" fill="#F2F2F2"/>
<path d="M443.95 123.134L442.704 122.957H443.925C443.705 118.85 442.856 114.788 441.399 110.878L437.054 112.847L441.142 110.214C437.428 100.784 430.325 92.6535 420.89 87.0321C416.544 88.666 412.685 91.1492 409.612 94.2904C406.539 97.4315 404.334 101.147 403.165 105.149C401.997 109.152 401.897 113.336 402.873 117.377C403.85 121.419 405.876 125.211 408.797 128.461C407.428 129.984 406.251 131.631 405.287 133.375L427.221 143.347L403.845 136.482C402.207 140.729 401.805 145.264 402.675 149.68C403.545 154.096 405.66 158.254 408.83 161.779C405.821 165.127 403.763 169.05 402.822 173.226C401.882 177.402 402.086 181.713 403.419 185.806C404.752 189.9 407.175 193.66 410.491 196.781C413.807 199.901 417.921 202.292 422.498 203.759C424.159 200.318 425.775 196.721 427.287 193.022C428.625 189.758 429.9 186.433 431.101 183.075C434.608 173.232 437.541 163.24 439.891 153.137C442.55 141.635 444.046 131.583 444.046 125.216C444.004 124.516 443.983 123.827 443.95 123.134Z" fill="#F2F2F2"/>
<path d="M221.005 250C343.063 250 442.01 245.941 442.01 240.934C442.01 235.928 343.063 231.869 221.005 231.869C98.9473 231.869 0 235.928 0 240.934C0 245.941 98.9473 250 221.005 250Z" fill="#3F3D56"/>
<path d="M338.321 146.839C334.191 140.594 317.134 142.433 300.264 150.944C297.327 152.42 294.499 154.057 291.797 155.842C290.318 139.647 281.844 124.548 268.09 113.601C254.337 102.654 236.332 96.6779 217.721 96.8825C199.11 97.0872 181.283 103.457 167.85 114.703C154.416 125.949 146.381 141.23 145.369 157.453C141.983 155.018 138.37 152.835 134.568 150.925C117.731 142.433 100.669 140.594 96.5443 146.839C92.4192 153.083 102.776 165.042 119.646 173.553C130.576 179.061 141.564 181.77 149.079 181.309C153.378 192.469 161.113 202.38 171.437 209.956C156.639 211.769 145.76 217.81 145.76 224.997C145.76 233.606 161.384 240.59 180.655 240.59C199.927 240.59 215.551 233.606 215.551 224.997C215.551 224.976 215.551 224.954 215.551 224.929C216.586 224.967 217.626 224.988 218.67 224.99C219.715 224.993 220.754 224.972 221.79 224.929C221.79 224.954 221.79 224.976 221.79 224.997C221.79 233.606 237.414 240.59 256.686 240.59C275.957 240.59 291.581 233.606 291.581 224.997C291.581 217.81 280.701 211.766 265.904 209.956C276.213 202.393 283.942 192.502 288.245 181.364C295.594 181.197 305.444 178.51 315.248 173.567C332.122 165.042 342.475 153.079 338.321 146.839Z" fill="#FF4500"/>
<path opacity="0.1" d="M96.5443 150.102C100.674 143.858 117.731 145.696 134.601 154.207C138.343 156.081 141.901 158.22 145.24 160.604C145.402 157.536 145.402 160.8 145.394 157.449C142.007 155.022 138.394 152.846 134.593 150.944C117.731 142.433 100.669 140.594 96.5443 146.839C95.6345 148.213 95.4309 149.867 95.8422 151.698C95.9847 151.139 96.2213 150.601 96.5443 150.102Z" fill="black"/>
<path opacity="0.1" d="M338.412 150.102C334.283 143.858 317.225 145.696 300.351 154.207C296.417 156.187 294.917 156.912 291.793 159.153C291.627 156.085 291.627 159.349 291.639 155.998C294.797 153.718 296.354 152.96 300.363 150.944C317.254 142.433 334.295 140.594 338.424 146.839C339.334 148.213 339.538 149.867 339.126 151.698C338.98 151.138 338.739 150.6 338.412 150.102Z" fill="black"/>
<path d="M199 157.206C203.203 157.206 206.611 153.311 206.611 148.507C206.611 143.702 203.203 139.807 199 139.807C194.797 139.807 191.39 143.702 191.39 148.507C191.39 153.311 194.797 157.206 199 157.206Z" fill="#444053"/>
<path d="M238.32 157.206C242.523 157.206 245.93 153.311 245.93 148.507C245.93 143.702 242.523 139.807 238.32 139.807C234.117 139.807 230.709 143.702 230.709 148.507C230.709 153.311 234.117 157.206 238.32 157.206Z" fill="#444053"/>
<path d="M265.954 175.87C265.954 188.359 242.054 209.398 217.939 209.398C193.824 209.398 170.826 187.884 170.826 175.406C170.826 162.928 193.338 174.318 217.432 174.318C241.527 174.318 265.954 163.378 265.954 175.87Z" fill="#3F3D56"/>
<path d="M178.428 178.002C178.428 178.002 221.778 186.426 258.19 178.241C258.19 178.241 262.647 178.241 259.602 182.738C258.811 183.902 257.659 184.847 256.279 185.465C249.258 188.594 223.273 197.848 181.723 186.049C180.431 185.696 179.26 185.069 178.315 184.224C177.369 183.379 176.679 182.343 176.306 181.208C175.832 179.681 176.044 178.216 178.428 178.002Z" fill="#F6F8FB"/>
<path opacity="0.1" d="M218.392 105.359C237.1 105.36 255.101 111.598 268.716 122.798C282.331 133.998 290.53 149.314 291.639 165.615C291.778 164.02 291.847 162.408 291.847 160.781C291.701 143.876 283.906 127.707 270.16 115.798C256.414 103.89 237.832 97.2068 218.465 97.2068C199.098 97.2068 180.516 103.89 166.77 115.798C153.024 127.707 145.228 143.876 145.082 160.781C145.082 162.061 145.132 163.32 145.215 164.592C146.61 148.485 154.924 133.431 168.494 122.447C182.063 111.463 199.886 105.359 218.392 105.359Z" fill="black"/>
<path d="M226.671 22.5113C226.671 23.5894 226.428 24.657 225.956 25.653C225.483 26.6491 224.79 27.5541 223.917 28.3164C223.043 29.0788 222.007 29.6835 220.865 30.0961C219.724 30.5086 218.501 30.721 217.266 30.721C216.031 30.721 214.808 30.5086 213.667 30.0961C212.526 29.6835 211.489 29.0788 210.616 28.3164C209.742 27.5541 209.05 26.6491 208.577 25.653C208.104 24.657 207.861 23.5894 207.861 22.5113C207.861 22.3771 207.861 22.2466 207.861 22.116C207.985 20.0146 209.029 18.035 210.777 16.5859C212.525 15.1368 214.843 14.3289 217.254 14.3289C219.664 14.3289 221.983 15.1368 223.731 16.5859C225.479 18.035 226.522 20.0146 226.646 22.116C226.667 22.2466 226.671 22.3808 226.671 22.5113Z" fill="#3F3D56"/>
<path opacity="0.1" d="M226.671 22.5114C226.671 23.5895 226.428 24.657 225.956 25.6531C225.483 26.6491 224.79 27.5542 223.917 28.3165C223.043 29.0788 222.007 29.6836 220.865 30.0961C219.724 30.5087 218.501 30.7211 217.266 30.7211C216.031 30.7211 214.808 30.5087 213.667 30.0961C212.526 29.6836 211.489 29.0788 210.616 28.3165C209.742 27.5542 209.05 26.6491 208.577 25.6531C208.104 24.657 207.861 23.5895 207.861 22.5114C207.861 22.3772 207.861 22.2467 207.861 22.1161C210.512 20.2257 213.83 19.1931 217.254 19.1931C220.677 19.1931 223.995 20.2257 226.646 22.1161C226.667 22.2467 226.671 22.3808 226.671 22.5114Z" fill="black"/>
<path d="M217.266 45.8459C225.468 45.8459 232.118 40.0419 232.118 32.8823C232.118 25.7227 225.468 19.9187 217.266 19.9187C209.064 19.9187 202.415 25.7227 202.415 32.8823C202.415 40.0419 209.064 45.8459 217.266 45.8459Z" fill="#3F3D56"/>
<path d="M208.293 20.6982C208.294 18.7095 209.121 16.7887 210.622 15.2922C212.122 13.7958 214.194 12.8253 216.452 12.5611C215.123 12.4059 213.772 12.5004 212.489 12.8383C211.205 13.1761 210.02 13.7496 209.011 14.5201C208.002 15.2907 207.194 16.2405 206.64 17.3061C206.086 18.3716 205.799 19.5281 205.799 20.6982C205.799 21.8683 206.086 23.0248 206.64 24.0904C207.194 25.1559 208.002 26.1058 209.011 26.8763C210.02 27.6469 211.205 28.2203 212.489 28.5582C213.772 28.896 215.123 28.9906 216.452 28.8354C214.194 28.5711 212.122 27.6007 210.622 26.1042C209.121 24.6077 208.294 22.6869 208.293 20.6982Z" fill="#3F3D56"/>
<path d="M200.512 38.1439C198.805 36.8268 197.703 35.0132 197.412 33.0404C197.121 31.0675 197.66 29.0694 198.93 27.4176C197.959 28.1543 197.171 29.057 196.616 30.0699C196.06 31.0828 195.749 32.1844 195.701 33.3066C195.653 34.4288 195.869 35.5476 196.336 36.594C196.803 37.6404 197.51 38.592 198.416 39.39C199.321 40.188 200.404 40.8154 201.598 41.2335C202.792 41.6516 204.071 41.8514 205.357 41.8206C206.643 41.7898 207.908 41.529 209.074 41.0544C210.24 40.5798 211.282 39.9014 212.136 39.0613C212.413 38.7882 212.669 38.4986 212.9 38.1946C211.179 39.4981 208.974 40.2115 206.695 40.2022C204.417 40.1929 202.219 39.4614 200.512 38.1439Z" fill="#3F3D56"/>
<path d="M209.502 49.3197C208.763 49.5373 207.94 49.5844 207.304 49.9761C206.058 50.7267 206.112 52.3186 206.474 53.6022C207.304 56.5032 209.382 59.299 212.526 60.492C214.429 61.2172 216.556 61.2861 218.625 61.2644C220.88 61.2426 223.419 60.9924 224.814 59.4513C225.508 58.6789 225.803 57.6998 226.082 56.7461C226.771 54.3891 227.465 51.9777 227.216 49.5554C225.849 49.6606 224.308 49.7295 223.261 48.9789C222.214 48.2282 221.94 46.8031 221.474 45.6101C221.425 45.4204 221.301 45.2514 221.126 45.1315C220.932 45.0493 220.715 45.0203 220.502 45.0481C219.074 45.0949 217.644 45.033 216.228 44.8631C215.343 44.7616 213.166 43.9566 212.489 44.6347C212.003 45.1315 212.31 46.6291 211.941 47.3217C211.707 47.7799 211.371 48.1928 210.953 48.5359C210.534 48.8791 210.041 49.1456 209.502 49.3197Z" fill="#FFC1C7"/>
<path opacity="0.05" d="M209.502 49.3197C208.763 49.5373 207.94 49.5844 207.304 49.9761C206.058 50.7267 206.112 52.3186 206.474 53.6022C207.304 56.5032 209.382 59.299 212.526 60.492C214.429 61.2172 216.556 61.2861 218.625 61.2644C220.88 61.2426 223.419 60.9924 224.814 59.4513C225.508 58.6789 225.803 57.6998 226.082 56.7461C226.771 54.3891 227.465 51.9777 227.216 49.5554C225.849 49.6606 224.308 49.7295 223.261 48.9789C222.214 48.2282 221.94 46.8031 221.474 45.6101C221.425 45.4204 221.301 45.2514 221.126 45.1315C220.932 45.0493 220.715 45.0203 220.502 45.0481C219.074 45.0949 217.644 45.033 216.228 44.8631C215.343 44.7616 213.166 43.9566 212.489 44.6347C212.003 45.1315 212.31 46.6291 211.941 47.3217C211.707 47.7799 211.371 48.1928 210.953 48.5359C210.534 48.8791 210.041 49.1456 209.502 49.3197Z" fill="black"/>
<path d="M131.922 133.915C128.598 134.002 125.204 133.879 121.952 134.517C121.331 134.579 120.757 134.837 120.34 135.242C119.862 135.837 120.115 136.667 120.51 137.309C121.411 138.759 122.916 139.851 124.714 140.359C126.692 140.91 128.823 140.7 130.891 140.758C133.714 140.836 136.488 141.419 139.042 142.469C139.624 142.709 140.238 142.977 140.874 142.893C141.792 142.77 142.365 141.969 142.706 141.215C143.087 140.307 143.394 139.378 143.624 138.433C144.106 136.646 144.173 133.114 141.36 132.631C140.072 132.414 138.556 133.19 137.318 133.415C135.54 133.723 133.734 133.89 131.922 133.915Z" fill="#444053"/>
<path d="M302.249 134.753C303.041 134.516 303.722 134.06 304.189 133.454C305.436 131.87 305.436 129.977 306.096 128.24C306.927 125.981 308.767 124.117 309.922 121.967C310.956 120.042 311.433 117.925 311.31 115.802C311.301 115.649 311.254 115.498 311.174 115.361C311.093 115.225 310.98 115.104 310.842 115.008C310.704 114.912 310.545 114.843 310.374 114.805C310.203 114.767 310.025 114.76 309.852 114.787C308.285 115.052 306.865 116.042 305.868 117.173C304.584 118.623 303.745 120.349 302.428 121.782C301.111 123.214 299.262 124.364 297.696 125.68C295.731 127.333 294.19 129.132 295.943 131.279C297.368 133.041 299.337 135.587 302.249 134.753Z" fill="#444053"/>
<path d="M200.437 87.2678C189.982 99.1309 177.006 109.124 162.219 116.702C157.695 119.019 152.975 121.122 148.954 124.063C145.905 126.296 143.317 128.965 140.745 131.62C140.45 131.872 140.248 132.195 140.164 132.548C140.153 132.804 140.205 133.058 140.317 133.295C141.148 135.434 142.112 137.755 144.33 138.923C150.08 131.67 161.504 129.796 170.265 125.408C174.336 123.37 178.046 120.839 181.802 118.388C187.23 114.841 192.778 111.444 198.448 108.194C202.207 106.041 206.079 103.923 210.391 102.802C219.53 100.416 229.5 102.802 237.942 106.719C246.383 110.635 253.815 115.987 262.086 120.154C273.328 125.81 285.869 129.147 298.286 132.436C298.731 129.832 299.001 127.279 299.632 124.704C296.533 124.324 293.604 123.254 290.713 122.206C287.485 121.031 284.237 119.842 281.337 118.134C279.422 117.002 277.681 115.654 275.787 114.508C271.658 111.969 266.872 110.374 262.689 107.912C257.238 104.706 253.022 100.17 248.037 96.4312C245.864 94.803 243.554 93.3271 241.24 91.8549C238.847 90.3283 236.417 88.7872 233.659 87.8407C230.385 86.713 226.813 86.4809 223.302 86.2633C215.451 85.7557 207.878 85.0812 200.437 87.2678Z" fill="#575A89"/>
<path d="M217.059 48.2028C222.794 48.2028 227.444 44.1441 227.444 39.1374C227.444 34.1306 222.794 30.0719 217.059 30.0719C211.323 30.0719 206.673 34.1306 206.673 39.1374C206.673 44.1441 211.323 48.2028 217.059 48.2028Z" fill="#FFC1C7"/>
<path d="M216.751 58.0407C214.882 57.8377 213.089 57.2674 211.509 56.3726C209.928 55.4649 208.789 54.077 208.314 52.4781C207.977 51.1981 208.164 49.8165 207.574 48.6126C205.701 49.4322 203.757 50.121 201.759 50.6723C200.633 50.9805 199.457 51.2633 198.543 51.9124C196.578 53.3085 196.466 55.8468 196.52 58.0552C196.502 58.4927 196.566 58.9298 196.707 59.3497C196.894 59.7483 197.169 60.1106 197.517 60.4158C199.652 62.4102 202.972 63.237 204.995 65.3293C203.939 66.3615 203.259 67.6436 203.038 69.0135C202.989 69.5642 202.901 70.1117 202.772 70.6525C202.603 71.0983 202.399 71.5333 202.162 71.9543C200.849 74.5652 200.894 77.5169 200.695 80.3598C200.496 83.2028 199.931 86.2306 197.729 88.3374C198.626 89.1787 199.806 89.4253 201.098 89.5304C202.39 89.6356 203.728 89.4869 205.045 89.5304C208.517 89.6175 211.795 90.8576 215.143 91.6663C218.492 92.4749 222.293 92.8049 225.255 91.2202C226.293 90.6654 227.174 89.9003 228.217 89.3528C229.463 88.6928 230.925 88.3773 232.371 88.0691L232.89 72.9262C232.903 71.8648 232.99 70.8052 233.152 69.7533C233.904 65.6122 236.932 62.1056 239.865 58.7877C239.692 57.2753 239.128 55.8171 238.214 54.5231C237.301 53.2291 236.063 52.133 234.594 51.3177C233.278 50.6355 231.886 50.0717 230.439 49.6352L227.025 48.4893C226.722 48.3623 226.387 48.3072 226.052 48.3298C225.313 48.4458 225.031 49.2327 224.989 49.8854C224.923 50.9152 225.097 51.9487 225.055 52.9785C225.014 54.0084 224.719 55.0962 223.884 55.8251C223.284 56.294 222.576 56.6452 221.807 56.8549C220.062 57.4351 218.591 58.28 216.751 58.0407Z" fill="#FF6584"/>
<path d="M202.967 95.9924C203.104 98.0121 203.242 100.054 202.851 102.048C202.461 104.042 201.505 106.015 199.769 107.357C198.427 108.39 196.541 109.17 196.208 110.718C196.127 111.057 196.159 111.41 196.3 111.734C196.67 112.495 197.754 112.84 198.693 112.709C199.621 112.522 200.479 112.13 201.185 111.57C202.624 110.544 204.002 109.455 205.315 108.307C206.474 107.324 207.674 106.287 208.16 104.942C208.362 104.301 208.475 103.641 208.497 102.976C208.767 99.3502 208.837 95.724 208.912 92.0978C208.962 89.458 208.995 86.7347 207.882 84.2798C208.048 84.6424 204.002 84.9869 203.694 85.005C201.95 85.1392 202.282 85.7665 202.382 87.2025C202.576 90.1421 202.771 93.0721 202.967 95.9924Z" fill="#FFC1C7"/>
<path d="M233.218 95.9924C233.081 98.0121 232.944 100.054 233.335 102.048C233.725 104.042 234.681 106.015 236.417 107.357C237.759 108.39 239.645 109.17 239.977 110.718C240.059 111.057 240.027 111.41 239.886 111.734C239.516 112.495 238.432 112.84 237.493 112.709C236.565 112.522 235.706 112.13 235.001 111.57C233.562 110.544 232.184 109.455 230.871 108.307C229.712 107.324 228.512 106.287 228.026 104.942C227.824 104.301 227.711 103.641 227.689 102.976C227.419 99.3502 227.349 95.724 227.274 92.0978C227.224 89.458 227.191 86.7347 228.304 84.2798C228.138 84.6424 232.184 84.9869 232.491 85.005C234.236 85.1392 233.904 85.7665 233.804 87.2025C233.621 90.1421 233.426 93.0721 233.218 95.9924Z" fill="#FFC1C7"/>
<path opacity="0.1" d="M197.754 56.7207C196.287 60.4992 196.881 64.6983 198.381 68.4587C198.747 69.3833 199.175 70.3479 199.004 71.3161C198.88 71.8114 198.707 72.2966 198.489 72.7666C198.065 73.9032 197.987 75.1169 198.265 76.2876C198.326 76.6393 198.485 76.9727 198.726 77.2594C198.874 77.392 199.013 77.5325 199.141 77.68C199.71 78.4561 198.593 79.417 198.726 80.3344C198.826 81.0959 199.71 81.5456 200.329 82.0931C202.078 83.6415 201.742 86.1617 201.285 88.3011C203.408 88.138 205.24 86.6222 207.367 86.7455C208.066 86.7958 208.734 87.0214 209.289 87.3952C209.845 87.7689 210.265 88.275 210.499 88.8523C210.42 87.0574 211.151 85.5271 211.33 83.7358C211.567 81.4041 209.838 79.3155 209.003 77.0962C207.786 73.8617 208.472 70.3479 208.173 66.9429C208.043 65.6777 207.832 64.4199 207.541 63.1753C207.163 61.471 206.611 59.6071 204.957 58.6389C202.826 57.4024 199.619 58.28 197.754 56.7207Z" fill="black"/>
<path d="M197.338 55.9956C195.872 59.7741 196.466 63.9732 197.966 67.7336C198.331 68.6582 198.759 69.6228 198.589 70.591C198.464 71.0863 198.292 71.5715 198.074 72.0415C197.649 73.1781 197.572 74.3918 197.849 75.5625C197.911 75.9142 198.069 76.2476 198.31 76.5343C198.459 76.6669 198.597 76.8074 198.726 76.9549C199.295 77.7309 198.178 78.6919 198.31 79.6093C198.41 80.3708 199.295 80.8205 199.914 81.368C201.663 82.9164 201.326 85.4366 200.869 87.576C202.992 87.4129 204.824 85.8971 206.951 86.0204C207.65 86.0707 208.318 86.2963 208.874 86.67C209.43 87.0438 209.85 87.5499 210.084 88.1272C210.005 86.3323 210.736 84.802 210.914 83.0107C211.151 80.679 209.423 78.5904 208.588 76.3711C207.371 73.1366 208.056 69.6228 207.757 66.2178C207.628 64.9526 207.417 63.6948 207.126 62.4502C206.748 60.7459 206.195 58.882 204.542 57.9138C202.411 56.6773 199.204 57.5549 197.338 55.9956Z" fill="#FF6584"/>
<path opacity="0.1" d="M238.445 56.7207C239.911 60.4992 239.317 64.6983 237.817 68.4587C237.452 69.3833 237.024 70.3479 237.194 71.3161C237.319 71.8114 237.491 72.2966 237.709 72.7666C238.134 73.9032 238.211 75.1169 237.934 76.2876C237.872 76.6393 237.714 76.9727 237.472 77.2594C237.324 77.392 237.185 77.5325 237.057 77.68C236.488 78.4561 237.605 79.417 237.472 80.3344C237.373 81.0959 236.488 81.5456 235.869 82.0931C234.12 83.6415 234.456 86.1617 234.913 88.3011C232.791 88.138 230.959 86.6222 228.832 86.7455C228.132 86.7958 227.465 87.0214 226.909 87.3952C226.353 87.7689 225.933 88.275 225.699 88.8523C225.778 87.0574 225.047 85.5271 224.869 83.7358C224.632 81.4041 226.36 79.3155 227.195 77.0962C228.412 73.8617 227.727 70.3479 228.026 66.9429C228.153 65.6839 228.361 64.4322 228.649 63.1934C229.027 61.4891 229.579 59.6253 231.233 58.6571C233.372 57.4024 236.579 58.28 238.445 56.7207Z" fill="black"/>
<path d="M238.86 55.9956C240.326 59.7741 239.732 63.9732 238.233 67.7336C237.867 68.6582 237.439 69.6228 237.61 70.591C237.734 71.0863 237.906 71.5715 238.125 72.0415C238.549 73.1781 238.627 74.3918 238.349 75.5625C238.287 75.9142 238.129 76.2476 237.888 76.5343C237.74 76.6669 237.601 76.8074 237.472 76.9549C236.903 77.7309 238.021 78.6919 237.888 79.6093C237.788 80.3708 236.903 80.8205 236.284 81.368C234.535 82.9164 234.872 85.4366 235.329 87.576C233.206 87.4129 231.374 85.8971 229.247 86.0204C228.548 86.0707 227.88 86.2963 227.324 86.67C226.769 87.0438 226.349 87.5499 226.115 88.1272C226.194 86.3323 225.463 84.802 225.284 83.0107C225.047 80.679 226.775 78.5904 227.61 76.3711C228.827 73.1366 228.142 69.6228 228.441 66.2178C228.569 64.9588 228.777 63.7071 229.064 62.4683C229.442 60.764 229.995 58.9002 231.648 57.932C233.788 56.6773 236.995 57.5549 238.86 55.9956Z" fill="#FF6584"/>
<path d="M216.851 37.8683C223.734 37.8683 229.314 34.6213 229.314 30.6159C229.314 26.6105 223.734 23.3635 216.851 23.3635C209.968 23.3635 204.388 26.6105 204.388 30.6159C204.388 34.6213 209.968 37.8683 216.851 37.8683Z" fill="#3F3D56"/>
<path opacity="0.05" d="M206.465 69.0571C206.461 67.7712 207.017 66.532 208.019 65.5897C209.022 64.6475 210.396 64.0723 211.866 63.9805C211.729 63.9805 211.592 63.9805 211.45 63.9805C209.908 63.9805 208.429 64.5153 207.338 65.4674C206.247 66.4194 205.634 67.7107 205.634 69.0571C205.634 70.4035 206.247 71.6948 207.338 72.6469C208.429 73.5989 209.908 74.1338 211.45 74.1338C211.592 74.1338 211.729 74.1338 211.866 74.1157C210.4 74.024 209.028 73.4514 208.026 72.513C207.025 71.5746 206.467 70.3399 206.465 69.0571Z" fill="black"/>
<path d="M211.035 74.1301C213.559 74.1301 215.605 71.8572 215.605 69.0535C215.605 66.2497 213.559 63.9768 211.035 63.9768C208.511 63.9768 206.465 66.2497 206.465 69.0535C206.465 71.8572 208.511 74.1301 211.035 74.1301Z" fill="#FF6584"/>
<path opacity="0.05" d="M230.144 69.0571C230.148 67.7712 229.593 66.532 228.59 65.5897C227.588 64.6475 226.213 64.0723 224.744 63.9805C224.885 63.9805 225.022 63.9805 225.159 63.9805C226.702 63.9805 228.181 64.5153 229.272 65.4674C230.363 66.4194 230.975 67.7107 230.975 69.0571C230.975 70.4035 230.363 71.6948 229.272 72.6469C228.181 73.5989 226.702 74.1338 225.159 74.1338C225.022 74.1338 224.885 74.1338 224.744 74.1157C226.21 74.024 227.581 73.4514 228.583 72.513C229.585 71.5746 230.143 70.3399 230.144 69.0571Z" fill="black"/>
<path d="M225.575 74.1301C228.098 74.1301 230.144 71.8572 230.144 69.0535C230.144 66.2497 228.098 63.9768 225.575 63.9768C223.051 63.9768 221.005 66.2497 221.005 69.0535C221.005 71.8572 223.051 74.1301 225.575 74.1301Z" fill="#FF6584"/>
<path opacity="0.1" d="M216.851 37.1466C210.179 37.1466 204.729 34.0933 204.388 30.2568C204.388 30.3765 204.388 30.4962 204.388 30.6195C204.388 34.6083 209.971 37.8718 216.851 37.8718C223.73 37.8718 229.314 34.6083 229.314 30.6195C229.314 30.4962 229.314 30.3765 229.314 30.2568C228.977 34.0933 223.527 37.1466 216.851 37.1466Z" fill="black"/>
<path d="M143.317 12.3762L136.869 15.948L140.783 9.73268C139.675 8.96094 138.303 8.53351 136.886 8.51791H136.782C136.334 8.52496 135.887 8.49704 135.444 8.4345L133.259 9.64202L134.194 8.15529C132.645 7.68232 131.307 6.79384 130.372 5.61696L126.463 7.79267L128.947 3.86551C126.662 1.47223 123.58 0 120.186 0C116.119 0 112.496 2.11407 110.158 5.40301C109.466 6.39057 108.486 7.19982 107.318 7.74782C106.15 8.29581 104.836 8.56284 103.511 8.52153H103.295C98.8041 8.52153 95.165 12.9672 95.165 18.4464C95.165 23.9256 98.8041 28.3713 103.295 28.3713C104.281 28.3681 105.252 28.1565 106.124 27.7548C109.053 26.424 112.899 26.3986 115.965 27.5844C117.282 28.0972 118.707 28.3622 120.149 28.3622C121.59 28.3622 123.016 28.0972 124.332 27.5844C125.876 27.0004 127.545 26.7127 129.227 26.7409C130.909 26.769 132.565 27.1123 134.082 27.7476C134.948 28.142 135.909 28.3496 136.886 28.3531C141.377 28.3531 145.016 23.9111 145.016 18.4283C145.038 16.3186 144.454 14.2377 143.317 12.3762Z" fill="#F2F2F2"/>
<path opacity="0.03" d="M131.166 26.899C128.819 26.5105 126.394 26.7416 124.199 27.5626C122.883 28.0753 121.459 28.3403 120.018 28.3403C118.577 28.3403 117.152 28.0753 115.837 27.5626C114.28 26.9668 112.594 26.6731 110.895 26.7019C109.196 26.7307 107.524 27.0813 105.995 27.7294C105.124 28.1339 104.153 28.3468 103.166 28.3495C99.1739 28.3495 95.8588 24.843 95.165 20.216C95.9622 19.7079 96.6393 19.0701 97.1591 18.3376C99.4979 15.0487 103.12 12.9382 107.187 12.9382C111.254 12.9382 114.835 15.0233 117.158 18.2796C117.855 19.2621 118.832 20.0707 119.993 20.6272C121.154 21.1837 122.459 21.4692 123.784 21.4561H123.887C127.078 21.438 129.828 23.6609 131.166 26.899Z" fill="black"/>
<path d="M363.483 74.5979L360.267 76.3783L362.22 73.2816C361.666 72.8955 360.98 72.6823 360.272 72.676H360.222C359.998 72.6779 359.774 72.6633 359.553 72.6325L358.464 73.2344L358.93 72.5092C358.158 72.2721 357.491 71.8294 357.023 71.2436L355.075 72.3315L356.321 70.377C355.802 69.7882 355.138 69.3081 354.379 68.9718C353.62 68.6355 352.785 68.4515 351.934 68.4333C349.907 68.4333 348.1 69.4886 346.949 71.1276C346.603 71.6207 346.112 72.0246 345.528 72.298C344.944 72.5713 344.288 72.7043 343.625 72.6832H343.517C341.278 72.6832 339.463 74.8988 339.463 77.633C339.463 80.3671 341.278 82.5755 343.517 82.5755C344.01 82.5741 344.495 82.4683 344.93 82.2672C345.693 81.9439 346.527 81.769 347.375 81.7546C348.222 81.7402 349.064 81.8867 349.84 82.1839C350.494 82.4376 351.202 82.5686 351.917 82.5686C352.633 82.5686 353.341 82.4376 353.994 82.1839C354.765 81.8922 355.598 81.7487 356.437 81.7631C357.277 81.7775 358.103 81.9494 358.859 82.2672C359.29 82.4639 359.769 82.5672 360.255 82.5682C362.494 82.5682 364.309 80.3526 364.309 77.6185C364.326 76.5672 364.042 75.529 363.483 74.5979Z" fill="#F2F2F2"/>
<path opacity="0.03" d="M357.43 81.8502C356.259 81.6563 355.049 81.7712 353.953 82.1802C353.299 82.4341 352.591 82.565 351.876 82.5646C351.16 82.5614 350.452 82.428 349.799 82.173C349.023 81.874 348.183 81.7265 347.335 81.7409C346.488 81.7553 345.654 81.9312 344.893 82.2564C344.457 82.457 343.973 82.5628 343.48 82.5646C341.49 82.5646 339.833 80.8131 339.488 78.5069C339.886 78.2537 340.224 77.9361 340.485 77.5713C341.648 75.9287 343.455 74.8771 345.47 74.8771C347.485 74.8771 349.284 75.9178 350.455 77.5423C350.805 78.0347 351.295 78.4395 351.877 78.7173C352.46 78.995 353.115 79.1362 353.778 79.127H353.832C355.382 79.127 356.753 80.233 357.43 81.8502Z" fill="black"/>
<path d="M297.497 33.2594L302.665 36.1204L299.528 31.1417C300.416 30.522 301.516 30.1787 302.652 30.1662H302.735C303.094 30.1694 303.453 30.1452 303.807 30.0937L305.556 31.0655L304.808 29.8725C306.052 29.4885 307.124 28.7699 307.87 27.8201L311.002 29.5534L309.025 26.4131C310.857 24.4912 313.325 23.3127 316.046 23.3127C319.302 23.3127 322.206 25.0062 324.08 27.6424C324.634 28.4305 325.417 29.0767 326.349 29.5154C327.281 29.9542 328.33 30.17 329.389 30.1408H329.568C333.165 30.1408 336.077 33.7018 336.077 38.0931C336.077 42.4844 333.169 46.0453 329.568 46.0453C328.776 46.0434 327.996 45.8742 327.295 45.5521C326.07 45.0305 324.729 44.748 323.366 44.7242C322.003 44.7004 320.65 44.9359 319.402 45.4143C318.347 45.8256 317.205 46.0381 316.05 46.0381C314.894 46.0381 313.752 45.8256 312.697 45.4143C311.46 44.9459 310.122 44.7155 308.773 44.7386C307.425 44.7618 306.098 45.038 304.883 45.5485C304.19 45.8632 303.421 46.0286 302.64 46.0308C299.042 46.0308 296.126 42.4699 296.126 38.0786C296.116 36.3976 296.587 34.7411 297.497 33.2594Z" fill="#F2F2F2"/>
<path opacity="0.03" d="M307.234 44.8632C309.113 44.5507 311.056 44.735 312.814 45.3926C313.868 45.8038 315.011 46.0164 316.166 46.0164C317.321 46.0164 318.464 45.8038 319.518 45.3926C320.767 44.9146 322.119 44.679 323.482 44.7022C324.845 44.7253 326.186 45.0067 327.411 45.5268C328.112 45.8508 328.891 46.0213 329.684 46.0236C332.878 46.0236 335.537 43.2133 336.09 39.4964C335.453 39.088 334.912 38.5772 334.494 37.9916C332.621 35.3553 329.717 33.6655 326.456 33.6655C323.195 33.6655 320.333 35.3372 318.459 37.9444C317.899 38.7301 317.116 39.3765 316.186 39.8211C315.256 40.2657 314.21 40.4936 313.15 40.4828H313.067C310.508 40.5118 308.306 42.2813 307.234 44.8632Z" fill="black"/>
<path d="M100.283 237.112C98.5674 234.342 100.512 230.948 102.747 228.479C104.982 226.009 107.711 223.435 107.653 220.287C107.57 215.762 102.065 213.089 97.6826 210.692C94.4233 208.916 91.4168 206.809 88.726 204.415C87.5975 203.493 86.665 202.404 85.9718 201.199C85.062 199.429 85.0869 197.417 85.1409 195.477C85.332 189.022 85.6976 182.572 86.2377 176.127" stroke="#3F3D56" stroke-width="4" stroke-miterlimit="10"/>
<path d="M77.8835 175.768C77.9415 174.583 78.3421 173.429 79.0481 172.414C79.7541 171.4 80.7425 170.558 81.9214 169.966L83.7285 173.089L83.6661 169.321C84.5293 169.097 85.4297 169.003 86.329 169.042C87.9262 169.106 89.4659 169.582 90.7532 170.409C92.0406 171.237 93.0179 172.379 93.5616 173.692C94.1052 175.004 94.1908 176.428 93.8075 177.783C93.4242 179.138 92.5892 180.363 91.4081 181.304C90.227 182.244 88.7528 182.858 87.172 183.068C85.5913 183.277 83.9748 183.073 82.5272 182.48C81.0796 181.888 79.8657 180.934 79.0391 179.739C78.2125 178.544 77.8104 177.163 77.8835 175.768Z" fill="#57B894"/>
<path d="M92.3029 223.522C93.1512 224.961 94.5409 226.103 96.2389 226.754C97.9368 227.405 99.8398 227.527 101.629 227.099C103.417 226.672 104.983 225.72 106.063 224.404C107.143 223.088 107.672 221.487 107.561 219.871C107.45 218.255 106.706 216.722 105.453 215.528C104.201 214.334 102.516 213.552 100.681 213.314C98.8466 213.076 96.974 213.396 95.3775 214.22C93.7809 215.043 92.5575 216.322 91.9124 217.839L96.9597 221.426L91.4055 220.302C91.4029 221.422 91.7107 222.527 92.3029 223.522Z" fill="#57B894"/>
<path d="M96.295 209.822C98.2801 209.905 100.231 209.347 101.774 208.255C103.318 207.162 104.347 205.612 104.664 203.899C104.981 202.187 104.564 200.432 103.493 198.971C102.422 197.51 100.772 196.444 98.8582 195.977L98.8997 198.878L97.0677 195.712H97.0469C95.9734 195.65 94.8964 195.775 93.879 196.08C92.8615 196.385 91.9241 196.865 91.1215 197.49C90.3189 198.116 89.6674 198.875 89.205 199.723C88.7426 200.571 88.4787 201.491 88.4287 202.429C88.3786 203.367 88.5435 204.304 88.9137 205.186C89.2839 206.068 89.8519 206.876 90.5844 207.564C91.3169 208.252 92.1993 208.805 93.1799 209.192C94.1605 209.578 95.2195 209.79 96.295 209.815V209.822Z" fill="#57B894"/>
<path d="M76.6704 198.421C77.9203 198.471 79.1664 198.268 80.3108 197.826C81.4552 197.385 82.4665 196.717 83.2652 195.877C84.0638 195.036 84.628 194.045 84.9134 192.982C85.1988 191.918 85.1975 190.811 84.9096 189.749C84.6218 188.686 84.0552 187.696 83.2546 186.857C82.4539 186.017 81.441 185.352 80.2956 184.912C79.1502 184.473 77.9036 184.271 76.6539 184.324C75.4041 184.376 74.1854 184.681 73.0936 185.215L74.5227 188.634L71.5857 186.168C70.8047 186.791 70.172 187.542 69.7236 188.378C69.2753 189.214 69.0201 190.12 68.9726 191.042C68.9345 191.695 69.003 192.349 69.1762 192.986C69.5776 194.48 70.5265 195.819 71.879 196.8C73.2316 197.781 74.9138 198.35 76.6704 198.421Z" fill="#57B894"/>
<path opacity="0.1" d="M78.9719 177.64C80.8372 177.821 82.6526 178.325 84.5261 178.426C86.3997 178.528 88.4519 178.136 89.6358 176.867C90.2756 176.182 90.5954 175.315 91.1355 174.572C91.6454 173.875 92.3447 173.3 93.1711 172.896C93.6893 173.791 93.9834 174.771 94.0338 175.772C94.0841 176.774 93.8896 177.773 93.4631 178.703C93.0366 179.634 92.3879 180.474 91.5602 181.169C90.7325 181.863 89.7448 182.396 88.6629 182.731C87.581 183.067 86.4296 183.197 85.2854 183.114C84.1412 183.031 83.0305 182.736 82.0272 182.248C81.0239 181.761 80.151 181.093 79.4666 180.288C78.7822 179.484 78.302 178.561 78.058 177.582C78.3612 177.582 78.6811 177.611 78.9719 177.64Z" fill="black"/>
<path opacity="0.1" d="M76.6705 198.421C78.064 198.478 79.4505 198.219 80.6954 197.669C81.9403 197.12 83.0012 196.298 83.7751 195.285C84.549 194.272 85.0096 193.102 85.1121 191.887C85.2145 190.673 84.9555 189.456 84.36 188.355C83.7164 188.732 83.1633 189.215 82.7315 189.776C82.1583 190.534 81.8093 191.412 81.1322 192.108C79.8859 193.399 77.7215 193.823 75.7691 193.743C73.8166 193.664 71.9347 193.185 69.9905 193.018C69.7246 192.996 69.4505 192.982 69.1597 192.975C69.5595 194.473 70.5099 195.817 71.8659 196.8C73.222 197.784 74.9093 198.353 76.6705 198.421Z" fill="black"/>
<path opacity="0.1" d="M96.295 209.822C97.6747 209.878 99.0481 209.625 100.284 209.087C101.52 208.549 102.577 207.743 103.355 206.747C104.133 205.75 104.605 204.596 104.727 203.395C104.849 202.194 104.616 200.986 104.051 199.886C103.383 200.273 102.803 200.765 102.339 201.337C101.712 202.113 101.322 203.001 100.586 203.715C99.2196 205.043 96.9306 205.528 94.8618 205.467C92.8595 205.431 90.9319 204.999 88.942 204.868C89.4367 206.253 90.4078 207.471 91.7233 208.358C93.0388 209.244 94.635 209.755 96.295 209.822Z" fill="black"/>
<path opacity="0.1" d="M92.3029 223.522C93.2492 225.127 94.8642 226.354 96.8157 226.951C98.7672 227.549 100.907 227.471 102.794 226.733C104.682 225.995 106.174 224.654 106.963 222.986C107.752 221.317 107.779 219.448 107.038 217.763C106.372 218.145 105.775 218.611 105.264 219.145C104.496 219.964 103.989 220.889 103.1 221.65C101.438 223.068 98.7793 223.652 96.4031 223.707C95.0334 223.714 93.6643 223.653 92.3029 223.522Z" fill="black"/>
<path d="M339.774 234.382C338.528 232.337 339.945 229.828 341.598 228.004C343.252 226.18 345.262 224.279 345.217 221.955C345.158 218.612 341.091 216.639 337.847 214.866C335.436 213.551 333.213 211.99 331.225 210.217C330.393 209.534 329.704 208.729 329.189 207.838C328.521 206.533 328.537 205.046 328.579 203.614C328.72 198.847 328.997 194.082 329.41 189.319" stroke="#3F3D56" stroke-width="4" stroke-miterlimit="10"/>
<path d="M323.216 189.062C323.264 188.189 323.562 187.34 324.083 186.594C324.604 185.848 325.332 185.228 326.199 184.79L327.536 187.1L327.495 184.304C328.134 184.142 328.799 184.072 329.464 184.098C330.645 184.143 331.784 184.494 332.737 185.105C333.689 185.716 334.413 186.56 334.816 187.53C335.219 188.5 335.283 189.553 335 190.555C334.717 191.557 334.1 192.463 333.227 193.159C332.353 193.854 331.263 194.308 330.095 194.463C328.926 194.617 327.73 194.466 326.66 194.027C325.59 193.588 324.693 192.882 324.083 191.999C323.473 191.115 323.177 190.093 323.232 189.062H323.216Z" fill="#57B894"/>
<path d="M333.867 224.359C334.494 225.422 335.521 226.264 336.775 226.745C338.029 227.225 339.434 227.315 340.755 226.998C342.076 226.682 343.232 225.978 344.029 225.006C344.826 224.034 345.216 222.852 345.133 221.659C345.05 220.466 344.5 219.333 343.575 218.452C342.649 217.571 341.404 216.994 340.05 216.819C338.695 216.644 337.312 216.88 336.134 217.489C334.955 218.098 334.052 219.043 333.576 220.164L337.315 222.814L333.215 221.984C333.211 222.81 333.435 223.625 333.867 224.359Z" fill="#57B894"/>
<path d="M336.817 214.206C338.397 214.267 339.94 213.779 341.108 212.848C342.276 211.918 342.974 210.621 343.048 209.242C343.094 208.427 342.918 207.614 342.533 206.87C342.176 206.171 341.648 205.549 340.985 205.048C340.323 204.546 339.542 204.178 338.699 203.969L338.728 206.12L337.378 203.781C335.794 203.716 334.245 204.203 333.073 205.134C331.9 206.066 331.2 207.366 331.125 208.749C331.051 210.131 331.609 211.483 332.676 212.506C333.744 213.53 335.233 214.141 336.817 214.206Z" fill="#57B894"/>
<path d="M322.318 205.8C323.243 205.839 324.165 205.69 325.012 205.365C325.859 205.04 326.608 204.547 327.2 203.926C327.792 203.305 328.21 202.572 328.422 201.785C328.634 200.999 328.633 200.18 328.421 199.394C328.208 198.608 327.789 197.875 327.197 197.255C326.604 196.634 325.855 196.142 325.007 195.817C324.16 195.492 323.237 195.344 322.313 195.384C321.389 195.424 320.487 195.65 319.681 196.046L320.736 198.584L318.563 196.771C317.986 197.231 317.519 197.785 317.189 198.402C316.858 199.019 316.67 199.688 316.635 200.368C316.605 200.856 316.656 201.344 316.785 201.819C317.089 202.916 317.793 203.898 318.791 204.616C319.788 205.334 321.027 205.749 322.318 205.8Z" fill="#57B894"/>
<path opacity="0.1" d="M324.022 190.451C325.397 190.585 326.738 190.958 328.122 191.035C329.505 191.111 331.03 190.817 331.898 189.881C332.372 189.374 332.608 188.736 333.003 188.184C333.381 187.671 333.897 187.246 334.507 186.948C334.981 187.761 335.202 188.668 335.148 189.58C335.094 190.491 334.767 191.373 334.2 192.139C333.632 192.906 332.845 193.528 331.915 193.945C330.985 194.362 329.947 194.559 328.903 194.516C327.591 194.457 326.338 194.022 325.337 193.28C324.337 192.537 323.644 191.528 323.365 190.407C323.569 190.415 323.781 190.429 324.022 190.451Z" fill="black"/>
<path opacity="0.1" d="M322.318 205.8C323.347 205.842 324.371 205.65 325.29 205.244C326.209 204.838 326.993 204.232 327.564 203.484C328.136 202.736 328.477 201.872 328.553 200.976C328.63 200.079 328.44 199.18 328.001 198.367C327.527 198.646 327.118 199.001 326.797 199.415C326.381 199.977 326.115 200.622 325.617 201.137C324.686 202.091 323.095 202.406 321.654 202.348C320.212 202.29 318.825 201.931 317.387 201.819C317.188 201.801 316.972 201.79 316.785 201.786C317.082 202.89 317.782 203.878 318.781 204.603C319.78 205.327 321.021 205.748 322.318 205.8Z" fill="black"/>
<path opacity="0.1" d="M336.817 214.206C338.397 214.267 339.94 213.779 341.108 212.848C342.276 211.917 342.974 210.621 343.048 209.242C343.094 208.427 342.918 207.614 342.533 206.87C342.047 207.154 341.625 207.513 341.287 207.929C340.821 208.498 340.535 209.158 339.99 209.684C338.981 210.663 337.29 211.011 335.761 210.979C334.233 210.946 332.854 210.634 331.391 210.536C331.753 211.561 332.468 212.463 333.439 213.12C334.41 213.777 335.59 214.156 336.817 214.206Z" fill="black"/>
<path opacity="0.1" d="M333.867 224.359C334.569 225.54 335.762 226.442 337.201 226.88C338.64 227.318 340.216 227.26 341.608 226.717C342.999 226.174 344.1 225.187 344.685 223.959C345.27 222.73 345.295 221.353 344.755 220.109C344.262 220.39 343.82 220.734 343.443 221.128C342.874 221.734 342.5 222.416 341.843 222.981C340.622 224.026 338.653 224.457 336.9 224.497C335.887 224.504 334.874 224.458 333.867 224.359Z" fill="black"/>
<path d="M390.319 239.651C392.035 236.88 390.091 233.486 387.856 231.017C385.621 228.547 382.87 225.973 382.949 222.825C383.032 218.3 388.537 215.627 392.92 213.23C396.18 211.455 399.188 209.348 401.88 206.954C403.009 206.032 403.941 204.943 404.634 203.737C405.544 201.968 405.519 199.955 405.465 198.015C405.291 191.551 404.927 185.102 404.373 178.669" stroke="#3F3D56" stroke-width="4" stroke-miterlimit="10"/>
<path d="M412.735 178.307C412.676 177.121 412.275 175.968 411.569 174.953C410.863 173.939 409.875 173.097 408.697 172.505L406.886 175.631L406.944 171.848C406.081 171.625 405.181 171.531 404.281 171.569C402.685 171.634 401.147 172.111 399.861 172.939C398.575 173.767 397.598 174.909 397.056 176.221C396.513 177.533 396.427 178.956 396.811 180.31C397.194 181.664 398.028 182.889 399.208 183.829C400.388 184.77 401.861 185.384 403.441 185.594C405.021 185.804 406.636 185.601 408.084 185.01C409.531 184.419 410.746 183.467 411.574 182.274C412.402 181.081 412.806 179.7 412.735 178.307Z" fill="#57B894"/>
<path d="M398.316 226.06C397.468 227.5 396.078 228.641 394.38 229.292C392.682 229.944 390.779 230.066 388.99 229.638C387.202 229.21 385.636 228.258 384.556 226.942C383.475 225.626 382.946 224.026 383.057 222.41C383.169 220.794 383.913 219.26 385.166 218.066C386.418 216.872 388.103 216.091 389.938 215.852C391.772 215.614 393.645 215.934 395.241 216.758C396.838 217.582 398.061 218.86 398.706 220.378L393.659 223.964L399.213 222.84C399.216 223.961 398.908 225.065 398.316 226.06Z" fill="#57B894"/>
<path d="M394.324 212.36C392.339 212.444 390.388 211.886 388.844 210.793C387.301 209.701 386.272 208.15 385.955 206.438C385.638 204.725 386.055 202.971 387.126 201.509C388.196 200.048 389.847 198.982 391.761 198.515L391.719 201.416L393.572 198.251C394.645 198.188 395.722 198.313 396.74 198.619C397.757 198.924 398.695 199.403 399.497 200.029C400.3 200.654 400.951 201.413 401.414 202.261C401.876 203.109 402.14 204.029 402.19 204.967C402.24 205.905 402.075 206.843 401.705 207.724C401.335 208.606 400.767 209.415 400.034 210.102C399.302 210.79 398.419 211.344 397.439 211.73C396.458 212.116 395.399 212.328 394.324 212.353V212.36Z" fill="#57B894"/>
<path d="M413.948 200.96C412.698 201.01 411.452 200.806 410.308 200.365C409.164 199.923 408.152 199.256 407.354 198.415C406.555 197.574 405.991 196.583 405.705 195.52C405.42 194.456 405.421 193.35 405.709 192.287C405.997 191.224 406.563 190.234 407.364 189.395C408.165 188.556 409.178 187.89 410.323 187.451C411.468 187.011 412.715 186.81 413.965 186.862C415.215 186.915 416.433 187.219 417.525 187.753L416.096 191.172L419.033 188.707C420.211 189.648 421.043 190.873 421.424 192.227C421.805 193.581 421.718 195.003 421.174 196.314C420.63 197.625 419.653 198.765 418.367 199.592C417.081 200.419 415.544 200.895 413.948 200.96Z" fill="#57B894"/>
<path opacity="0.1" d="M411.647 180.178C409.782 180.359 407.966 180.863 406.093 180.965C404.219 181.066 402.167 180.675 400.983 179.405C400.343 178.72 400.023 177.853 399.483 177.11C398.973 176.414 398.274 175.838 397.448 175.435C396.929 176.329 396.635 177.309 396.585 178.311C396.535 179.312 396.729 180.311 397.156 181.242C397.582 182.172 398.231 183.013 399.059 183.707C399.886 184.402 400.874 184.934 401.956 185.27C403.038 185.605 404.189 185.736 405.333 185.652C406.478 185.569 407.588 185.274 408.592 184.787C409.595 184.299 410.468 183.631 411.152 182.827C411.837 182.022 412.317 181.099 412.561 180.12C412.266 180.12 411.95 180.149 411.647 180.178Z" fill="black"/>
<path opacity="0.1" d="M413.948 200.959C412.555 201.016 411.168 200.757 409.923 200.207C408.678 199.658 407.618 198.837 406.844 197.824C406.07 196.811 405.609 195.64 405.507 194.426C405.404 193.211 405.663 191.994 406.259 190.893C406.902 191.27 407.455 191.753 407.887 192.315C408.46 193.073 408.809 193.95 409.487 194.646C410.733 195.937 412.897 196.361 414.85 196.282C416.802 196.202 418.684 195.723 420.628 195.556C420.894 195.535 421.168 195.52 421.459 195.513C421.059 197.012 420.109 198.355 418.753 199.339C417.397 200.322 415.709 200.891 413.948 200.959Z" fill="black"/>
<path opacity="0.1" d="M394.324 212.36C392.944 212.417 391.571 212.164 390.335 211.625C389.099 211.087 388.041 210.281 387.264 209.285C386.486 208.289 386.014 207.135 385.892 205.934C385.77 204.733 386.003 203.525 386.568 202.424C387.236 202.812 387.816 203.304 388.279 203.875C388.907 204.651 389.297 205.539 390.032 206.254C391.399 207.581 393.688 208.067 395.757 208.005C397.759 207.969 399.687 207.537 401.677 207.407C401.182 208.792 400.211 210.01 398.895 210.896C397.58 211.782 395.984 212.293 394.324 212.36Z" fill="black"/>
<path opacity="0.1" d="M398.316 226.06C397.347 227.629 395.734 228.82 393.8 229.394C391.866 229.967 389.756 229.881 387.892 229.151C386.029 228.422 384.55 227.104 383.754 225.462C382.959 223.821 382.904 221.977 383.602 220.302C384.267 220.684 384.865 221.149 385.376 221.683C386.144 222.503 386.651 223.427 387.54 224.189C389.202 225.607 391.86 226.19 394.236 226.245C395.599 226.252 396.961 226.19 398.316 226.06Z" fill="black"/>
<path d="M87.7498 235.013C87.7498 235.013 94.1265 234.839 96.0582 233.646C97.9899 232.453 105.875 231.024 106.352 232.921C106.83 234.817 115.94 242.454 108.737 242.505C101.533 242.555 91.9995 241.526 90.0803 240.507C88.161 239.488 87.7498 235.013 87.7498 235.013Z" fill="#656380"/>
<path opacity="0.2" d="M108.857 241.856C101.654 241.906 92.12 240.877 90.2008 239.858C88.7385 239.082 88.1569 236.293 87.9616 235.006H87.7498C87.7498 235.006 88.1652 239.495 90.072 240.518C91.9788 241.54 101.525 242.566 108.729 242.516C110.806 242.516 111.524 241.856 111.487 240.902C111.196 241.486 110.407 241.845 108.857 241.856Z" fill="black"/>
<path d="M332.089 234.324C332.089 234.324 335.828 234.226 336.937 233.526C338.046 232.826 342.666 231.996 342.944 233.116C343.223 234.237 348.54 238.679 344.336 238.708C340.132 238.737 334.565 238.139 333.444 237.54C332.322 236.942 332.089 234.324 332.089 234.324Z" fill="#656380"/>
<path opacity="0.2" d="M344.394 238.32C340.19 238.349 334.623 237.747 333.502 237.152C332.671 236.699 332.309 235.071 332.197 234.32H332.089C332.089 234.32 332.326 236.942 333.444 237.537C334.561 238.131 340.132 238.737 344.336 238.704C345.549 238.704 345.968 238.32 345.944 237.762C345.761 238.102 345.296 238.313 344.394 238.32Z" fill="black"/>
<path d="M378.13 236.463C378.13 236.463 384.507 236.289 386.439 235.096C388.371 233.903 396.255 232.475 396.733 234.371C397.211 236.268 406.321 243.904 399.118 243.955C391.914 244.006 382.38 242.976 380.461 241.957C378.542 240.938 378.13 236.463 378.13 236.463Z" fill="#656380"/>
<path opacity="0.2" d="M399.238 243.306C392.035 243.357 382.501 242.327 380.581 241.308C379.119 240.532 378.538 237.743 378.342 236.456H378.13C378.13 236.456 378.546 240.945 380.453 241.968C382.359 242.991 391.906 244.017 399.109 243.966C401.186 243.966 401.905 243.306 401.868 242.352C401.577 242.936 400.788 243.295 399.238 243.306Z" fill="black"/>
</g>
<defs>
<clipPath id="clip0">
<rect width="444" height="250" fill="white"/>
</clipPath>
</defs>
</svg>
