<svg width="29" height="28" viewBox="0 0 29 28" fill="none" xmlns="http://www.w3.org/2000/svg">
<path d="M29 13.9999C29 6.26791 22.5081 -9.34601e-05 14.5 -9.34601e-05C6.49187 -9.34601e-05 0 6.26791 0 13.9999C0 20.9877 5.30244 26.7796 12.2344 27.8298V18.0468H8.55273V13.9999H12.2344V10.9155C12.2344 7.40678 14.3991 5.46866 17.7112 5.46866C19.2977 5.46866 20.957 5.74209 20.957 5.74209V9.18741H19.1286C17.3274 9.18741 16.7656 10.2666 16.7656 11.3737V13.9999H20.7871L20.1442 18.0468H16.7656V27.8298C23.6976 26.7796 29 20.9877 29 13.9999Z" fill="white"/>
<path d="M20.1442 18.0469L20.7871 14H16.7656V11.3738C16.7656 10.2667 17.3274 9.1875 19.1286 9.1875H20.957V5.74219C20.957 5.74219 19.2977 5.46875 17.7112 5.46875C14.3991 5.46875 12.2344 7.40688 12.2344 10.9156V14H8.55273V18.0469H12.2344V27.8299C12.9726 27.9418 13.7292 28 14.5 28C15.2708 28 16.0274 27.9418 16.7656 27.8299V18.0469H20.1442Z" fill="black"/>
</svg>
