<svg width="282" height="118" viewBox="0 0 282 118" fill="none" xmlns="http://www.w3.org/2000/svg">
<path d="M120.857 110.355C173.717 110.355 216.568 85.6512 216.568 55.1775C216.568 24.7038 173.717 0 120.857 0C67.9976 0 25.1465 24.7038 25.1465 55.1775C25.1465 85.6512 67.9976 110.355 120.857 110.355Z" fill="#F2F2F2"/>
<path d="M37.9763 118C58.9501 118 75.9527 116.432 75.9527 114.497C75.9527 112.562 58.9501 110.994 37.9763 110.994C17.0026 110.994 0 112.562 0 114.497C0 116.432 17.0026 118 37.9763 118Z" fill="#F2F2F2"/>
<path d="M223.239 114.439C255.692 114.439 282 112.013 282 109.019C282 106.026 255.692 103.599 223.239 103.599C190.787 103.599 164.479 106.026 164.479 109.019C164.479 112.013 190.787 114.439 223.239 114.439Z" fill="#F2F2F2"/>
<path d="M210.184 56.9208C210.184 56.9208 210.684 57.8822 207.849 58.7474C205.014 59.6126 204.18 62.8812 207.516 63.8426C210.851 64.8039 211.851 66.0537 210.184 66.9189C208.516 67.7841 205.515 70.0914 209.517 70.6682C213.519 71.245 214.019 72.3987 212.852 72.8793C211.685 73.36 215.52 72.0141 215.52 72.0141C215.52 72.0141 216.187 74.3214 219.689 73.7445C223.191 73.1677 233.029 62.2083 228.027 60.6701C223.024 59.1319 210.184 56.9208 210.184 56.9208Z" fill="#2F2E41"/>
<path d="M216.228 66.2037C216.228 66.2037 217.958 69.6939 214.931 69.9432C213.052 70.112 211.272 70.5396 209.741 71.1898L215.363 75.4279H225.742L232.228 71.6884C232.228 71.6884 223.579 67.9488 225.309 65.7051C227.039 63.4613 216.228 66.2037 216.228 66.2037Z" fill="#FFB9B9"/>
<path opacity="0.1" d="M216.228 66.2037C216.228 66.2037 217.958 69.6939 214.931 69.9432C213.052 70.112 211.272 70.5396 209.741 71.1898L215.363 75.4279H225.742L232.228 71.6884C232.228 71.6884 223.579 67.9488 225.309 65.7051C227.039 63.4613 216.228 66.2037 216.228 66.2037Z" fill="black"/>
<path d="M218.823 109.583L228.769 111.577L235.688 111.826L235.255 108.336L220.985 105.903L218.823 109.583Z" fill="#FFB9B9"/>
<path d="M231.58 108.835C231.58 108.835 231.58 112.325 232.444 112.325C233.309 112.325 244.985 111.577 248.445 112.325C251.904 113.073 257.094 110.33 254.499 108.835C251.904 107.339 247.672 105.095 245.031 105.594C242.391 106.092 231.58 107.339 231.58 107.339V108.835Z" fill="#575A89"/>
<path d="M199.795 105.594C199.795 105.594 194.606 111.577 198.065 112.076C201.525 112.574 205.417 111.826 205.849 111.577C206.282 111.328 212.336 110.33 213.201 110.829C214.066 111.328 214.066 108.835 214.066 108.835L199.795 105.594Z" fill="#575A89"/>
<path d="M204.119 97.3666C204.119 97.3666 195.903 103.849 201.957 105.594C208.011 107.339 236.985 107.339 239.147 105.594C241.309 103.849 242.174 98.3639 239.147 97.8652C236.12 97.3666 204.119 97.3666 204.119 97.3666Z" fill="#2F2E41"/>
<path opacity="0.2" d="M204.119 97.3666C204.119 97.3666 195.903 103.849 201.957 105.594C208.011 107.339 236.985 107.339 239.147 105.594C241.309 103.849 242.174 98.3639 239.147 97.8652C236.12 97.3666 204.119 97.3666 204.119 97.3666Z" fill="black"/>
<path d="M219.687 67.9488C225.18 67.9488 229.633 65.3816 229.633 62.2148C229.633 59.048 225.18 56.4808 219.687 56.4808C214.194 56.4808 209.741 59.048 209.741 62.2148C209.741 65.3816 214.194 67.9488 219.687 67.9488Z" fill="#FFB9B9"/>
<path d="M204.119 71.1897L212.768 70.1925C212.768 70.1925 214.93 74.1814 221.85 73.4335C228.769 72.6856 230.498 70.1925 230.498 70.1925C230.498 70.1925 235.688 71.4391 236.12 71.4391C236.553 71.4391 242.174 72.6856 242.174 73.4335C242.174 74.1814 235.688 81.6605 235.688 81.6605L236.553 95.1229L204.552 94.6243L206.714 81.4112L204.119 71.1897Z" fill="#FF4500"/>
<path d="M199.363 77.6716C199.363 77.6716 196.768 90.8848 198.498 91.882C200.227 92.8792 207.147 95.6215 207.147 95.6215V92.6299L203.687 88.8903L207.147 80.1647L199.363 77.6716Z" fill="#FFB9B9"/>
<path d="M244.12 77.2977C244.12 77.2977 242.607 90.8848 242.607 91.3834C242.607 91.882 238.715 93.6271 237.418 93.6271C236.12 93.6271 235.255 92.3806 235.255 92.3806L238.282 90.3862L236.12 80.1647L244.12 77.2977Z" fill="#FFB9B9"/>
<path d="M240.012 96.3694C240.012 96.3694 259.472 90.1368 259.904 96.3694C260.337 102.602 249.958 105.095 249.958 105.095C249.958 105.095 223.147 109.73 222.066 108.036C220.985 106.342 218.822 103.599 220.552 103.35C222.282 103.101 224.444 102.602 225.309 103.101C226.174 103.599 236.985 99.3611 236.985 99.3611L240.012 96.3694Z" fill="#2F2E41"/>
<path opacity="0.2" d="M249.094 95.6215C249.094 95.6215 245.202 96.6187 243.904 97.3666C242.607 98.1146 236.985 99.3611 236.985 99.3611" stroke="black" stroke-width="2" stroke-miterlimit="10"/>
<path d="M206.714 71.6883L204.119 71.1897C204.119 71.1897 194.606 76.9237 197.633 78.4196C200.66 79.9154 202.39 80.414 203.255 80.9126C204.119 81.4112 208.444 81.6605 208.444 81.6605L206.714 71.6883Z" fill="#FF4500"/>
<path d="M238.282 72.9349L242.174 73.4335C242.174 73.4335 245.201 77.173 246.066 77.6716C246.931 78.1702 244.769 77.9209 243.472 78.9182C242.174 79.9154 240.877 81.6605 238.282 81.6605C235.688 81.6605 232.228 79.1675 232.228 79.1675L238.282 72.9349Z" fill="#FF4500"/>
<path d="M204.984 98.6132C204.984 98.6132 188.551 91.882 182.93 96.8681C177.308 101.854 207.146 108.585 211.471 109.583C215.795 110.58 219.687 111.577 219.687 111.577C219.687 111.577 223.579 106.092 223.579 105.095C223.579 104.098 220.552 104.098 219.687 104.098C218.822 104.098 214.93 103.599 214.066 102.851C213.201 102.103 204.984 98.6132 204.984 98.6132Z" fill="#2F2E41"/>
<path opacity="0.2" d="M195.903 96.868C195.903 96.868 200.228 98.8625 204.119 99.3611C208.011 99.8597 209.309 101.106 209.309 101.106" stroke="black" stroke-width="2" stroke-miterlimit="10"/>
<path d="M202.001 87.4943L202.347 98.0499C202.358 98.3986 202.608 98.7305 203.042 98.9733C203.476 99.2162 204.059 99.3503 204.664 99.3463L238.738 99.1256C239.318 99.1219 239.875 98.9912 240.295 98.7601C240.715 98.529 240.967 98.2146 241 97.8804L242.035 87.5455C242.053 87.3658 242.007 87.186 241.9 87.0169C241.793 86.8478 241.627 86.6931 241.413 86.5623C241.199 86.4314 240.94 86.3272 240.654 86.2559C240.367 86.1847 240.058 86.1479 239.746 86.1479H204.293C203.988 86.1479 203.687 86.183 203.406 86.2509C203.125 86.3189 202.87 86.4185 202.657 86.5438C202.444 86.6692 202.276 86.8178 202.163 86.981C202.051 87.1442 201.996 87.3187 202.001 87.4943Z" fill="#575A89"/>
<path d="M220.219 55.0118C220.219 55.0118 220.773 56.0768 217.632 57.0353C214.492 57.9938 213.568 61.6147 217.263 62.6797C220.958 63.7447 222.066 65.1292 220.219 66.0877C218.371 67.0462 215.046 69.6021 219.48 70.2411C223.913 70.8801 224.467 72.1581 223.174 72.6906C221.881 73.2231 226.13 71.7321 226.13 71.7321C226.13 71.7321 226.869 74.2881 230.748 73.6491C234.628 73.0101 238.498 61.3947 234.174 58.403C230.153 55.6213 220.219 55.0118 220.219 55.0118Z" fill="#2F2E41"/>
<path d="M219.039 53.9156C219.04 52.3553 227.137 53.4764 230.608 55.6549C233.012 57.1635 236.664 59.4331 233.604 61.0329C230.544 62.6327 238.849 64.73 241.076 65.3658C243.303 66.0017 247.7 67.9461 243.73 69.2506C239.759 70.5551 239.823 71.8719 241.317 72.1836C242.812 72.4954 238.023 71.7201 238.023 71.7201C238.023 71.7201 238.507 74.2963 234.472 74.2839C230.438 74.2716 218.863 61.4889 221.628 57.9359C224.199 54.6322 219.039 53.9156 219.039 53.9156Z" fill="#2F2E41"/>
<path d="M220.792 53.5737C209.965 53.1978 208.878 57.8966 208.878 57.8966C208.953 60.6158 216.443 59.2908 218.524 59.6962C221.033 58.6553 225.871 56.6858 229.331 55.2803C226.819 54.2606 223.86 53.6692 220.792 53.5737Z" fill="#2F2E41"/>
<path d="M217.708 83.5574C217.708 83.5574 207.995 57.3149 147.202 38.2781" stroke="#3F3D56" stroke-width="2" stroke-miterlimit="10"/>
<path d="M149.707 37.7057L149.828 37.9935L147.369 38.3373L148.144 39.7262L147.655 39.8165L146.712 38.1248L149.707 37.7057Z" fill="#3F3D56"/>
<path d="M17.5701 110.371C17.5701 113.695 14.1429 114.856 9.9148 114.856C9.81686 114.856 9.71907 114.855 9.62143 114.854C9.42553 114.851 9.2315 114.846 9.03981 114.839C5.22406 114.683 2.25952 113.463 2.25952 110.371C2.25952 107.172 9.35044 103.136 9.88308 102.837L9.88402 102.837C9.90454 102.825 9.91481 102.819 9.91481 102.819C9.91481 102.819 17.5701 107.048 17.5701 110.371Z" fill="#FF4500"/>
<path d="M9.63579 114.347L12.4357 112.092L9.62879 114.595L9.62133 114.854C9.42543 114.851 9.2314 114.846 9.03971 114.839L9.34148 111.513L9.33915 111.487L9.34428 111.483L9.37273 111.168L6.55884 108.659L9.38159 110.933L9.38812 111L9.6162 108.487L7.20716 105.894L9.64558 108.046L9.88298 102.837L9.88392 102.819V102.837L9.84428 106.944L12.2426 105.316L9.83448 107.298L9.77105 109.548L12.0103 107.389L9.76172 109.879L9.72628 111.129L12.9772 108.124L9.71415 111.566L9.63579 114.347Z" fill="#3F3D56"/>
<path d="M54.0838 109.51L55.7213 108.809C55.7213 108.809 56.8053 112.3 55.5957 112.823C54.3861 113.346 49.8503 114.217 49.8503 115.263C49.8503 116.309 39.5691 117.704 39.2667 116.135C38.9643 114.566 40.1738 113.694 40.1738 113.694C40.1738 113.694 45.0121 110.905 45.6169 110.382C46.2216 109.859 47.7336 108.813 47.7336 108.813L54.0838 109.51Z" fill="#2F2E41"/>
<path d="M29.8926 66.1026C29.8926 66.1026 29.9379 66.256 30.0165 66.5367C30.0891 66.786 30.1889 67.1381 30.3099 67.5722C31.5799 72.0403 35.2842 85.1933 35.0332 85.6274C34.7308 86.1504 32.6141 88.068 35.0332 88.591C35.266 88.6416 35.517 88.8054 35.7861 89.0634C36.3056 89.6191 36.7338 90.2016 37.0652 90.8032C38.5077 93.2159 40.0499 97.0773 40.9419 99.7515C41.332 100.926 41.5981 101.871 41.6767 102.366C41.704 102.481 41.7071 102.597 41.6858 102.712C41.3834 103.409 43.5001 105.85 44.4073 106.547C45.3144 107.244 46.8264 107.941 46.524 108.639C46.2216 109.336 54.0837 111.254 54.9909 110.033C55.8981 108.813 55.8981 108.116 56.2005 107.767C56.5028 107.418 56.8052 104.978 55.2933 104.629C53.7813 104.281 54.6885 98.1791 53.1766 96.9588C52.6716 96.5526 51.9005 95.1771 51.0931 93.5228C50.7756 92.8743 50.4551 92.1839 50.1406 91.4918C48.8645 88.6555 47.7336 85.8017 47.7336 85.8017L48.0359 65.4053L31.4045 64.185L30.9782 64.7272L30.1284 65.8028L29.8926 66.1026Z" fill="#2F2E41"/>
<path d="M28.9854 99.5736C28.9854 99.5736 26.5663 98.179 25.3567 99.5736C24.1472 100.968 22.9376 106.372 20.8209 107.593C18.7042 108.813 15.9827 114.915 19.0066 115.263C22.0305 115.612 25.3567 114.74 25.6591 113.694C25.9615 112.648 32.3117 107.244 32.3117 106.721C32.3117 106.198 28.0782 104.281 28.0782 104.281L28.9854 99.5736Z" fill="#2F2E41"/>
<path d="M66.1793 56.5145C66.1793 56.5145 62.2482 76.9109 61.3411 78.8285C60.4339 80.7462 55.5957 88.068 54.0837 89.2883C52.5718 90.5086 42.8953 100.445 41.6858 100.968C40.4762 101.491 38.0571 102.886 38.0571 102.886C38.0571 102.886 33.5212 105.501 32.9165 106.024C32.3117 106.547 27.1711 104.978 26.8687 103.932C26.5663 102.886 27.1711 101.143 27.4734 100.445C27.7758 99.748 26.8687 98.702 27.7758 98.179C28.683 97.656 33.2188 95.0411 33.2188 93.8208C33.2188 92.6005 41.081 85.453 44.1049 83.8841C47.1288 82.3151 46.524 79.7002 46.524 79.7002V69.0662L29.8926 66.1026C29.8926 66.1026 30.7997 57.7348 32.9165 57.7348C35.0332 57.7348 62.853 54.9456 66.1793 56.5145Z" fill="#2F2E41"/>
<path d="M41.6858 27.4017C47.1969 27.4017 51.6646 24.826 51.6646 21.6488C51.6646 18.4716 47.1969 15.896 41.6858 15.896C36.1746 15.896 31.7069 18.4716 31.7069 21.6488C31.7069 24.826 36.1746 27.4017 41.6858 27.4017Z" fill="#9F616A"/>
<path d="M45.012 26.1814C45.012 26.1814 46.2216 28.7963 47.7336 29.4936C49.2455 30.1909 43.8025 33.1545 43.8025 33.1545L33.5212 33.5032L31.7069 30.1909C31.7069 30.1909 35.0332 26.3557 34.126 23.9151C33.2189 21.4745 45.012 26.1814 45.012 26.1814Z" fill="#9F616A"/>
<path d="M49.2455 29.145C49.2455 29.145 46.524 29.3193 45.9192 29.8423C45.3144 30.3653 41.081 31.9342 37.7547 31.5856C34.4284 31.2369 32.3117 30.7139 31.7069 30.8882C31.1021 31.0626 29.8926 34.7235 29.8926 34.7235L33.2189 40.302L32.6141 55.6429L31.7069 59.8268C31.7069 59.8268 29.8926 58.4321 37.1499 59.3038C44.4073 60.1754 53.7814 58.6065 56.8053 58.4321C59.8292 58.2578 64.9698 57.7348 65.2722 56.6889C65.5746 55.6429 64.365 51.8077 64.365 51.8077L59.5268 40.1277L56.5029 33.8518L49.2455 29.145Z" fill="#FF4500"/>
<path d="M46.3853 28.3581C46.3853 28.3581 48.9431 27.576 49.8503 28.2733C50.7575 28.9706 62.2483 30.0166 62.2483 30.5396C62.2483 31.0626 64.6674 45.1832 64.0626 46.4035C63.4578 47.6238 65.2722 49.0184 65.2722 49.0184L67.3889 54.2483C67.3889 54.2483 73.1343 64.185 70.7152 64.5336C68.2961 64.8823 66.1793 64.5336 65.2722 64.5336C64.365 64.5336 64.6674 57.9091 62.2483 56.1659C59.8292 54.4226 56.5029 50.0644 55.8981 49.1927C55.2933 48.3211 47.7336 36.2924 48.036 34.8978C48.3384 33.5032 46.3853 28.3581 46.3853 28.3581Z" fill="#D0CDE1"/>
<path d="M33.8236 29.145C33.8236 29.145 31.4045 29.145 31.1021 29.4936C30.7998 29.8423 27.7759 32.1085 26.5663 32.6315C25.3567 33.1545 21.1233 35.4208 21.1233 35.9438C21.1233 36.4668 29.8926 40.302 29.8926 40.302C29.8926 40.302 33.5213 50.5874 31.7069 54.0739C29.8926 57.5605 27.1711 65.9283 28.3806 66.4512C29.5902 66.9742 32.3117 67.1486 32.3117 66.4512C32.3117 65.7539 34.126 58.2578 35.638 56.6889C37.1499 55.1199 41.6858 45.1832 39.8714 42.3939C38.0571 39.6047 33.8236 29.145 33.8236 29.145Z" fill="#D0CDE1"/>
<path d="M73.7391 46.4035C73.7391 46.4035 74.0414 51.8077 70.7152 54.5969C67.3889 57.3862 65.2722 60.5241 65.2722 60.5241C65.2722 60.5241 59.8291 59.6524 58.922 58.6065C58.0148 57.5605 52.2694 58.4321 52.2694 58.0835C52.2694 57.7348 59.2244 55.9915 59.8291 55.6429C60.4339 55.2942 62.5507 55.2942 63.7602 54.5969C64.9698 53.8996 65.2722 52.3306 65.2722 52.3306L66.4817 47.7981L73.7391 46.4035Z" fill="#9F616A"/>
<path d="M48.5587 18.1017C49.3264 18.0615 50.1181 18.0173 50.7966 17.8063C52.3168 17.3337 52.7199 15.9877 51.5627 15.2486C51.2436 15.0605 50.8867 14.895 50.4995 14.7557L48.201 13.8538C47.1844 13.4549 46.1438 13.0494 44.9581 12.8614C43.8856 12.6913 42.753 12.7088 41.6428 12.7486C39.4878 12.8258 37.3194 12.9853 35.2924 13.4142C33.2654 13.8432 31.3746 14.5608 30.147 15.5848C28.2008 17.2082 28.1741 19.3977 29.246 21.2718C30.3179 23.146 32.354 24.7779 34.3602 26.3768L35.4012 23.4486C35.494 23.1878 35.6139 22.902 35.9901 22.7476C36.9253 22.364 38.0692 23.1517 39.217 23.1466C39.9545 23.1433 40.5736 22.7936 40.8531 22.4001C41.1326 22.0067 41.151 21.5709 41.2157 21.1474C41.3526 20.2503 41.8965 19.0021 43.3701 18.5074C44.7433 18.0464 47.0152 18.1825 48.5587 18.1017Z" fill="#2F2E41"/>
<path opacity="0.1" d="M47.9989 66.2433C47.9989 66.2433 46.9776 83.2739 46.3728 83.7969C45.768 84.3199 46.3728 66.1897 46.3728 66.1897L47.9989 66.2433Z" fill="black"/>
<path d="M59.8291 30.5396H62.2482C62.2482 30.5396 72.5295 38.5587 71.3199 39.0817C70.1103 39.6047 71.3199 40.9993 71.3199 40.9993L73.739 43.6142C73.739 43.6142 76.7629 45.1832 75.8557 45.5318C74.9486 45.8805 73.739 47.2751 73.739 47.2751C73.739 47.2751 67.6912 46.7521 65.8769 48.8441L61.955 45.9897L59.8291 30.5396Z" fill="#D0CDE1"/>
<path d="M60.6842 33.1189L52.3832 35.0951L58.7711 44.0131L67.0721 42.0369L60.6842 33.1189Z" fill="#2F2E41"/>
<path d="M59.7113 38.3494C60.6282 38.1311 61.0895 37.5605 60.7417 37.0749C60.3939 36.5893 59.3686 36.3726 58.4517 36.5909C57.5348 36.8092 57.0735 37.3798 57.4213 37.8654C57.7691 38.3509 58.7944 38.5676 59.7113 38.3494Z" fill="#FF4500"/>
<path d="M53.7814 44.4859C53.7814 44.4859 32.0093 54.9456 28.3807 51.6333C24.752 48.3211 32.3117 45.5318 32.3117 45.5318C32.3117 45.5318 38.9643 45.7062 46.524 42.9169L54.0838 40.9993C54.0838 40.9993 60.9852 35.3189 63.337 37.482C65.6888 39.645 59.3225 43.4095 53.7814 44.4859Z" fill="#9F616A"/>
<path d="M24.4495 35.2464L21.1233 35.9437V41.1736L19.9137 42.2196C19.9137 42.2196 20.2161 44.3115 21.1233 44.8345C22.0304 45.3575 23.8448 45.1832 23.24 46.4035C22.8765 47.1991 22.7739 48.0268 22.9376 48.8441C22.9376 48.8441 28.3806 52.8536 28.683 52.3306C28.9854 51.8076 33.2188 45.3575 33.8236 45.3575C34.4284 45.3575 27.7758 35.2464 27.7758 35.2464H24.4495Z" fill="#D0CDE1"/>
<path d="M64.2138 61.6572C64.2138 61.6572 67.3404 59.9139 65.7771 59.8268C64.2138 59.7396 58.7708 57.9963 57.8636 58.8679C56.9565 59.7396 64.2138 61.6572 64.2138 61.6572Z" fill="#2F2E41"/>
<path d="M123.68 28.4024C126.089 28.4024 128.042 27.8063 128.042 27.071C128.042 26.3358 126.089 25.7397 123.68 25.7397C121.271 25.7397 119.318 26.3358 119.318 27.071C119.318 27.8063 121.271 28.4024 123.68 28.4024Z" fill="#57B894"/>
<path d="M140.358 31.5089C130.522 29.3672 120.686 29.3672 110.85 31.5089V24.5562C120.472 22.8824 130.737 22.8824 140.358 24.5562V31.5089Z" stroke="#3F3D56" stroke-width="2" stroke-miterlimit="10"/>
<path d="M136.253 30.0711C129.154 28.5253 122.055 28.5253 114.955 30.0711V25.053C121.9 23.8449 129.308 23.8449 136.253 25.053V30.0711Z" stroke="#3F3D56" stroke-width="2" stroke-miterlimit="10"/>
<path d="M125.219 27.8107C127.628 27.8107 129.581 27.2146 129.581 26.4793C129.581 25.744 127.628 25.148 125.219 25.148C122.81 25.148 120.857 25.744 120.857 26.4793C120.857 27.2146 122.81 27.8107 125.219 27.8107Z" stroke="#3F3D56" stroke-width="2" stroke-miterlimit="10"/>
<path d="M126.887 36.7402C129.248 36.4625 130.954 35.6533 130.699 34.9328C130.444 34.2124 128.324 33.8535 125.963 34.1313C123.603 34.409 121.896 35.2182 122.151 35.9386C122.406 36.6591 124.527 37.0179 126.887 36.7402Z" fill="#57B894"/>
<path d="M144.307 37.8611C133.926 36.8967 124.289 38.0307 115.394 41.263L112.982 34.4508C121.829 31.7015 131.887 30.5181 141.895 31.0489L144.307 37.8611Z" stroke="#3F3D56" stroke-width="2" stroke-miterlimit="10"/>
<path d="M139.785 36.9257C132.293 36.2296 125.337 37.048 118.918 39.381L117.177 34.4643C123.562 32.48 130.821 31.6259 138.045 32.009L139.785 36.9257Z" stroke="#3F3D56" stroke-width="2" stroke-miterlimit="10"/>
<path d="M128.19 35.983C130.551 35.7052 132.258 34.896 132.003 34.1756C131.748 33.4552 129.627 33.0963 127.267 33.374C124.906 33.6518 123.2 34.461 123.455 35.1814C123.71 35.9018 125.83 36.2607 128.19 35.983Z" stroke="#3F3D56" stroke-width="2" stroke-miterlimit="10"/>
<path d="M129.872 43.8854C129.961 43.1519 128.084 42.4791 125.681 42.3827C123.278 42.2862 121.258 42.8027 121.169 43.5362C121.081 44.2697 122.957 44.9425 125.36 45.039C127.764 45.1354 129.784 44.6189 129.872 43.8854Z" fill="#57B894"/>
<path d="M141.625 48.8055C132.07 46.2753 122.258 45.8817 112.188 47.6245L113.025 40.6886C122.825 39.4039 133.065 39.8147 142.462 41.8696L141.625 48.8055Z" stroke="#3F3D56" stroke-width="2" stroke-miterlimit="10"/>
<path d="M137.702 47.2068C130.807 45.3807 123.724 45.0966 116.456 46.3544L117.061 41.3485C124.134 40.4213 131.524 40.7178 138.307 42.2009L137.702 47.2068Z" stroke="#3F3D56" stroke-width="2" stroke-miterlimit="10"/>
<path d="M131.48 43.3567C131.568 42.6232 129.692 41.9504 127.288 41.854C124.885 41.7576 122.865 42.274 122.776 43.0075C122.688 43.7411 124.564 44.4139 126.968 44.5103C129.371 44.6067 131.391 44.0902 131.48 43.3567Z" stroke="#3F3D56" stroke-width="2" stroke-miterlimit="10"/>
<path d="M106.468 31.6703C106.468 31.6703 87.6088 30.1829 74.1411 34.733" stroke="#3F3D56" stroke-width="2" stroke-miterlimit="10"/>
<path d="M74.5948 33.204L75.0846 33.2933L74.3189 34.6837L76.7807 35.0223L76.6609 35.3103L73.6631 34.8975L74.5948 33.204Z" fill="#3F3D56"/>
</svg>
