<svg width="298" height="73" viewBox="0 0 298 73" fill="none" xmlns="http://www.w3.org/2000/svg">
<g filter="url(#filter0_d)">
<rect x="4" width="290" height="65" fill="#FF4500"/>
</g>
<path d="M41.7734 41.8472C40.6162 43.356 39.0122 44.4985 36.9614 45.2749C34.9106 46.0513 32.5815 46.4395 29.9741 46.4395C27.2935 46.4395 24.9204 45.8315 22.855 44.6157C20.7896 43.3999 19.1929 41.6641 18.0649 39.4082C16.9517 37.1377 16.373 34.4937 16.3291 31.4761V28.9712C16.3291 24.1372 17.4863 20.3652 19.8008 17.6553C22.1152 14.9307 25.3452 13.5684 29.4907 13.5684C33.0503 13.5684 35.8774 14.4473 37.9722 16.2051C40.0669 17.9629 41.3267 20.4971 41.7515 23.8076H36.3022C35.687 19.9551 33.4531 18.0288 29.6006 18.0288C27.1104 18.0288 25.2134 18.9297 23.9097 20.7314C22.6206 22.5186 21.9541 25.1479 21.9102 28.6196V31.0806C21.9102 34.5376 22.6353 37.2256 24.0854 39.1445C25.5503 41.0488 27.5791 42.001 30.1719 42.001C33.0137 42.001 35.0352 41.3564 36.2363 40.0674V33.8052H29.6445V29.5864H41.7734V41.8472ZM57.8354 46.4395C54.4517 46.4395 51.7051 45.3774 49.5957 43.2534C47.501 41.1147 46.4536 38.2729 46.4536 34.728V34.0688C46.4536 31.6958 46.9077 29.5791 47.8159 27.7188C48.7388 25.8438 50.0278 24.3862 51.6831 23.3462C53.3384 22.3062 55.1841 21.7861 57.2202 21.7861C60.4575 21.7861 62.9551 22.8188 64.7129 24.8843C66.4854 26.9497 67.3716 29.8721 67.3716 33.6514V35.8047H51.8369C51.998 37.7676 52.6499 39.3203 53.7925 40.4629C54.9497 41.6055 56.3999 42.1768 58.1431 42.1768C60.5894 42.1768 62.5815 41.188 64.1196 39.2104L66.998 41.957C66.0459 43.3779 64.7715 44.4839 63.1748 45.2749C61.5928 46.0513 59.813 46.4395 57.8354 46.4395ZM57.1982 26.0708C55.7334 26.0708 54.5469 26.5835 53.6387 27.6089C52.7451 28.6343 52.1738 30.0625 51.9248 31.8936H62.0981V31.498C61.981 29.7109 61.5049 28.3633 60.6699 27.4551C59.835 26.5322 58.6777 26.0708 57.1982 26.0708ZM78.2261 16.4468V22.2256H82.4229V26.1807H78.2261V39.4521C78.2261 40.3604 78.4019 41.0195 78.7534 41.4297C79.1196 41.8252 79.7642 42.0229 80.687 42.0229C81.3022 42.0229 81.9248 41.9497 82.5547 41.8032V45.9341C81.3389 46.271 80.167 46.4395 79.0391 46.4395C74.9375 46.4395 72.8867 44.1763 72.8867 39.6499V26.1807H68.9756V22.2256H72.8867V16.4468H78.2261ZM111.932 46C111.698 45.5459 111.493 44.8062 111.317 43.7808C109.618 45.5532 107.538 46.4395 105.077 46.4395C102.689 46.4395 100.741 45.7583 99.2319 44.396C97.7231 43.0337 96.9688 41.3491 96.9688 39.3423C96.9688 36.8081 97.9062 34.8672 99.7812 33.5195C101.671 32.1572 104.366 31.4761 107.867 31.4761H111.141V29.916C111.141 28.6855 110.797 27.7041 110.108 26.9717C109.42 26.2246 108.373 25.8511 106.966 25.8511C105.75 25.8511 104.754 26.1587 103.978 26.7739C103.202 27.3745 102.813 28.1436 102.813 29.0811H97.4741C97.4741 27.7773 97.9062 26.5615 98.7705 25.4336C99.6348 24.291 100.807 23.3975 102.286 22.7529C103.78 22.1084 105.443 21.7861 107.274 21.7861C110.057 21.7861 112.276 22.4893 113.932 23.8955C115.587 25.2871 116.437 27.25 116.48 29.7842V40.5068C116.48 42.6455 116.781 44.3521 117.381 45.6265V46H111.932ZM106.065 42.1548C107.12 42.1548 108.109 41.8984 109.032 41.3857C109.969 40.873 110.672 40.1846 111.141 39.3203V34.8379H108.263C106.285 34.8379 104.798 35.1821 103.802 35.8706C102.806 36.5591 102.308 37.5332 102.308 38.793C102.308 39.8184 102.645 40.6387 103.319 41.2539C104.007 41.8545 104.923 42.1548 106.065 42.1548ZM132.279 33.915C132.279 30.1943 133.128 27.2427 134.828 25.0601C136.527 22.8774 138.827 21.7861 141.727 21.7861C144.378 21.7861 146.48 22.7163 148.033 24.5767L148.341 22.2256H153.087V55.1406H147.748V43.9785C146.195 45.6191 144.173 46.4395 141.683 46.4395C138.841 46.4395 136.563 45.3335 134.85 43.1216C133.136 40.895 132.279 37.8262 132.279 33.915ZM137.618 34.3765C137.618 36.8081 138.094 38.7197 139.046 40.1113C140.013 41.4883 141.346 42.1768 143.045 42.1768C145.155 42.1768 146.722 41.2759 147.748 39.4741V28.6636C146.722 26.9351 145.169 26.0708 143.089 26.0708C141.39 26.0708 140.05 26.752 139.068 28.1143C138.102 29.4766 137.618 31.564 137.618 34.3765ZM173.258 43.6709C171.69 45.5166 169.464 46.4395 166.578 46.4395C164 46.4395 162.044 45.6851 160.711 44.1763C159.393 42.6675 158.734 40.4849 158.734 37.6284V22.2256H164.073V37.5625C164.073 40.5801 165.326 42.0889 167.831 42.0889C170.423 42.0889 172.174 41.1587 173.082 39.2983V22.2256H178.421V46H173.39L173.258 43.6709ZM182.86 33.8931C182.86 31.564 183.321 29.4692 184.244 27.6089C185.167 25.7339 186.463 24.2983 188.133 23.3022C189.803 22.2915 191.722 21.7861 193.89 21.7861C197.098 21.7861 199.698 22.8188 201.69 24.8843C203.697 26.9497 204.781 29.689 204.942 33.1021L204.964 34.3545C204.964 36.6982 204.51 38.793 203.602 40.6387C202.708 42.4844 201.419 43.9126 199.735 44.9233C198.065 45.9341 196.131 46.4395 193.934 46.4395C190.58 46.4395 187.892 45.3262 185.87 43.0996C183.863 40.8584 182.86 37.8774 182.86 34.1567V33.8931ZM188.199 34.3545C188.199 36.8008 188.705 38.7197 189.715 40.1113C190.726 41.4883 192.132 42.1768 193.934 42.1768C195.736 42.1768 197.135 41.4736 198.131 40.0674C199.142 38.6611 199.647 36.603 199.647 33.8931C199.647 31.4907 199.127 29.5864 198.087 28.1802C197.062 26.7739 195.663 26.0708 193.89 26.0708C192.147 26.0708 190.763 26.7666 189.737 28.1582C188.712 29.5352 188.199 31.6006 188.199 34.3545ZM216.17 16.4468V22.2256H220.367V26.1807H216.17V39.4521C216.17 40.3604 216.346 41.0195 216.698 41.4297C217.064 41.8252 217.708 42.0229 218.631 42.0229C219.247 42.0229 219.869 41.9497 220.499 41.8032V45.9341C219.283 46.271 218.111 46.4395 216.983 46.4395C212.882 46.4395 210.831 44.1763 210.831 39.6499V26.1807H206.92V22.2256H210.831V16.4468H216.17ZM234.935 46.4395C231.551 46.4395 228.805 45.3774 226.695 43.2534C224.601 41.1147 223.553 38.2729 223.553 34.728V34.0688C223.553 31.6958 224.007 29.5791 224.916 27.7188C225.838 25.8438 227.127 24.3862 228.783 23.3462C230.438 22.3062 232.284 21.7861 234.32 21.7861C237.557 21.7861 240.055 22.8188 241.812 24.8843C243.585 26.9497 244.471 29.8721 244.471 33.6514V35.8047H228.937C229.098 37.7676 229.75 39.3203 230.892 40.4629C232.049 41.6055 233.5 42.1768 235.243 42.1768C237.689 42.1768 239.681 41.188 241.219 39.2104L244.098 41.957C243.146 43.3779 241.871 44.4839 240.274 45.2749C238.692 46.0513 236.913 46.4395 234.935 46.4395ZM234.298 26.0708C232.833 26.0708 231.646 26.5835 230.738 27.6089C229.845 28.6343 229.273 30.0625 229.024 31.8936H239.198V31.498C239.081 29.7109 238.604 28.3633 237.77 27.4551C236.935 26.5322 235.777 26.0708 234.298 26.0708Z" fill="#FAFAFA"/>
<path d="M275.414 37.4142C276.195 36.6332 276.195 35.3668 275.414 34.5858L262.686 21.8579C261.905 21.0768 260.639 21.0768 259.858 21.8579C259.077 22.6389 259.077 23.9052 259.858 24.6863L271.172 36L259.858 47.3137C259.077 48.0948 259.077 49.3611 259.858 50.1421C260.639 50.9232 261.905 50.9232 262.686 50.1421L275.414 37.4142ZM255 38L274 38V34L255 34V38Z" fill="#FAFAFA"/>
<defs>
<filter id="filter0_d" x="0" y="0" width="298" height="73" filterUnits="userSpaceOnUse" color-interpolation-filters="sRGB">
<feFlood flood-opacity="0" result="BackgroundImageFix"/>
<feColorMatrix in="SourceAlpha" type="matrix" values="0 0 0 0 0 0 0 0 0 0 0 0 0 0 0 0 0 0 127 0"/>
<feOffset dy="4"/>
<feGaussianBlur stdDeviation="2"/>
<feColorMatrix type="matrix" values="0 0 0 0 0 0 0 0 0 0 0 0 0 0 0 0 0 0 0.25 0"/>
<feBlend mode="normal" in2="BackgroundImageFix" result="effect1_dropShadow"/>
<feBlend mode="normal" in="SourceGraphic" in2="effect1_dropShadow" result="shape"/>
</filter>
</defs>
</svg>
