<svg width="282" height="142" viewBox="0 0 282 142" fill="none" xmlns="http://www.w3.org/2000/svg">
<path d="M125.246 34.2866H0.0537109V78.5412H125.246V34.2866Z" fill="#F2F2F2"/>
<path d="M121.666 39.8372H3.6333V75.9231H121.666V39.8372Z" fill="white"/>
<path d="M125.192 34.2474H0V37.183H125.192V34.2474Z" fill="#FF4500"/>
<path d="M3.95232 36.2924C4.49674 36.2924 4.93808 36.0488 4.93808 35.7483C4.93808 35.4478 4.49674 35.2042 3.95232 35.2042C3.40789 35.2042 2.96655 35.4478 2.96655 35.7483C2.96655 36.0488 3.40789 36.2924 3.95232 36.2924Z" fill="white"/>
<path d="M7.69402 36.2924C8.23844 36.2924 8.67978 36.0488 8.67978 35.7483C8.67978 35.4478 8.23844 35.2042 7.69402 35.2042C7.14959 35.2042 6.70825 35.4478 6.70825 35.7483C6.70825 36.0488 7.14959 36.2924 7.69402 36.2924Z" fill="white"/>
<path d="M11.4357 36.2924C11.9801 36.2924 12.4215 36.0488 12.4215 35.7483C12.4215 35.4478 11.9801 35.2042 11.4357 35.2042C10.8913 35.2042 10.45 35.4478 10.45 35.7483C10.45 36.0488 10.8913 36.2924 11.4357 36.2924Z" fill="white"/>
<path d="M44.6869 43.5814H14.3582V72.1789H44.6869V43.5814Z" fill="#F2F2F2"/>
<path d="M75.1961 43.5814H49.9221V51.4532H75.1961V43.5814Z" fill="#FF4500"/>
<path d="M75.1961 53.6453H49.9221V62.1149H75.1961V53.6453Z" fill="#F2F2F2"/>
<path d="M75.1961 64.3071H49.9221V72.1789H75.1961V64.3071Z" fill="#F2F2F2"/>
<path d="M110.941 43.5814H80.6121V56.044H110.941V43.5814Z" fill="#F2F2F2"/>
<path d="M110.941 59.7162H80.6121V72.1789H110.941V59.7162Z" fill="#F2F2F2"/>
<path d="M282 34.2866H156.808V78.5412H282V34.2866Z" fill="#F2F2F2"/>
<path d="M278.42 39.8372H160.388V75.9231H278.42V39.8372Z" fill="white"/>
<path d="M281.947 34.2474H156.755V37.183H281.947V34.2474Z" fill="#FF4500"/>
<path d="M160.707 36.2924C161.251 36.2924 161.693 36.0488 161.693 35.7483C161.693 35.4478 161.251 35.2042 160.707 35.2042C160.163 35.2042 159.721 35.4478 159.721 35.7483C159.721 36.0488 160.163 36.2924 160.707 36.2924Z" fill="white"/>
<path d="M164.449 36.2924C164.993 36.2924 165.434 36.0488 165.434 35.7483C165.434 35.4478 164.993 35.2042 164.449 35.2042C163.904 35.2042 163.463 35.4478 163.463 35.7483C163.463 36.0488 163.904 36.2924 164.449 36.2924Z" fill="white"/>
<path d="M168.19 36.2924C168.735 36.2924 169.176 36.0488 169.176 35.7483C169.176 35.4478 168.735 35.2042 168.19 35.2042C167.646 35.2042 167.205 35.4478 167.205 35.7483C167.205 36.0488 167.646 36.2924 168.19 36.2924Z" fill="white"/>
<path d="M267.668 43.5814H237.339V72.1789H267.668V43.5814Z" fill="#F2F2F2"/>
<path d="M232.314 43.5809H171.14V51.4527H232.314V43.5809Z" fill="#FF4500"/>
<path d="M232.314 53.6448H171.14V62.1145H232.314V53.6448Z" fill="#F2F2F2"/>
<path d="M232.314 64.3066H171.14V72.1783H232.314V64.3066Z" fill="#F2F2F2"/>
<path d="M140.291 0H139.591V21.1025H140.291V0Z" fill="#CCCCCC"/>
<path d="M210.271 34.2352H209.571V21.2957H70.3111V34.2352H69.6113V20.9095H210.271V34.2352Z" fill="#CCCCCC"/>
<path d="M145.09 58.994L144.563 57.5399C144.563 57.5399 136.813 56.0858 135.946 58.994H145.09Z" fill="#E6E6E6"/>
<path d="M130.216 139.06L125.135 139.06L122.718 128.243L130.217 128.243L130.216 139.06Z" fill="#FFB8B8"/>
<path d="M131.512 141.779L115.129 141.778V141.664C115.129 140.73 115.801 139.835 116.997 139.175C118.193 138.515 119.815 138.144 121.506 138.144H121.506L131.512 138.145L131.512 141.779Z" fill="#2F2E41"/>
<path d="M147.684 139.06L152.764 139.06L155.182 128.243L147.683 128.243L147.684 139.06Z" fill="#FFB8B8"/>
<path d="M146.388 138.145L156.394 138.144H156.394C158.085 138.144 159.707 138.515 160.903 139.175C162.099 139.835 162.771 140.73 162.771 141.664V141.778L146.388 141.779L146.388 138.145Z" fill="#2F2E41"/>
<path d="M152.467 65.1014L158.262 64.8105L161.951 74.4078L161.424 83.1325L155.628 94.7655L147.724 92.148L151.94 80.2242L152.467 65.1014Z" fill="#2F2E41"/>
<path d="M156.135 93.7475L154.838 99.8547L156.418 114.105V135.341L146.407 135.045L144.3 112.942L138.504 102.763L134.288 114.396L131.654 136.208L121.379 135.753V114.319L121.116 98.6915L124.804 92.5843L156.135 93.7475Z" fill="#2F2E41"/>
<path d="M134.552 59.2849C134.552 59.2849 138.24 56.3766 145.09 58.4124L148.251 60.739L158.263 64.8105L156.155 78.4792L158.789 95.6379L121.379 95.347L127.702 78.1884V59.8665L134.552 59.2849Z" fill="#2F2E41"/>
<path opacity="0.25" d="M154.838 69.6377L157.859 89.5758L154.047 78.7701L154.838 69.6377Z" fill="black"/>
<path d="M127.357 99.3455C127.721 99.1051 127.986 98.8234 128.132 98.5204C128.278 98.2174 128.302 97.9004 128.202 97.5917C128.102 97.283 127.881 96.9901 127.554 96.7337C127.227 96.4774 126.802 96.2637 126.309 96.1077L127.436 91.2458L122.249 90.1473L120.833 97.0257C120.414 97.5001 120.324 98.043 120.581 98.5515C120.838 99.0601 121.424 99.4989 122.228 99.7848C123.032 100.071 123.998 100.184 124.944 100.103C125.889 100.022 126.747 99.7525 127.357 99.3455Z" fill="#FFB8B8"/>
<path d="M120.852 94.4746H129.283V92.4388H120.852V94.4746Z" fill="#E6E6E6"/>
<path d="M133.235 62.3385L127.702 59.8665C127.702 59.8665 123.75 59.7211 123.223 62.9202C122.697 66.1192 122.056 79.788 122.056 79.788L120.062 93.4567L131.127 93.7475L133.235 78.9533V62.3385Z" fill="#2F2E41"/>
<path d="M149.7 52.8868C152.502 50.0567 150.618 46.5083 145.491 44.9613C140.363 43.4142 133.934 44.4543 131.131 47.2844C128.329 50.1145 130.213 53.6629 135.34 55.2099C140.468 56.757 146.897 55.7169 149.7 52.8868Z" fill="#FFB8B8"/>
<path d="M139.625 55.2372C142.214 55.5803 144.941 55.38 147.277 54.6754C149.613 53.9709 151.392 52.8122 152.267 51.4245C153.142 50.0368 153.051 48.5191 152.013 47.1661C150.974 45.8131 149.062 44.7215 146.647 44.1032C144.787 43.645 142.753 43.4436 140.721 43.5162C137.557 43.608 134.481 44.2536 131.313 44.206L130.854 44.6134L129.124 44.3817L128.753 45.14L128.298 45.1313C127.481 45.9687 128.795 47.1676 130.517 47.1574C131.2 47.1534 131.844 46.9965 132.511 46.9177C133.178 46.8388 133.964 46.8584 134.424 47.1365C135.022 47.4978 134.761 48.0617 134.637 48.5461C134.512 49.0305 134.823 49.683 135.709 49.6988C136.162 49.7069 136.592 49.5278 137.037 49.5749C137.555 49.6297 137.817 49.975 137.741 50.2631C137.613 50.5458 137.404 50.8154 137.122 51.0617C135.837 52.4768 136.922 54.4017 139.434 55.1653" fill="#2F2E41"/>
<path d="M206.597 142H73.2854C73.1926 142 73.1036 141.98 73.038 141.943C72.9724 141.907 72.9355 141.858 72.9355 141.807C72.9355 141.756 72.9724 141.707 73.038 141.67C73.1036 141.634 73.1926 141.614 73.2854 141.614H206.597C206.69 141.614 206.779 141.634 206.844 141.67C206.91 141.707 206.947 141.756 206.947 141.807C206.947 141.858 206.91 141.907 206.844 141.943C206.779 141.98 206.69 142 206.597 142Z" fill="#CCCCCC"/>
</svg>
