<svg width="27" height="27" viewBox="0 0 27 27" fill="none" xmlns="http://www.w3.org/2000/svg">
<path d="M23.0053 23.0058H19.0047V16.7406C19.0047 15.2466 18.9781 13.3233 16.924 13.3233C14.8404 13.3233 14.5216 14.9511 14.5216 16.6318V23.0054H10.521V10.1215H14.3616V11.8822H14.4153C14.7997 11.225 15.3551 10.6844 16.0224 10.3179C16.6896 9.95143 17.4438 9.77279 18.2046 9.80103C22.2594 9.80103 23.007 12.4682 23.007 15.9379L23.0053 23.0058ZM6.00708 8.36037C5.54792 8.36045 5.09903 8.22437 4.7172 7.96933C4.33537 7.71429 4.03777 7.35175 3.86198 6.92756C3.68619 6.50336 3.64012 6.03657 3.72962 5.58619C3.81911 5.13582 4.04016 4.7221 4.36478 4.39736C4.6894 4.07261 5.10302 3.85142 5.55335 3.76176C6.00367 3.67209 6.47046 3.71799 6.89471 3.89363C7.31895 4.06928 7.68158 4.36678 7.93675 4.74853C8.19191 5.13028 8.32816 5.57912 8.32824 6.0383C8.32829 6.34318 8.26829 6.64509 8.15167 6.92679C8.03505 7.20849 7.86411 7.46445 7.64857 7.68008C7.43303 7.8957 7.17711 8.06676 6.89547 8.18348C6.61382 8.30021 6.31195 8.36031 6.00708 8.36037V8.36037ZM8.00735 23.0058H4.00263V10.1215H8.00735V23.0058ZM24.9997 0.00183955H1.99236C1.47016 -0.0040537 0.966958 0.197621 0.59337 0.562548C0.219782 0.927474 0.00637319 1.42579 0 1.94801V25.0516C0.00615507 25.5741 0.219439 26.0727 0.593014 26.438C0.966589 26.8033 1.4699 27.0054 1.99236 26.9998H24.9997C25.5232 27.0064 26.0279 26.8049 26.403 26.4396C26.778 26.0743 26.9928 25.5751 27 25.0516V1.94634C26.9925 1.42309 26.7777 0.924205 26.4026 0.559287C26.0275 0.19437 25.523 -0.00672911 24.9997 0.000171924" fill="white"/>
</svg>
