<svg width="283" height="130" viewBox="0 0 283 130" fill="none" xmlns="http://www.w3.org/2000/svg">
<g clip-path="url(#clip0)">
<path d="M69.2266 81.7376H46.0168C44.6887 81.7376 43.6121 82.5302 43.6121 83.5079V88.178C43.6121 89.1557 44.6887 89.9483 46.0168 89.9483H69.2266C70.5547 89.9483 71.6313 89.1557 71.6313 88.178V83.5079C71.6313 82.5302 70.5547 81.7376 69.2266 81.7376Z" fill="#FF4500"/>
<path d="M97.2458 81.7376H74.0361C72.708 81.7376 71.6313 82.5302 71.6313 83.5079V88.178C71.6313 89.1557 72.708 89.9483 74.0361 89.9483H97.2458C98.574 89.9483 99.6506 89.1557 99.6506 88.178V83.5079C99.6506 82.5302 98.574 81.7376 97.2458 81.7376Z" fill="#FF4500"/>
<path opacity="0.1" d="M97.2458 81.7376H74.0361C72.708 81.7376 71.6313 82.5302 71.6313 83.5079V88.178C71.6313 89.1557 72.708 89.9483 74.0361 89.9483H97.2458C98.574 89.9483 99.6506 89.1557 99.6506 88.178V83.5079C99.6506 82.5302 98.574 81.7376 97.2458 81.7376Z" fill="black"/>
<path d="M125.265 81.7376H102.055C100.727 81.7376 99.6506 82.5302 99.6506 83.5079V88.178C99.6506 89.1557 100.727 89.9483 102.055 89.9483H125.265C126.593 89.9483 127.67 89.1557 127.67 88.178V83.5079C127.67 82.5302 126.593 81.7376 125.265 81.7376Z" fill="#FF4500"/>
<path d="M153.284 81.7376H130.075C128.747 81.7376 127.67 82.5302 127.67 83.5079V88.178C127.67 89.1557 128.747 89.9483 130.075 89.9483H153.284C154.613 89.9483 155.689 89.1557 155.689 88.178V83.5079C155.689 82.5302 154.613 81.7376 153.284 81.7376Z" fill="#FF4500"/>
<path opacity="0.1" d="M153.284 81.7376H130.075C128.747 81.7376 127.67 82.5302 127.67 83.5079V88.178C127.67 89.1557 128.747 89.9483 130.075 89.9483H153.284C154.613 89.9483 155.689 89.1557 155.689 88.178V83.5079C155.689 82.5302 154.613 81.7376 153.284 81.7376Z" fill="black"/>
<path d="M181.304 81.7376H158.094C156.766 81.7376 155.689 82.5302 155.689 83.5079V88.178C155.689 89.1557 156.766 89.9483 158.094 89.9483H181.304C182.632 89.9483 183.708 89.1557 183.708 88.178V83.5079C183.708 82.5302 182.632 81.7376 181.304 81.7376Z" fill="#FF4500"/>
<path d="M209.323 81.7376H186.113C184.785 81.7376 183.708 82.5302 183.708 83.5079V88.178C183.708 89.1557 184.785 89.9483 186.113 89.9483H209.323C210.651 89.9483 211.728 89.1557 211.728 88.178V83.5079C211.728 82.5302 210.651 81.7376 209.323 81.7376Z" fill="#FF4500"/>
<path opacity="0.1" d="M209.323 81.7376H186.113C184.785 81.7376 183.708 82.5302 183.708 83.5079V88.178C183.708 89.1557 184.785 89.9483 186.113 89.9483H209.323C210.651 89.9483 211.728 89.1557 211.728 88.178V83.5079C211.728 82.5302 210.651 81.7376 209.323 81.7376Z" fill="black"/>
<path d="M186.113 81.7376H209.323C210.651 81.7376 211.728 80.9451 211.728 79.9673V75.2973C211.728 74.3196 210.651 73.527 209.323 73.527H186.113C184.785 73.527 183.708 74.3196 183.708 75.2973V79.9673C183.708 80.9451 184.785 81.7376 186.113 81.7376Z" fill="#FF4500"/>
<path d="M158.094 81.7376H181.304C182.632 81.7376 183.708 80.9451 183.708 79.9673V75.2973C183.708 74.3196 182.632 73.527 181.304 73.527H158.094C156.766 73.527 155.689 74.3196 155.689 75.2973V79.9673C155.689 80.9451 156.766 81.7376 158.094 81.7376Z" fill="#FF4500"/>
<path opacity="0.1" d="M158.094 81.7376H181.304C182.632 81.7376 183.708 80.9451 183.708 79.9673V75.2973C183.708 74.3196 182.632 73.527 181.304 73.527H158.094C156.766 73.527 155.689 74.3196 155.689 75.2973V79.9673C155.689 80.9451 156.766 81.7376 158.094 81.7376Z" fill="black"/>
<path d="M130.075 81.7376H153.284C154.613 81.7376 155.689 80.9451 155.689 79.9673V75.2973C155.689 74.3196 154.613 73.527 153.284 73.527H130.075C128.747 73.527 127.67 74.3196 127.67 75.2973V79.9673C127.67 80.9451 128.747 81.7376 130.075 81.7376Z" fill="#FF4500"/>
<path d="M102.055 81.7376H125.265C126.593 81.7376 127.67 80.9451 127.67 79.9673V75.2973C127.67 74.3196 126.593 73.527 125.265 73.527H102.055C100.727 73.527 99.6507 74.3196 99.6507 75.2973V79.9673C99.6507 80.9451 100.727 81.7376 102.055 81.7376Z" fill="#FF4500"/>
<path opacity="0.1" d="M102.055 81.7376H125.265C126.593 81.7376 127.67 80.9451 127.67 79.9673V75.2973C127.67 74.3196 126.593 73.527 125.265 73.527H102.055C100.727 73.527 99.6507 74.3196 99.6507 75.2973V79.9673C99.6507 80.9451 100.727 81.7376 102.055 81.7376Z" fill="black"/>
<path d="M74.0361 81.7376H97.2459C98.574 81.7376 99.6506 80.9451 99.6506 79.9673V75.2973C99.6506 74.3196 98.574 73.527 97.2459 73.527H74.0361C72.708 73.527 71.6314 74.3196 71.6314 75.2973V79.9673C71.6314 80.9451 72.708 81.7376 74.0361 81.7376Z" fill="#FF4500"/>
<path d="M46.0168 81.7376H69.2266C70.5547 81.7376 71.6313 80.9451 71.6313 79.9673V75.2973C71.6313 74.3196 70.5547 73.527 69.2266 73.527H46.0168C44.6887 73.527 43.6121 74.3196 43.6121 75.2973V79.9673C43.6121 80.9451 44.6887 81.7376 46.0168 81.7376Z" fill="#FF4500"/>
<path opacity="0.1" d="M46.0168 81.7376H69.2266C70.5547 81.7376 71.6313 80.9451 71.6313 79.9673V75.2973C71.6313 74.3196 70.5547 73.527 69.2266 73.527H46.0168C44.6887 73.527 43.6121 74.3196 43.6121 75.2973V79.9673C43.6121 80.9451 44.6887 81.7376 46.0168 81.7376Z" fill="black"/>
<path d="M69.2266 65.3164H46.0168C44.6887 65.3164 43.6121 66.109 43.6121 67.0867V71.7567C43.6121 72.7344 44.6887 73.527 46.0168 73.527H69.2266C70.5547 73.527 71.6313 72.7344 71.6313 71.7567V67.0867C71.6313 66.109 70.5547 65.3164 69.2266 65.3164Z" fill="#FF4500"/>
<path d="M97.2458 65.3164H74.0361C72.708 65.3164 71.6313 66.109 71.6313 67.0867V71.7567C71.6313 72.7344 72.708 73.527 74.0361 73.527H97.2458C98.574 73.527 99.6506 72.7344 99.6506 71.7567V67.0867C99.6506 66.109 98.574 65.3164 97.2458 65.3164Z" fill="#FF4500"/>
<path opacity="0.1" d="M97.2458 65.3164H74.0361C72.708 65.3164 71.6313 66.109 71.6313 67.0867V71.7567C71.6313 72.7344 72.708 73.527 74.0361 73.527H97.2458C98.574 73.527 99.6506 72.7344 99.6506 71.7567V67.0867C99.6506 66.109 98.574 65.3164 97.2458 65.3164Z" fill="black"/>
<path d="M125.265 65.3164H102.055C100.727 65.3164 99.6506 66.109 99.6506 67.0867V71.7567C99.6506 72.7344 100.727 73.527 102.055 73.527H125.265C126.593 73.527 127.67 72.7344 127.67 71.7567V67.0867C127.67 66.109 126.593 65.3164 125.265 65.3164Z" fill="#FF4500"/>
<path d="M153.284 65.3164H130.075C128.747 65.3164 127.67 66.109 127.67 67.0867V71.7567C127.67 72.7344 128.747 73.527 130.075 73.527H153.284C154.613 73.527 155.689 72.7344 155.689 71.7567V67.0867C155.689 66.109 154.613 65.3164 153.284 65.3164Z" fill="#FF4500"/>
<path opacity="0.1" d="M153.284 65.3164H130.075C128.747 65.3164 127.67 66.109 127.67 67.0867V71.7567C127.67 72.7344 128.747 73.527 130.075 73.527H153.284C154.613 73.527 155.689 72.7344 155.689 71.7567V67.0867C155.689 66.109 154.613 65.3164 153.284 65.3164Z" fill="black"/>
<path d="M181.304 65.3164H158.094C156.766 65.3164 155.689 66.109 155.689 67.0867V71.7567C155.689 72.7344 156.766 73.527 158.094 73.527H181.304C182.632 73.527 183.708 72.7344 183.708 71.7567V67.0867C183.708 66.109 182.632 65.3164 181.304 65.3164Z" fill="#FF4500"/>
<path d="M209.323 65.3164H186.113C184.785 65.3164 183.708 66.109 183.708 67.0867V71.7567C183.708 72.7344 184.785 73.527 186.113 73.527H209.323C210.651 73.527 211.728 72.7344 211.728 71.7567V67.0867C211.728 66.109 210.651 65.3164 209.323 65.3164Z" fill="#FF4500"/>
<path opacity="0.1" d="M209.323 65.3164H186.113C184.785 65.3164 183.708 66.109 183.708 67.0867V71.7567C183.708 72.7344 184.785 73.527 186.113 73.527H209.323C210.651 73.527 211.728 72.7344 211.728 71.7567V67.0867C211.728 66.109 210.651 65.3164 209.323 65.3164Z" fill="black"/>
<path d="M186.113 65.3164H209.323C210.651 65.3164 211.728 64.5238 211.728 63.5461V58.8761C211.728 57.8984 210.651 57.1058 209.323 57.1058H186.113C184.785 57.1058 183.708 57.8984 183.708 58.8761V63.5461C183.708 64.5238 184.785 65.3164 186.113 65.3164Z" fill="#FF4500"/>
<path d="M158.094 65.3164H181.304C182.632 65.3164 183.708 64.5238 183.708 63.5461V58.8761C183.708 57.8984 182.632 57.1058 181.304 57.1058H158.094C156.766 57.1058 155.689 57.8984 155.689 58.8761V63.5461C155.689 64.5238 156.766 65.3164 158.094 65.3164Z" fill="#FF4500"/>
<path opacity="0.1" d="M158.094 65.3164H181.304C182.632 65.3164 183.708 64.5238 183.708 63.5461V58.8761C183.708 57.8984 182.632 57.1058 181.304 57.1058H158.094C156.766 57.1058 155.689 57.8984 155.689 58.8761V63.5461C155.689 64.5238 156.766 65.3164 158.094 65.3164Z" fill="black"/>
<path d="M130.075 65.3164H153.284C154.613 65.3164 155.689 64.5238 155.689 63.5461V58.8761C155.689 57.8984 154.613 57.1058 153.284 57.1058H130.075C128.747 57.1058 127.67 57.8984 127.67 58.8761V63.5461C127.67 64.5238 128.747 65.3164 130.075 65.3164Z" fill="#FF4500"/>
<path d="M102.055 65.3164H125.265C126.593 65.3164 127.67 64.5238 127.67 63.5461V58.8761C127.67 57.8984 126.593 57.1058 125.265 57.1058H102.055C100.727 57.1058 99.6507 57.8984 99.6507 58.8761V63.5461C99.6507 64.5238 100.727 65.3164 102.055 65.3164Z" fill="#FF4500"/>
<path opacity="0.1" d="M102.055 65.3164H125.265C126.593 65.3164 127.67 64.5238 127.67 63.5461V58.8761C127.67 57.8984 126.593 57.1058 125.265 57.1058H102.055C100.727 57.1058 99.6507 57.8984 99.6507 58.8761V63.5461C99.6507 64.5238 100.727 65.3164 102.055 65.3164Z" fill="black"/>
<path d="M74.0361 65.3164H97.2459C98.574 65.3164 99.6506 64.5238 99.6506 63.5461V58.8761C99.6506 57.8984 98.574 57.1058 97.2459 57.1058H74.0361C72.708 57.1058 71.6314 57.8984 71.6314 58.8761V63.5461C71.6314 64.5238 72.708 65.3164 74.0361 65.3164Z" fill="#FF4500"/>
<path d="M46.0168 65.3164H69.2266C70.5547 65.3164 71.6313 64.5238 71.6313 63.5461V58.8761C71.6313 57.8984 70.5547 57.1058 69.2266 57.1058H46.0168C44.6887 57.1058 43.6121 57.8984 43.6121 58.8761V63.5461C43.6121 64.5238 44.6887 65.3164 46.0168 65.3164Z" fill="#FF4500"/>
<path opacity="0.1" d="M46.0168 65.3164H69.2266C70.5547 65.3164 71.6313 64.5238 71.6313 63.5461V58.8761C71.6313 57.8984 70.5547 57.1058 69.2266 57.1058H46.0168C44.6887 57.1058 43.6121 57.8984 43.6121 58.8761V63.5461C43.6121 64.5238 44.6887 65.3164 46.0168 65.3164Z" fill="black"/>
<path d="M69.2266 49.2957H46.0168C44.6887 49.2957 43.6121 50.0883 43.6121 51.066V55.736C43.6121 56.7137 44.6887 57.5063 46.0168 57.5063H69.2266C70.5547 57.5063 71.6313 56.7137 71.6313 55.736V51.066C71.6313 50.0883 70.5547 49.2957 69.2266 49.2957Z" fill="#FF4500"/>
<path d="M97.2458 49.2957H74.0361C72.708 49.2957 71.6313 50.0883 71.6313 51.066V55.736C71.6313 56.7137 72.708 57.5063 74.0361 57.5063H97.2458C98.574 57.5063 99.6506 56.7137 99.6506 55.736V51.066C99.6506 50.0883 98.574 49.2957 97.2458 49.2957Z" fill="#FF4500"/>
<path opacity="0.1" d="M97.2458 49.2957H74.0361C72.708 49.2957 71.6313 50.0883 71.6313 51.066V55.736C71.6313 56.7137 72.708 57.5063 74.0361 57.5063H97.2458C98.574 57.5063 99.6506 56.7137 99.6506 55.736V51.066C99.6506 50.0883 98.574 49.2957 97.2458 49.2957Z" fill="black"/>
<path d="M125.265 49.2957H102.055C100.727 49.2957 99.6506 50.0883 99.6506 51.066V55.736C99.6506 56.7137 100.727 57.5063 102.055 57.5063H125.265C126.593 57.5063 127.67 56.7137 127.67 55.736V51.066C127.67 50.0883 126.593 49.2957 125.265 49.2957Z" fill="#FF4500"/>
<path d="M153.284 49.2957H130.075C128.747 49.2957 127.67 50.0883 127.67 51.066V55.736C127.67 56.7137 128.747 57.5063 130.075 57.5063H153.284C154.613 57.5063 155.689 56.7137 155.689 55.736V51.066C155.689 50.0883 154.613 49.2957 153.284 49.2957Z" fill="#FF4500"/>
<path opacity="0.1" d="M153.284 49.2957H130.075C128.747 49.2957 127.67 50.0883 127.67 51.066V55.736C127.67 56.7137 128.747 57.5063 130.075 57.5063H153.284C154.613 57.5063 155.689 56.7137 155.689 55.736V51.066C155.689 50.0883 154.613 49.2957 153.284 49.2957Z" fill="black"/>
<path d="M181.304 49.2957H158.094C156.766 49.2957 155.689 50.0883 155.689 51.066V55.736C155.689 56.7137 156.766 57.5063 158.094 57.5063H181.304C182.632 57.5063 183.708 56.7137 183.708 55.736V51.066C183.708 50.0883 182.632 49.2957 181.304 49.2957Z" fill="#FF4500"/>
<path d="M209.323 49.2957H186.113C184.785 49.2957 183.708 50.0883 183.708 51.066V55.736C183.708 56.7137 184.785 57.5063 186.113 57.5063H209.323C210.651 57.5063 211.728 56.7137 211.728 55.736V51.066C211.728 50.0883 210.651 49.2957 209.323 49.2957Z" fill="#FF4500"/>
<path opacity="0.1" d="M209.323 49.2957H186.113C184.785 49.2957 183.708 50.0883 183.708 51.066V55.736C183.708 56.7137 184.785 57.5063 186.113 57.5063H209.323C210.651 57.5063 211.728 56.7137 211.728 55.736V51.066C211.728 50.0883 210.651 49.2957 209.323 49.2957Z" fill="black"/>
<path d="M186.113 49.2957H209.323C210.651 49.2957 211.728 48.5031 211.728 47.5254V42.8554C211.728 41.8777 210.651 41.0851 209.323 41.0851H186.113C184.785 41.0851 183.708 41.8777 183.708 42.8554V47.5254C183.708 48.5031 184.785 49.2957 186.113 49.2957Z" fill="#FF4500"/>
<path d="M158.094 49.2957H181.304C182.632 49.2957 183.708 48.5031 183.708 47.5254V42.8554C183.708 41.8777 182.632 41.0851 181.304 41.0851H158.094C156.766 41.0851 155.689 41.8777 155.689 42.8554V47.5254C155.689 48.5031 156.766 49.2957 158.094 49.2957Z" fill="#FF4500"/>
<path opacity="0.1" d="M158.094 49.2957H181.304C182.632 49.2957 183.708 48.5031 183.708 47.5254V42.8554C183.708 41.8777 182.632 41.0851 181.304 41.0851H158.094C156.766 41.0851 155.689 41.8777 155.689 42.8554V47.5254C155.689 48.5031 156.766 49.2957 158.094 49.2957Z" fill="black"/>
<path d="M130.075 49.2957H153.284C154.613 49.2957 155.689 48.5031 155.689 47.5254V42.8554C155.689 41.8777 154.613 41.0851 153.284 41.0851H130.075C128.747 41.0851 127.67 41.8777 127.67 42.8554V47.5254C127.67 48.5031 128.747 49.2957 130.075 49.2957Z" fill="#FF4500"/>
<path d="M102.055 49.2957H125.265C126.593 49.2957 127.67 48.5031 127.67 47.5254V42.8554C127.67 41.8777 126.593 41.0851 125.265 41.0851H102.055C100.727 41.0851 99.6507 41.8777 99.6507 42.8554V47.5254C99.6507 48.5031 100.727 49.2957 102.055 49.2957Z" fill="#FF4500"/>
<path opacity="0.1" d="M102.055 49.2957H125.265C126.593 49.2957 127.67 48.5031 127.67 47.5254V42.8554C127.67 41.8777 126.593 41.0851 125.265 41.0851H102.055C100.727 41.0851 99.6507 41.8777 99.6507 42.8554V47.5254C99.6507 48.5031 100.727 49.2957 102.055 49.2957Z" fill="black"/>
<path d="M74.0361 49.2957H97.2459C98.574 49.2957 99.6506 48.5031 99.6506 47.5254V42.8554C99.6506 41.8777 98.574 41.0851 97.2459 41.0851H74.0361C72.708 41.0851 71.6314 41.8777 71.6314 42.8554V47.5254C71.6314 48.5031 72.708 49.2957 74.0361 49.2957Z" fill="#FF4500"/>
<path d="M46.0168 49.2957H69.2266C70.5547 49.2957 71.6313 48.5031 71.6313 47.5254V42.8554C71.6313 41.8777 70.5547 41.0851 69.2266 41.0851H46.0168C44.6887 41.0851 43.6121 41.8777 43.6121 42.8554V47.5254C43.6121 48.5031 44.6887 49.2957 46.0168 49.2957Z" fill="#FF4500"/>
<path opacity="0.1" d="M46.0168 49.2957H69.2266C70.5547 49.2957 71.6313 48.5031 71.6313 47.5254V42.8554C71.6313 41.8777 70.5547 41.0851 69.2266 41.0851H46.0168C44.6887 41.0851 43.6121 41.8777 43.6121 42.8554V47.5254C43.6121 48.5031 44.6887 49.2957 46.0168 49.2957Z" fill="black"/>
<path d="M69.2266 32.8745H46.0168C44.6887 32.8745 43.6121 33.6671 43.6121 34.6448V39.3148C43.6121 40.2925 44.6887 41.0851 46.0168 41.0851H69.2266C70.5547 41.0851 71.6313 40.2925 71.6313 39.3148V34.6448C71.6313 33.6671 70.5547 32.8745 69.2266 32.8745Z" fill="#FF4500"/>
<path d="M97.2458 32.8745H74.0361C72.708 32.8745 71.6313 33.6671 71.6313 34.6448V39.3148C71.6313 40.2925 72.708 41.0851 74.0361 41.0851H97.2458C98.574 41.0851 99.6506 40.2925 99.6506 39.3148V34.6448C99.6506 33.6671 98.574 32.8745 97.2458 32.8745Z" fill="#FF4500"/>
<path opacity="0.1" d="M97.2458 32.8745H74.0361C72.708 32.8745 71.6313 33.6671 71.6313 34.6448V39.3148C71.6313 40.2925 72.708 41.0851 74.0361 41.0851H97.2458C98.574 41.0851 99.6506 40.2925 99.6506 39.3148V34.6448C99.6506 33.6671 98.574 32.8745 97.2458 32.8745Z" fill="black"/>
<path d="M125.265 32.8745H102.055C100.727 32.8745 99.6506 33.6671 99.6506 34.6448V39.3148C99.6506 40.2925 100.727 41.0851 102.055 41.0851H125.265C126.593 41.0851 127.67 40.2925 127.67 39.3148V34.6448C127.67 33.6671 126.593 32.8745 125.265 32.8745Z" fill="#FF4500"/>
<path d="M153.284 32.8745H130.075C128.747 32.8745 127.67 33.6671 127.67 34.6448V39.3148C127.67 40.2925 128.747 41.0851 130.075 41.0851H153.284C154.613 41.0851 155.689 40.2925 155.689 39.3148V34.6448C155.689 33.6671 154.613 32.8745 153.284 32.8745Z" fill="#FF4500"/>
<path opacity="0.1" d="M153.284 32.8745H130.075C128.747 32.8745 127.67 33.6671 127.67 34.6448V39.3148C127.67 40.2925 128.747 41.0851 130.075 41.0851H153.284C154.613 41.0851 155.689 40.2925 155.689 39.3148V34.6448C155.689 33.6671 154.613 32.8745 153.284 32.8745Z" fill="black"/>
<path d="M181.304 32.8745H158.094C156.766 32.8745 155.689 33.6671 155.689 34.6448V39.3148C155.689 40.2925 156.766 41.0851 158.094 41.0851H181.304C182.632 41.0851 183.708 40.2925 183.708 39.3148V34.6448C183.708 33.6671 182.632 32.8745 181.304 32.8745Z" fill="#FF4500"/>
<path d="M209.323 32.8745H186.113C184.785 32.8745 183.708 33.6671 183.708 34.6448V39.3148C183.708 40.2925 184.785 41.0851 186.113 41.0851H209.323C210.651 41.0851 211.728 40.2925 211.728 39.3148V34.6448C211.728 33.6671 210.651 32.8745 209.323 32.8745Z" fill="#FF4500"/>
<path opacity="0.1" d="M209.323 32.8745H186.113C184.785 32.8745 183.708 33.6671 183.708 34.6448V39.3148C183.708 40.2925 184.785 41.0851 186.113 41.0851H209.323C210.651 41.0851 211.728 40.2925 211.728 39.3148V34.6448C211.728 33.6671 210.651 32.8745 209.323 32.8745Z" fill="black"/>
<path d="M209.323 5.52115H183.937C182.609 5.52115 181.532 6.31373 181.532 7.29144V12.5983C181.532 13.576 182.609 14.3686 183.937 14.3686H209.323C210.651 14.3686 211.728 13.576 211.728 12.5983V7.29144C211.728 6.31373 210.651 5.52115 209.323 5.52115Z" fill="url(#paint0_linear)"/>
<path d="M185.025 14.0501L208.235 14.0501C209.563 14.0501 210.64 13.2576 210.64 12.2799V7.60982C210.64 6.63211 209.563 5.83953 208.235 5.83953L185.025 5.83953C183.697 5.83953 182.62 6.63211 182.62 7.60982V12.2799C182.62 13.2576 183.697 14.0501 185.025 14.0501Z" fill="#FF4500"/>
<path d="M158.094 32.8745H181.304C182.632 32.8745 183.708 32.0819 183.708 31.1042V26.4342C183.708 25.4565 182.632 24.6639 181.304 24.6639H158.094C156.766 24.6639 155.689 25.4565 155.689 26.4342V31.1042C155.689 32.0819 156.766 32.8745 158.094 32.8745Z" fill="#FF4500"/>
<path opacity="0.1" d="M158.094 32.8745H181.304C182.632 32.8745 183.708 32.0819 183.708 31.1042V26.4342C183.708 25.4565 182.632 24.6639 181.304 24.6639H158.094C156.766 24.6639 155.689 25.4565 155.689 26.4342V31.1042C155.689 32.0819 156.766 32.8745 158.094 32.8745Z" fill="black"/>
<path d="M130.075 32.8745H153.284C154.613 32.8745 155.689 32.0819 155.689 31.1042V26.4342C155.689 25.4565 154.613 24.6639 153.284 24.6639H130.075C128.747 24.6639 127.67 25.4565 127.67 26.4342V31.1042C127.67 32.0819 128.747 32.8745 130.075 32.8745Z" fill="#FF4500"/>
<path d="M102.055 32.8745H125.265C126.593 32.8745 127.67 32.0819 127.67 31.1042V26.4342C127.67 25.4565 126.593 24.6639 125.265 24.6639H102.055C100.727 24.6639 99.6507 25.4565 99.6507 26.4342V31.1042C99.6507 32.0819 100.727 32.8745 102.055 32.8745Z" fill="#FF4500"/>
<path opacity="0.1" d="M102.055 32.8745H125.265C126.593 32.8745 127.67 32.0819 127.67 31.1042V26.4342C127.67 25.4565 126.593 24.6639 125.265 24.6639H102.055C100.727 24.6639 99.6507 25.4565 99.6507 26.4342V31.1042C99.6507 32.0819 100.727 32.8745 102.055 32.8745Z" fill="black"/>
<path d="M74.0361 32.8745H97.2459C98.574 32.8745 99.6506 32.0819 99.6506 31.1042V26.4342C99.6506 25.4565 98.574 24.6639 97.2459 24.6639H74.0361C72.708 24.6639 71.6314 25.4565 71.6314 26.4342V31.1042C71.6314 32.0819 72.708 32.8745 74.0361 32.8745Z" fill="#FF4500"/>
<path d="M46.0168 32.8745H69.2266C70.5547 32.8745 71.6313 32.0819 71.6313 31.1042V26.4342C71.6313 25.4565 70.5547 24.6639 69.2266 24.6639H46.0168C44.6887 24.6639 43.6121 25.4565 43.6121 26.4342V31.1042C43.6121 32.0819 44.6887 32.8745 46.0168 32.8745Z" fill="#FF4500"/>
<path opacity="0.1" d="M46.0168 32.8745H69.2266C70.5547 32.8745 71.6313 32.0819 71.6313 31.1042V26.4342C71.6313 25.4565 70.5547 24.6639 69.2266 24.6639H46.0168C44.6887 24.6639 43.6121 25.4565 43.6121 26.4342V31.1042C43.6121 32.0819 44.6887 32.8745 46.0168 32.8745Z" fill="black"/>
<path d="M135.744 130C210.713 130 271.488 119.824 271.488 107.271C271.488 94.7175 210.713 84.5413 135.744 84.5413C60.7746 84.5413 0 94.7175 0 107.271C0 119.824 60.7746 130 135.744 130Z" fill="#F5F5F5"/>
<path d="M30.9981 97.0695C30.9981 97.0695 33.4464 90.9796 30.5411 86.4958C29.3096 84.6213 28.9383 82.5032 29.4829 80.46C29.7516 79.4913 30.1404 78.5428 30.6444 77.6263" stroke="#535461" stroke-width="2" stroke-miterlimit="10"/>
<path d="M28.8435 74.7947C28.8435 75.5416 30.6797 77.7064 30.6797 77.7064C30.6797 77.7064 32.5159 75.5416 32.5159 74.7947C32.5159 74.4361 32.3225 74.0923 31.9781 73.8388C31.6338 73.5853 31.1667 73.4429 30.6797 73.4429C30.1927 73.4429 29.7257 73.5853 29.3813 73.8388C29.037 74.0923 28.8435 74.4361 28.8435 74.7947Z" fill="#FF4500"/>
<path d="M25.8076 78.93C26.3517 79.5568 29.4991 80.6382 29.4991 80.6382C29.4991 80.6382 29.442 78.0869 28.8897 77.4601C28.6237 77.1614 28.2078 76.9523 27.733 76.8786C27.2582 76.8049 26.763 76.8726 26.3558 77.0668C25.9485 77.261 25.6623 77.566 25.5596 77.9151C25.4568 78.2643 25.546 78.6291 25.8076 78.93Z" fill="#FF4500"/>
<path d="M25.9409 85.9951C26.8468 86.3316 30.2934 86.0993 30.2934 86.0993C30.2934 86.0993 28.4953 83.9184 27.5894 83.582C27.1562 83.4294 26.6589 83.4079 26.2044 83.522C25.7498 83.6361 25.374 83.8768 25.1577 84.1925C24.9413 84.5082 24.9016 84.8737 25.047 85.2106C25.1924 85.5476 25.5113 85.8292 25.9355 85.9951H25.9409Z" fill="#FF4500"/>
<path d="M27.6765 91.324C28.4926 91.7686 31.9474 91.9689 31.9474 91.9689C31.9474 91.9689 30.6743 89.5958 29.8609 89.1512C29.4683 88.9612 28.9916 88.8893 28.5291 88.9502C28.0665 89.0111 27.6533 89.2002 27.3744 89.4786C27.0956 89.757 26.9723 90.1035 27.03 90.4468C27.0877 90.7901 27.322 91.1041 27.6847 91.324H27.6765Z" fill="#FF4500"/>
<path d="M33.3539 80.7824C32.6276 81.3031 29.238 81.8418 29.238 81.8418C29.238 81.8418 30.0677 79.3646 30.7941 78.8379C30.967 78.7142 31.1713 78.6167 31.3953 78.5511C31.6194 78.4855 31.8588 78.453 32.0999 78.4555C32.341 78.4581 32.5791 78.4955 32.8006 78.5657C33.022 78.636 33.2225 78.7377 33.3906 78.8649C33.5587 78.9922 33.6911 79.1426 33.7802 79.3076C33.8693 79.4725 33.9134 79.6488 33.91 79.8263C33.9066 80.0038 33.8557 80.179 33.7603 80.3421C33.6649 80.5051 33.5268 80.6527 33.3539 80.7764V80.7824Z" fill="#FF4500"/>
<path d="M35.2771 87.0285C34.3712 87.3649 30.9246 87.1326 30.9246 87.1326C30.9246 87.1326 32.7227 84.9518 33.6286 84.6153C34.0603 84.472 34.5505 84.4569 34.9969 84.5734C35.4433 84.6898 35.8113 84.9287 36.0241 85.2402C36.2369 85.5516 36.278 85.9116 36.1388 86.2448C35.9995 86.5781 35.6908 86.8588 35.2771 87.0285Z" fill="#FF4500"/>
<path d="M36.0115 93.3006C35.1954 93.7452 31.7406 93.9454 31.7406 93.9454C31.7406 93.9454 33.0137 91.5723 33.8271 91.1278C34.2197 90.9378 34.6964 90.8658 35.159 90.9267C35.6215 90.9876 36.0347 91.1767 36.3136 91.4551C36.5925 91.7336 36.7157 92.0801 36.658 92.4234C36.6003 92.7667 36.366 93.0806 36.0033 93.3006H36.0115Z" fill="#FF4500"/>
<path d="M162.397 62.5569C162.397 62.5569 171.345 69.1434 166.293 78.916C161.241 88.6886 174.952 104.95 174.952 104.95C174.952 104.95 174.805 104.934 174.533 104.898C156.157 102.5 147.028 87.0285 157.245 75.5376C161.043 71.2641 164.163 66.2536 162.397 62.5569Z" fill="#FF4500"/>
<path opacity="0.2" d="M162.397 62.5569C162.397 62.5569 171.345 69.1434 166.293 78.916C161.241 88.6886 174.952 104.95 174.952 104.95C174.952 104.95 174.805 104.934 174.533 104.898C156.157 102.5 147.028 87.0285 157.245 75.5376C161.043 71.2641 164.163 66.2536 162.397 62.5569Z" fill="black"/>
<path d="M162.397 62.5569C162.397 62.5569 167.449 70.6293 162.397 77.2158C157.346 83.8023 161.532 102.284 174.96 104.94" stroke="#535461" stroke-miterlimit="10"/>
<path d="M146.465 89.1933C146.465 89.1933 156.674 87.9917 157.604 94.7324C158.535 101.473 177.234 102.4 177.234 102.4L176.883 102.573C161.443 110.034 146.688 107.325 148.907 97.4179C149.734 93.7352 149.661 90.0324 146.465 89.1933Z" fill="#FF4500"/>
<path opacity="0.2" d="M146.465 89.1933C146.465 89.1933 156.674 87.9917 157.604 94.7324C158.535 101.473 177.234 102.4 177.234 102.4L176.883 102.573C161.443 110.034 146.688 107.325 148.907 97.4179C149.734 93.7352 149.661 90.0324 146.465 89.1933Z" fill="#F5F5F5"/>
<path d="M146.465 89.1933C146.465 89.1933 154.389 90.4729 153.739 95.7778C153.089 101.083 165.507 107.441 177.234 102.4" stroke="#535461" stroke-miterlimit="10"/>
<path d="M224.135 104.697C224.135 104.697 208.983 102.466 204.94 99.4906C200.898 96.5147 182.715 91.31 180.694 95.0288C178.673 98.7476 153.42 111.392 170.607 113.623C187.794 115.854 211.015 116.597 216.067 115.111C221.118 113.625 224.135 104.697 224.135 104.697Z" fill="#A8A8A8"/>
<path opacity="0.2" d="M170.607 112.241C187.781 114.472 211.015 115.215 216.067 113.729C219.913 112.596 222.595 107.154 223.643 104.621L224.149 104.699C224.149 104.699 221.118 113.623 216.067 115.113C211.015 116.603 187.775 115.856 170.607 113.625C165.651 112.98 164.234 111.468 164.767 109.554C165.167 110.801 166.905 111.76 170.607 112.241Z" fill="black"/>
<path d="M254.793 5.64121C254.523 5.14582 254.092 4.70653 253.539 4.36156C249.472 1.63403 242.897 2.46111 237.848 0.79295C236.684 0.408453 235.492 -0.124237 234.23 0.0219522C232.467 0.222211 230.827 1.70413 229.29 1.04728L229.399 1.2936L229.29 1.25154L230.422 3.78682C230.857 4.76008 231.314 5.76137 232.157 6.57242C230.909 7.37395 229.953 8.39319 229.378 9.53688C228.803 10.6806 228.626 11.9122 228.864 13.1191C229.103 14.326 229.749 15.4696 230.743 16.4453C231.736 17.4209 233.047 18.1976 234.554 18.7041C234.608 18.7882 234.66 18.8743 234.712 18.9604L234.856 19.0045C235.191 19.5716 235.441 20.1638 235.601 20.7708C234.293 20.9049 232.01 21.9723 229.769 23.5423L225.286 23.4322C222.386 23.3609 219.58 22.6585 217.223 21.4136L203.795 14.3144C202.839 14.3838 201.938 14.6772 201.225 15.1515C199.56 13.8739 198.145 12.5481 198.265 11.7471C198.265 11.7471 192.025 3.14999 189.756 7.44755C187.487 11.7451 194.01 16.2589 194.01 16.2589L198.148 20.206C197.985 20.8981 197.881 21.597 197.838 22.2987C202.944 26.5983 220.811 30.4873 220.811 30.4873L223.596 30.5875L223.613 30.6876C223.441 31.2257 223.357 31.777 223.363 32.3297C223.363 32.4098 223.363 32.4919 223.363 32.576C223.363 32.6601 223.363 32.6862 223.363 32.7402C223.504 39.5971 224.78 60.5762 224.78 60.5762C225.027 60.4941 225.286 60.42 225.547 60.3499L225.348 62.2143C225.348 62.2143 213.436 63.4419 204.644 65.8991C195.852 68.3563 195.569 71.222 195.569 71.222V96.5066C193.058 97.4559 189.095 98.7095 187.06 98.0346C184.851 97.3097 183.64 97.9185 183.42 98.5533C183.378 98.6789 183.378 98.8102 183.42 98.9358C183.439 98.9923 183.467 99.0468 183.504 99.098V99.11C183.545 99.163 183.595 99.2115 183.654 99.2542C184.506 99.869 202.941 105.19 207.196 104.371C207.327 104.345 207.456 104.313 207.582 104.275C207.623 104.263 207.658 104.247 207.699 104.233C207.74 104.219 207.857 104.179 207.93 104.147C208.004 104.114 208.015 104.104 208.055 104.084C208.096 104.064 208.183 104.022 208.243 103.988C208.303 103.954 208.322 103.936 208.36 103.91C208.398 103.884 208.472 103.84 208.521 103.8C208.569 103.76 208.591 103.74 208.627 103.71C208.662 103.68 208.725 103.63 208.768 103.586C208.812 103.542 208.828 103.52 208.861 103.488C208.893 103.456 208.948 103.396 208.986 103.347C209.024 103.299 209.037 103.279 209.062 103.243C209.086 103.207 209.138 103.141 209.173 103.087C209.209 103.033 209.217 103.017 209.236 102.981C209.255 102.945 209.304 102.867 209.334 102.809C209.364 102.751 209.367 102.739 209.386 102.703C209.405 102.667 209.445 102.576 209.47 102.502C209.47 102.468 209.494 102.434 209.508 102.4C209.532 102.33 209.56 102.262 209.581 102.2C209.581 102.168 209.6 102.136 209.609 102.104C209.63 102.028 209.652 101.952 209.668 101.876C209.668 101.848 209.668 101.818 209.688 101.789C209.707 101.707 209.723 101.623 209.736 101.541V101.469C209.75 101.379 209.764 101.289 209.775 101.199V101.143C209.785 101.045 209.794 100.948 209.799 100.85V100.81C209.799 100.706 209.799 100.602 209.799 100.498V100.478C209.794 99.2567 209.612 98.0396 209.255 96.8471L210.324 75.3132C215.895 75.377 221.467 75.2259 227.016 74.8607L227.625 85.1379C227.625 85.1379 227.625 91.8927 230.745 94.9626C233.417 97.59 236.502 109.211 237.334 112.509C236.189 114.111 233.996 116.114 230.177 116.046C230.177 116.046 222.993 115.589 223.398 117.047C223.409 117.085 223.425 117.123 223.444 117.159C223.467 117.201 223.493 117.242 223.523 117.281C223.553 117.32 223.586 117.358 223.624 117.398L223.645 117.422C223.686 117.464 223.733 117.508 223.784 117.554V117.564C223.833 117.606 223.885 117.648 223.942 117.69L223.991 117.726C224.056 117.774 224.122 117.822 224.198 117.872C227.884 120.329 249.44 120.738 249.44 120.738V120.682C249.44 120.666 249.44 120.646 249.44 120.624C249.44 119.913 249.298 116.184 248.009 113.376H248.308C248.308 113.376 245.188 92.7017 242.636 90.2465C242.636 90.2465 241.959 79.3445 243.487 72.5136L243.759 72.4375C250.908 70.471 251.417 65.6287 250.68 62.0721C252.04 62.3926 252.834 62.6108 252.834 62.6108C252.834 62.6108 252.81 62.4566 252.764 62.1823L252.834 62.2023C252.834 62.2023 252.698 61.5515 252.473 60.5382C251.961 57.7486 250.971 52.8743 249.916 50.5733C249.744 50.0666 249.581 49.6341 249.431 49.3076C248.822 47.9249 248.404 46.5006 248.183 45.0562C247.894 43.1839 247.747 41.3012 247.745 39.4169C247.768 36.8993 248.03 34.3859 248.528 31.8951C248.961 29.7203 249.344 27.2451 249.317 25.5169C249.347 24.9133 249.29 24.3092 249.146 23.7146C248.768 22.4389 247.095 21.6099 245.356 21.0812C245.245 21.0471 245.131 21.0191 245.016 20.987C245.06 20.5044 245.114 19.9557 245.185 19.385C245.393 19.4912 245.629 19.5652 245.877 19.6024C246.125 19.6396 246.381 19.6392 246.629 19.6013C247.378 19.4811 247.913 19.0225 248.389 18.6C250.903 16.327 253.485 13.958 254.45 11.1343C254.84 9.87335 255.023 8.58242 254.994 7.28935C254.994 7.21859 254.994 7.14783 254.994 7.07707C255.041 6.59348 254.973 6.10762 254.793 5.64121Z" fill="url(#paint1_linear)"/>
<path d="M231.907 16.7216C231.907 16.7216 235.715 20.927 234.899 22.9296C234.083 24.9322 243.876 23.7307 243.876 23.7307C243.876 23.7307 244.148 15.9206 246.053 14.1182C247.957 12.3159 231.907 16.7216 231.907 16.7216Z" fill="#F7C4A7"/>
<path d="M206.744 19.4251C206.744 19.4251 198.855 14.6189 199.127 12.8166C199.127 12.8166 193.142 4.40568 190.966 8.61112C188.79 12.8166 195.047 17.2222 195.047 17.2222L202.664 24.6318L206.744 19.4251Z" fill="#F7C4A7"/>
<path d="M198.719 94.8225C198.719 94.8225 191.374 98.2269 188.382 97.2256C185.39 96.2244 184.301 97.8264 185.118 98.4272C185.934 99.028 203.616 104.235 207.696 103.434C211.777 102.633 209.701 96.0722 209.701 96.0722L198.719 94.8225Z" fill="#535461"/>
<path d="M237.62 109.441C237.62 109.441 235.851 114.949 229.731 114.848C229.731 114.848 220.482 114.248 224.018 116.651C227.555 119.054 248.229 119.454 248.229 119.454C248.229 119.454 248.229 111.244 244.42 109.441C240.612 107.639 237.62 109.441 237.62 109.441Z" fill="#535461"/>
<path d="M226.466 70.5912L227.283 84.6093C227.283 84.6093 227.283 91.2179 230.275 94.2218C233.267 97.2256 236.804 112.245 236.804 112.245H247.141C247.141 112.245 244.149 92.0189 241.7 89.6158C241.7 89.6158 240.612 71.7928 244.421 67.7876L226.466 70.5912Z" fill="#575988"/>
<path opacity="0.1" d="M226.466 70.5912L227.283 84.6093C227.283 84.6093 227.283 91.2179 230.275 94.2218C233.267 97.2256 236.804 112.245 236.804 112.245H247.141C247.141 112.245 244.149 92.0189 241.7 89.6158C241.7 89.6158 240.612 71.7928 244.421 67.7876L226.466 70.5912Z" fill="black"/>
<path d="M247.957 57.9749C247.957 57.9749 254.214 68.9892 242.788 72.1933C231.363 75.3974 210.689 74.9969 210.689 74.9969L209.6 98.2269C209.6 98.2269 196.815 99.4285 196.543 96.4246V70.9917C196.543 70.9917 196.815 68.1881 205.248 65.785C213.681 63.3819 225.106 62.1804 225.106 62.1804L225.65 56.9736L247.957 57.9749Z" fill="#575988"/>
<path opacity="0.1" d="M237.932 21.69C240.105 21.5129 242.304 21.7416 244.325 22.3549C245.993 22.8716 247.59 23.6826 247.96 24.9302C248.389 26.4081 247.913 29.7224 247.367 32.528C246.491 36.9248 246.379 41.3857 247.035 45.8032C247.307 47.6436 247.701 49.2476 248.232 49.9626C249.864 52.1654 251.496 62.5789 251.496 62.5789C251.496 62.5789 233.542 57.5724 224.565 60.5763C224.565 60.5763 223.341 40.0498 223.205 33.3411C223.099 28.1464 232.046 22.2267 235.038 22.0265C236.79 21.9103 236.189 21.8242 237.932 21.69Z" fill="black"/>
<path d="M237.932 21.2895C240.105 21.1124 242.304 21.3411 244.325 21.9544C245.993 22.471 247.59 23.2821 247.96 24.5297C248.389 26.0076 247.913 29.3219 247.367 32.1275C246.491 36.5243 246.379 40.9852 247.035 45.4027C247.246 46.8148 247.647 48.2081 248.232 49.5621C249.456 52.2656 251.496 62.1784 251.496 62.1784C251.496 62.1784 233.542 57.1719 224.565 60.1758C224.565 60.1758 223.341 39.6492 223.205 32.9406C223.099 27.7459 232.046 21.8262 235.038 21.626C236.79 21.5098 236.189 21.4237 237.932 21.2895Z" fill="#E14B5A"/>
<path opacity="0.1" d="M242.788 32.3418L223.474 31.5408C223.474 31.5408 222.244 24.5698 225.033 24.6419L244.148 25.1325C244.148 25.1325 248.229 28.7371 242.788 32.3418Z" fill="black"/>
<path d="M242.788 31.9413L220.754 31.1402C220.754 31.1402 203.616 27.3353 198.719 23.1299C198.719 23.1299 198.991 15.7203 204.432 15.3198L217.302 22.2668C219.551 23.4813 222.245 24.1693 225.033 24.2413L244.148 24.732C244.148 24.732 248.229 28.3366 242.788 31.9413Z" fill="#E14B5A"/>
<path opacity="0.1" d="M243.74 17.6228C244.064 15.7243 245.234 15.0935 246.053 14.3185C247.957 12.5162 231.907 16.9219 231.907 16.9219C232.737 17.8601 233.464 18.8451 234.083 19.8677C235.363 20.3017 236.755 20.5265 238.164 20.5265C240.52 20.5265 242.048 18.6501 243.74 17.6228Z" fill="black"/>
<path d="M238.164 20.3263C243.572 20.3263 247.957 17.0985 247.957 13.1169C247.957 9.13535 243.572 5.90762 238.164 5.90762C232.755 5.90762 228.371 9.13535 228.371 13.1169C228.371 17.0985 232.755 20.3263 238.164 20.3263Z" fill="#F7C4A7"/>
<path opacity="0.1" d="M231.98 8.06442C230.938 7.22534 230.435 6.10789 229.962 5.02449L228.874 2.54328C230.348 3.18411 231.921 1.74225 233.613 1.54199C234.823 1.39981 235.968 1.92048 237.084 2.29497C241.926 3.92507 248.237 3.11603 252.132 5.78548C252.665 6.12492 253.078 6.55441 253.335 7.03709C253.515 7.49194 253.588 7.96594 253.552 8.43891C253.584 9.70289 253.414 10.9652 253.044 12.1998C252.119 14.9613 249.643 17.2803 247.23 19.5032C246.773 19.9258 246.259 20.3743 245.541 20.4925C244.14 20.7228 243.058 19.6093 242.516 18.6321C241.799 17.3371 241.27 15.9899 240.938 14.6129C240.797 14.0301 240.685 13.4294 240.291 12.9147C239.448 11.8153 237.369 10.7739 236.107 9.92082C234.845 9.06772 233.139 8.99563 231.98 8.06442Z" fill="black"/>
<path d="M231.98 7.86416C230.938 7.02508 230.435 5.90763 229.962 4.82423L228.874 2.34303C230.348 2.98386 231.921 1.54199 233.613 1.34173C234.823 1.19955 235.968 1.72023 237.084 2.09471C241.926 3.72482 248.237 2.91577 252.132 5.58522C252.665 5.92466 253.078 6.35416 253.335 6.83684C253.515 7.29168 253.588 7.76568 253.552 8.23865C253.584 9.50263 253.414 10.765 253.044 11.9995C252.119 14.7611 249.643 17.0801 247.23 19.3029C246.773 19.7255 246.259 20.1741 245.541 20.2922C244.14 20.5225 243.058 19.4091 242.516 18.4318C241.799 17.1369 241.27 15.7896 240.938 14.4126C240.797 13.8299 240.685 13.2291 240.291 12.7144C239.448 11.615 237.369 10.5737 236.107 9.72056C234.845 8.86746 233.139 8.79537 231.98 7.86416Z" fill="#632652"/>
<path d="M240.748 15.2197C241.199 15.2197 241.564 14.6369 241.564 13.918C241.564 13.1991 241.199 12.6163 240.748 12.6163C240.297 12.6163 239.932 13.1991 239.932 13.918C239.932 14.6369 240.297 15.2197 240.748 15.2197Z" fill="#F7C4A7"/>
<path opacity="0.1" d="M245.645 48.6629C245.645 48.6629 245.101 49.8645 242.38 49.6642C239.66 49.4639 231.771 49.0634 231.771 49.6642" fill="black"/>
<path opacity="0.5" d="M224.018 116.45C223.528 116.118 223.284 115.85 223.227 115.615C223.156 115.876 223.373 116.216 224.018 116.651C227.555 119.054 248.229 119.454 248.229 119.454C248.229 119.454 248.229 119.384 248.229 119.254C248.096 119.252 227.544 118.846 224.018 116.45Z" fill="white"/>
<path opacity="0.5" d="M207.696 103.033C203.616 103.834 185.934 98.6275 185.118 98.0267C185.009 97.9455 184.931 97.8447 184.892 97.7343C184.845 97.8543 184.841 97.9813 184.88 98.1027C184.92 98.2242 185.002 98.336 185.118 98.4272C185.934 99.028 203.616 104.235 207.696 103.434C209.796 103.021 210.264 101.085 210.226 99.3003C210.185 100.962 209.639 102.649 207.696 103.033Z" fill="white"/>
<path d="M136.584 100.878C136.693 100.878 136.796 100.847 136.873 100.79C136.95 100.734 136.992 100.658 136.992 100.578C136.992 100.498 136.95 100.422 136.873 100.366C136.796 100.309 136.693 100.278 136.584 100.278C136.476 100.278 136.372 100.309 136.296 100.366C136.219 100.422 136.176 100.498 136.176 100.578C136.176 100.658 136.219 100.734 136.296 100.79C136.372 100.847 136.476 100.878 136.584 100.878Z" fill="#67647E"/>
<path d="M24.8882 95.5655C24.8882 95.5655 35.0404 95.3352 38.098 93.7311C41.1557 92.127 53.7127 90.2126 54.4716 92.7839C55.2306 95.3552 69.7299 105.576 58.2583 105.653C46.7867 105.729 31.6291 104.339 28.5742 102.969C25.5193 101.599 24.8882 95.5655 24.8882 95.5655Z" fill="#A8A8A8"/>
<path opacity="0.2" d="M58.4732 104.749C47.0125 104.817 31.844 103.436 28.7891 102.066C26.4632 101.023 25.5247 97.2817 25.2282 95.5555H24.8882C24.8882 95.5555 25.5302 101.583 28.5851 102.951C31.64 104.319 46.8085 105.713 58.2583 105.653C61.5662 105.633 62.7087 104.767 62.6462 103.484C62.1973 104.251 60.9351 104.735 58.4732 104.749Z" fill="black"/>
<path d="M257.385 114.78H280.595C281.923 114.78 283 113.988 283 113.01V108.34C283 107.362 281.923 106.57 280.595 106.57H257.385C256.057 106.57 254.981 107.362 254.981 108.34V113.01C254.981 113.988 256.057 114.78 257.385 114.78Z" fill="#FF4500"/>
<path opacity="0.1" d="M257.385 114.78H280.595C281.923 114.78 283 113.988 283 113.01V108.34C283 107.362 281.923 106.57 280.595 106.57H257.385C256.057 106.57 254.981 107.362 254.981 108.34V113.01C254.981 113.988 256.057 114.78 257.385 114.78Z" fill="black"/>
<path d="M280.595 98.7596H257.385C256.057 98.7596 254.981 99.5522 254.981 100.53V105.2C254.981 106.178 256.057 106.97 257.385 106.97H280.595C281.923 106.97 283 106.178 283 105.2V100.53C283 99.5522 281.923 98.7596 280.595 98.7596Z" fill="#FF4500"/>
<path d="M257.385 98.7596H280.595C281.923 98.7596 283 97.9671 283 96.9894V92.3193C283 91.3416 281.923 90.549 280.595 90.549H257.385C256.057 90.549 254.981 91.3416 254.981 92.3193V96.9894C254.981 97.9671 256.057 98.7596 257.385 98.7596Z" fill="#FF4500"/>
<path opacity="0.1" d="M257.385 98.7596H280.595C281.923 98.7596 283 97.9671 283 96.9894V92.3193C283 91.3416 281.923 90.549 280.595 90.549H257.385C256.057 90.549 254.981 91.3416 254.981 92.3193V96.9894C254.981 97.9671 256.057 98.7596 257.385 98.7596Z" fill="black"/>
<path d="M280.595 82.3384H257.385C256.057 82.3384 254.981 83.131 254.981 84.1087V88.7787C254.981 89.7564 256.057 90.549 257.385 90.549H280.595C281.923 90.549 283 89.7564 283 88.7787V84.1087C283 83.131 281.923 82.3384 280.595 82.3384Z" fill="#FF4500"/>
</g>
<defs>
<linearGradient id="paint0_linear" x1="196.63" y1="14.3686" x2="196.63" y2="5.52115" gradientUnits="userSpaceOnUse">
<stop stop-color="#808080" stop-opacity="0.25"/>
<stop offset="0.54" stop-color="#808080" stop-opacity="0.12"/>
<stop offset="1" stop-color="#808080" stop-opacity="0.1"/>
</linearGradient>
<linearGradient id="paint1_linear" x1="63614.3" y1="87950" x2="63614.3" y2="15143.3" gradientUnits="userSpaceOnUse">
<stop stop-color="#808080" stop-opacity="0.25"/>
<stop offset="0.54" stop-color="#808080" stop-opacity="0.12"/>
<stop offset="1" stop-color="#808080" stop-opacity="0.1"/>
</linearGradient>
<clipPath id="clip0">
<rect width="283" height="130" fill="white"/>
</clipPath>
</defs>
</svg>
