<svg width="27" height="27" viewBox="0 0 27 27" fill="none" xmlns="http://www.w3.org/2000/svg">
<path d="M7.83 15.66C12.1544 15.66 15.66 12.1544 15.66 7.83C15.66 3.50561 12.1544 0 7.83 0C3.50561 0 0 3.50561 0 7.83C0 12.1544 3.50561 15.66 7.83 15.66Z" fill="white"/>
<path d="M19.17 27.0001C23.4944 27.0001 27 23.4945 27 19.1701C27 14.8457 23.4944 11.3401 19.17 11.3401C14.8456 11.3401 11.34 14.8457 11.34 19.1701C11.34 23.4945 14.8456 27.0001 19.17 27.0001Z" fill="white"/>
<path d="M13.5 26.46C20.6576 26.46 26.46 20.6576 26.46 13.5C26.46 6.34243 20.6576 0.540039 13.5 0.540039C6.34243 0.540039 0.540039 6.34243 0.540039 13.5C0.540039 20.6576 6.34243 26.46 13.5 26.46Z" fill="white"/>
<path fill-rule="evenodd" clip-rule="evenodd" d="M10.1389 13.2539C9.6323 12.9202 9.20961 12.4739 8.90384 11.9498C8.60843 11.3965 8.46259 10.7757 8.48076 10.1487C8.45827 9.35294 8.72977 8.57681 9.24338 7.96861C9.77703 7.35785 10.463 6.89938 11.2314 6.63985C12.0673 6.34467 12.948 6.19649 13.8345 6.20187C14.4146 6.19637 14.9941 6.24083 15.5666 6.33474C15.9761 6.39804 16.3784 6.5019 16.7673 6.64478C17.1246 6.7658 17.4472 6.97183 17.7073 7.24514C17.8989 7.46994 18.0021 7.75687 17.9976 8.05225C18.0045 8.20569 17.9811 8.35898 17.9287 8.50337C17.8764 8.64777 17.7961 8.78043 17.6925 8.89379C17.5943 8.99825 17.4752 9.08076 17.3429 9.1359C17.2106 9.19103 17.0681 9.21754 16.9248 9.21369C16.7276 9.21224 16.533 9.16859 16.354 9.08567C15.9134 8.88848 15.4596 8.72241 14.9958 8.58868C14.5687 8.47618 14.1285 8.42156 13.6869 8.4263C13.1118 8.40497 12.5428 8.55021 12.0482 8.84456C11.8393 8.97142 11.6684 9.15209 11.5533 9.36766C11.4381 9.58323 11.3831 9.82579 11.3938 10.0699C11.3907 10.3902 11.5125 10.6991 11.7333 10.9311C11.9959 11.2034 12.3061 11.4252 12.6486 11.5856C13.0325 11.776 13.6049 12.0287 14.3659 12.3435C14.4503 12.3702 14.5326 12.4031 14.612 12.442C15.3547 12.7357 16.0667 13.1016 16.7378 13.5345C17.2679 13.8801 17.715 14.339 18.0467 14.8779C18.3733 15.4441 18.5368 16.0896 18.5191 16.743C18.5466 17.5433 18.3172 18.3314 17.8646 18.992C17.4038 19.6174 16.7663 20.0905 16.0342 20.3503C15.152 20.6653 14.2199 20.8171 13.2834 20.7981C11.9964 20.8434 10.7155 20.6013 9.53379 20.0895C9.23139 19.955 8.96625 19.7489 8.76122 19.4891C8.59127 19.2512 8.50319 18.9645 8.51023 18.6721C8.50175 18.5179 8.52683 18.3637 8.58374 18.2201C8.64065 18.0765 8.72803 17.947 8.83986 17.8405C9.07459 17.6349 9.37938 17.5274 9.69115 17.5403C10.0381 17.5451 10.379 17.6328 10.6851 17.7962C11.0656 17.9866 11.3657 18.1293 11.5857 18.2244C11.8369 18.3296 12.0972 18.412 12.3632 18.4704C12.6912 18.5425 13.0263 18.5771 13.362 18.5737C13.9557 18.616 14.5464 18.4583 15.0401 18.126C15.225 17.9813 15.3727 17.7947 15.4711 17.5816C15.5695 17.3685 15.6157 17.1351 15.606 16.9006C15.6067 16.5677 15.4799 16.2472 15.2517 16.0049C14.9501 15.6942 14.5972 15.4378 14.2085 15.2471C13.7492 15.0043 13.1029 14.709 12.2697 14.3612C11.5242 14.0642 10.8104 13.6933 10.1389 13.2539" fill="black"/>
<path opacity="0.1" fill-rule="evenodd" clip-rule="evenodd" d="M10.2761 0.394268C9.93376 0.279634 9.58369 0.189408 9.22855 0.124268C7.09638 0.808535 5.15816 1.99146 3.57475 3.57487C1.99134 5.15828 0.808413 7.0965 0.124146 9.22867C0.189297 9.58381 0.279523 9.93388 0.394146 10.2763C0.489876 10.5863 0.610881 10.8879 0.755945 11.1781C1.22501 8.58623 2.47434 6.19942 4.33682 4.33694C6.1993 2.47446 8.58611 1.22513 11.1779 0.756067C10.8877 0.611021 10.5861 0.490015 10.2761 0.394268Z" fill="white"/>
<path opacity="0.1" fill-rule="evenodd" clip-rule="evenodd" d="M10.2762 0.394287C7.88465 0.984135 5.6999 2.21656 3.95817 3.95829C2.21644 5.70002 0.984012 7.88478 0.394165 10.2763C0.489895 10.5863 0.610901 10.8879 0.755965 11.1781C1.22503 8.58625 2.47436 6.19944 4.33684 4.33696C6.19932 2.47448 8.58612 1.22515 11.178 0.756087C10.8878 0.61104 10.5861 0.490035 10.2762 0.394287Z" fill="white"/>
<path opacity="0.1" fill-rule="evenodd" clip-rule="evenodd" d="M26.6057 16.7238C26.51 16.4138 26.389 16.1122 26.2439 15.822C25.7748 18.4139 24.5255 20.8007 22.663 22.6632C20.8006 24.5256 18.4137 25.775 15.8219 26.244C16.1121 26.3891 16.4137 26.5101 16.7237 26.6058C17.0661 26.7205 17.4162 26.8107 17.7713 26.8758C19.9035 26.1916 21.8417 25.0086 23.4251 23.4252C25.0085 21.8418 26.1914 19.9036 26.8757 17.7714C26.8105 17.4163 26.7203 17.0662 26.6057 16.7238Z" fill="white"/>
<path opacity="0.1" fill-rule="evenodd" clip-rule="evenodd" d="M26.2439 15.822C25.7748 18.4139 24.5255 20.8007 22.663 22.6632C20.8006 24.5256 18.4137 25.775 15.8219 26.244C16.1121 26.3891 16.4137 26.5101 16.7237 26.6058C19.1152 26.016 21.3 24.7836 23.0417 23.0418C24.7834 21.3001 26.0159 19.1153 26.6057 16.7238C26.51 16.4138 26.389 16.1122 26.2439 15.822Z" fill="white"/>
</svg>
