<svg width="1455" height="1024" viewBox="0 0 1455 1024" fill="none" xmlns="http://www.w3.org/2000/svg">
<rect width="1455" height="1024" fill="white"/>
<path fill-rule="evenodd" clip-rule="evenodd" d="M667.622 252.919C675.717 250.591 683.069 249.138 691.234 248.262C695.166 247.824 707.96 247.963 711.589 248.47C726.408 250.545 738.04 255.616 749.183 264.883C751.323 266.659 776.052 291.417 785.218 300.938C791.918 307.9 796.501 314.355 799.781 321.455C802.828 328.071 803.503 329.362 804.992 331.575C805.806 332.797 806.713 334.088 807.016 334.457L807.574 335.125L808.854 334.803C809.552 334.618 811.273 334.48 812.785 334.48C814.949 334.48 815.809 334.595 817.205 335.01C822.044 336.509 825.813 339.644 828.139 344.07C829.442 346.56 830 348.865 830 351.746C830 354.559 829.628 356.173 828.348 358.801C827.395 360.735 827.209 360.921 816.905 371.178L816.879 371.203C811.11 376.966 805.806 382.107 805.108 382.66C797.036 388.861 784.59 385.473 779.867 375.744C778.565 373.047 778.123 371.203 778.123 368.344C778.123 364.564 779.146 361.498 781.263 358.916L782.264 357.694L780.123 355.089C777.215 351.539 774.308 348.865 772.47 347.989C770.306 346.974 769.19 346.905 765.816 347.597C759.628 348.865 753.859 348.104 749.439 345.407C748.834 345.038 748.253 344.738 748.16 344.738C748.066 344.738 739.157 353.498 728.339 364.218L708.682 383.721L711.473 386.418C713.009 387.893 734.992 408.549 760.326 432.293C785.66 456.014 806.806 475.978 807.318 476.646C810.854 481.211 812.483 485.453 812.715 490.778C812.808 493.037 812.762 494.351 812.459 496.034C810.645 506.615 802.503 515.467 791.964 518.326C789.359 519.041 784.148 519.225 781.31 518.695C776.424 517.773 771.307 515.145 767.445 511.548C766.886 511.041 748.508 491.723 726.618 468.67C704.727 445.594 686.023 425.907 685.069 424.916L683.325 423.095L681.347 425.123C680.23 426.23 661.55 445.71 639.822 468.417C618.094 491.101 599.832 510.119 599.251 510.626C597.529 512.148 595.319 513.439 593.319 514.107C591.806 514.591 590.853 514.73 588.526 514.799C585.967 514.891 585.339 514.822 583.362 514.315C580.64 513.623 577.732 512.309 575.452 510.742C573.01 509.082 552.282 488.38 550.77 486.121C546.164 479.228 546.606 472.566 552.049 466.549C552.84 465.65 571.73 447.6 593.993 426.461C616.256 405.321 636.263 386.256 638.473 384.09C642.125 380.516 642.451 380.147 642.172 379.733C642.009 379.502 637.519 374.73 632.238 369.151C626.934 363.573 622.444 358.801 622.212 358.547C621.839 358.109 621.444 358.178 602.298 361.797C591.551 363.826 582.315 365.486 581.757 365.486C580.175 365.486 578.942 364.748 577.639 362.996C575.266 359.769 542.744 313.225 542.349 312.488C541.744 311.312 541.953 309.099 542.767 307.946C543.093 307.439 546.606 303.866 550.537 299.97C555.492 295.106 557.982 292.8 558.61 292.547C559.843 292.04 561.378 292.086 562.541 292.662C563.193 292.985 568.38 297.964 578.081 307.554L592.644 321.962L600.251 319.818C604.438 318.643 607.928 317.605 608.044 317.536C608.161 317.467 609.231 313.986 610.44 309.813L612.627 302.206L597.808 287.452C584.153 273.851 582.99 272.606 582.71 271.615C582.338 270.232 582.571 268.941 583.408 267.696C584.548 266.013 599.227 251.697 600.251 251.282C601.6 250.729 602.926 250.821 604.369 251.559C605.067 251.905 617.373 259.697 631.75 268.895C655.664 284.156 657.921 285.654 658.479 286.576C658.805 287.129 659.131 288.028 659.177 288.582C659.293 289.504 658.177 294.622 651.663 322.93C650.965 325.95 650.407 328.624 650.407 328.855C650.407 329.201 669.367 347.182 677.811 354.859L680.207 357.049L720.662 316.96L720.057 315.116C719.569 313.64 719.429 312.649 719.336 310.159C719.197 306.379 719.522 304.557 720.872 301.791C722.058 299.301 722.384 297.572 722.221 294.875C721.918 289.688 718.894 284.409 713.078 278.807C705.192 271.246 694.235 265.414 683.325 262.97C679.509 262.117 673.647 261.979 670.809 262.647C668.343 263.224 667.854 263.247 665.737 262.763C664.388 262.463 663.923 262.232 663.085 261.449C661.155 259.604 661.085 256.907 662.923 254.994C663.783 254.095 664.295 253.864 667.622 252.919ZM781.846 501.581C790.199 501.581 796.971 495.897 796.971 488.887C796.971 481.876 790.199 476.192 781.846 476.192C773.492 476.192 766.72 481.876 766.72 488.887C766.72 495.897 773.492 501.581 781.846 501.581Z" fill="#FF4500"/>
<rect x="510" y="240" width="12" height="301" fill="#FF4500"/>
<rect x="510" y="541" width="12" height="350" transform="rotate(-90 510 541)" fill="#FF4500"/>
<rect x="850" y="240" width="12" height="301" fill="#FF4500"/>
<rect x="501" y="240.043" width="206" height="10" transform="rotate(-25.9191 501 240.043)" fill="#FF4500"/>
<rect x="686.354" y="150" width="206" height="10" transform="rotate(25.8148 686.354 150)" fill="#FF4500"/>
<path fill-rule="evenodd" clip-rule="evenodd" d="M657.622 654.919C665.717 652.591 673.069 651.138 681.234 650.262C685.166 649.824 697.96 649.963 701.589 650.47C716.408 652.545 728.04 657.616 739.183 666.883C741.323 668.659 766.052 693.417 775.218 702.938C781.918 709.9 786.501 716.355 789.781 723.455C792.828 730.071 793.503 731.362 794.992 733.575C795.806 734.797 796.713 736.088 797.016 736.457L797.574 737.125L798.854 736.803C799.552 736.618 801.273 736.48 802.785 736.48C804.949 736.48 805.809 736.595 807.205 737.01C812.044 738.509 815.813 741.644 818.139 746.07C819.442 748.56 820 750.865 820 753.746C820 756.559 819.628 758.173 818.348 760.801C817.395 762.735 817.209 762.921 806.905 773.178L806.879 773.203C801.11 778.966 795.806 784.107 795.108 784.66C787.036 790.861 774.59 787.473 769.867 777.744C768.565 775.047 768.123 773.203 768.123 770.344C768.123 766.564 769.146 763.498 771.263 760.916L772.264 759.694L770.123 757.089C767.215 753.539 764.308 750.865 762.47 749.989C760.306 748.974 759.19 748.905 755.816 749.597C749.628 750.865 743.859 750.104 739.439 747.407C738.834 747.038 738.253 746.738 738.16 746.738C738.066 746.738 729.157 755.498 718.339 766.218L698.682 785.721L701.473 788.418C703.009 789.893 724.992 810.549 750.326 834.293C775.66 858.014 796.806 877.978 797.318 878.646C800.854 883.211 802.483 887.453 802.715 892.778C802.808 895.037 802.762 896.351 802.459 898.034C800.645 908.615 792.503 917.467 781.964 920.326C779.359 921.041 774.148 921.225 771.31 920.695C766.424 919.773 761.307 917.145 757.445 913.548C756.886 913.041 738.508 893.723 716.618 870.67C694.727 847.594 676.023 827.907 675.069 826.916L673.325 825.095L671.347 827.123C670.23 828.23 651.55 847.71 629.822 870.417C608.094 893.101 589.832 912.119 589.251 912.626C587.529 914.148 585.319 915.439 583.319 916.107C581.806 916.591 580.853 916.73 578.526 916.799C575.967 916.891 575.339 916.822 573.362 916.315C570.64 915.623 567.732 914.309 565.452 912.742C563.01 911.082 542.282 890.38 540.77 888.121C536.164 881.228 536.606 874.566 542.049 868.549C542.84 867.65 561.73 849.6 583.993 828.461C606.256 807.321 626.263 788.256 628.473 786.09C632.125 782.516 632.451 782.147 632.172 781.733C632.009 781.502 627.519 776.73 622.238 771.151C616.934 765.573 612.444 760.801 612.212 760.547C611.839 760.109 611.444 760.178 592.298 763.797C581.551 765.826 572.315 767.486 571.757 767.486C570.175 767.486 568.942 766.748 567.639 764.996C565.266 761.769 532.744 715.225 532.349 714.488C531.744 713.312 531.953 711.099 532.767 709.946C533.093 709.439 536.606 705.866 540.537 701.97C545.492 697.106 547.982 694.8 548.61 694.547C549.843 694.04 551.378 694.086 552.541 694.662C553.193 694.985 558.38 699.964 568.081 709.554L582.644 723.962L590.251 721.818C594.438 720.643 597.928 719.605 598.044 719.536C598.161 719.467 599.231 715.986 600.44 711.813L602.627 704.206L587.808 689.452C574.153 675.851 572.99 674.606 572.71 673.615C572.338 672.232 572.571 670.941 573.408 669.696C574.548 668.013 589.227 653.697 590.251 653.282C591.6 652.729 592.926 652.821 594.369 653.559C595.067 653.905 607.373 661.697 621.75 670.895C645.664 686.156 647.921 687.654 648.479 688.576C648.805 689.129 649.131 690.028 649.177 690.582C649.293 691.504 648.177 696.622 641.663 724.93C640.965 727.95 640.407 730.624 640.407 730.855C640.407 731.201 659.367 749.182 667.811 756.859L670.207 759.049L710.662 718.96L710.057 717.116C709.569 715.64 709.429 714.649 709.336 712.159C709.197 708.379 709.522 706.557 710.872 703.791C712.058 701.301 712.384 699.572 712.221 696.875C711.918 691.688 708.894 686.409 703.078 680.807C695.192 673.246 684.235 667.414 673.325 664.97C669.509 664.117 663.647 663.979 660.809 664.647C658.343 665.224 657.854 665.247 655.737 664.763C654.388 664.463 653.923 664.232 653.085 663.449C651.155 661.604 651.085 658.907 652.923 656.994C653.783 656.095 654.295 655.864 657.622 654.919ZM771.846 903.581C780.199 903.581 786.971 897.897 786.971 890.887C786.971 883.876 780.199 878.192 771.846 878.192C763.492 878.192 756.72 883.876 756.72 890.887C756.72 897.897 763.492 903.581 771.846 903.581Z" fill="#FF4500"/>
<rect x="500" y="650" width="12" height="301" fill="#FF4500"/>
<rect x="500" y="951" width="12" height="350" transform="rotate(-90 500 951)" fill="#FF4500"/>
<rect x="840" y="650" width="12" height="301" fill="#FF4500"/>
<rect x="491" y="650.043" width="206" height="10" transform="rotate(-25.9191 491 650.043)" fill="#FF4500"/>
<rect x="676.354" y="560" width="206" height="10" transform="rotate(25.8148 676.354 560)" fill="#FF4500"/>
<path fill-rule="evenodd" clip-rule="evenodd" d="M205.622 252.919C213.717 250.591 221.069 249.138 229.234 248.262C233.166 247.824 245.96 247.963 249.589 248.47C264.408 250.545 276.04 255.616 287.183 264.883C289.323 266.659 314.052 291.417 323.218 300.938C329.918 307.9 334.501 314.355 337.781 321.455C340.828 328.071 341.503 329.362 342.992 331.575C343.806 332.797 344.713 334.088 345.016 334.457L345.574 335.125L346.854 334.803C347.552 334.618 349.273 334.48 350.785 334.48C352.949 334.48 353.809 334.595 355.205 335.01C360.044 336.509 363.813 339.644 366.139 344.07C367.442 346.56 368 348.865 368 351.746C368 354.559 367.628 356.173 366.348 358.801C365.395 360.735 365.209 360.921 354.905 371.178L354.879 371.203C349.11 376.966 343.806 382.107 343.108 382.66C335.036 388.861 322.59 385.473 317.867 375.744C316.565 373.047 316.123 371.203 316.123 368.344C316.123 364.564 317.146 361.498 319.263 358.916L320.264 357.694L318.123 355.089C315.215 351.539 312.308 348.865 310.47 347.989C308.306 346.974 307.19 346.905 303.816 347.597C297.628 348.865 291.859 348.104 287.439 345.407C286.834 345.038 286.253 344.738 286.16 344.738C286.066 344.738 277.157 353.498 266.339 364.218L246.682 383.721L249.473 386.418C251.009 387.893 272.992 408.549 298.326 432.293C323.66 456.014 344.806 475.978 345.318 476.646C348.854 481.211 350.483 485.453 350.715 490.778C350.808 493.037 350.762 494.351 350.459 496.034C348.645 506.615 340.503 515.467 329.964 518.326C327.359 519.041 322.148 519.225 319.31 518.695C314.424 517.773 309.307 515.145 305.445 511.548C304.886 511.041 286.508 491.723 264.618 468.67C242.727 445.594 224.023 425.907 223.069 424.916L221.325 423.095L219.347 425.123C218.23 426.23 199.55 445.71 177.822 468.417C156.094 491.101 137.832 510.119 137.251 510.626C135.529 512.148 133.319 513.439 131.319 514.107C129.806 514.591 128.853 514.73 126.526 514.799C123.967 514.891 123.339 514.822 121.362 514.315C118.64 513.623 115.732 512.309 113.452 510.742C111.01 509.082 90.282 488.38 88.7699 486.121C84.1638 479.228 84.6058 472.566 90.0494 466.549C90.8403 465.65 109.73 447.6 131.993 426.461C154.256 405.321 174.263 386.256 176.473 384.09C180.125 380.516 180.451 380.147 180.172 379.733C180.009 379.502 175.519 374.73 170.238 369.151C164.934 363.573 160.444 358.801 160.212 358.547C159.839 358.109 159.444 358.178 140.298 361.797C129.551 363.826 120.315 365.486 119.757 365.486C118.175 365.486 116.942 364.748 115.639 362.996C113.266 359.769 80.744 313.225 80.3486 312.488C79.7437 311.312 79.9531 309.099 80.7673 307.946C81.093 307.439 84.6058 303.866 88.5373 299.97C93.4924 295.106 95.9815 292.8 96.6097 292.547C97.8426 292.04 99.378 292.086 100.541 292.662C101.193 292.985 106.38 297.964 116.081 307.554L130.644 321.962L138.251 319.818C142.438 318.643 145.928 317.605 146.044 317.536C146.161 317.467 147.231 313.986 148.44 309.813L150.627 302.206L135.808 287.452C122.153 273.851 120.99 272.606 120.71 271.615C120.338 270.232 120.571 268.941 121.408 267.696C122.548 266.013 137.227 251.697 138.251 251.282C139.6 250.729 140.926 250.821 142.369 251.559C143.067 251.905 155.373 259.697 169.75 268.895C193.664 284.156 195.921 285.654 196.479 286.576C196.805 287.129 197.131 288.028 197.177 288.582C197.293 289.504 196.177 294.622 189.663 322.93C188.965 325.95 188.407 328.624 188.407 328.855C188.407 329.201 207.367 347.182 215.811 354.859L218.207 357.049L258.662 316.96L258.057 315.116C257.569 313.64 257.429 312.649 257.336 310.159C257.197 306.379 257.522 304.557 258.872 301.791C260.058 299.301 260.384 297.572 260.221 294.875C259.918 289.688 256.894 284.409 251.078 278.807C243.192 271.246 232.235 265.414 221.325 262.97C217.509 262.117 211.647 261.979 208.809 262.647C206.343 263.224 205.854 263.247 203.737 262.763C202.388 262.463 201.923 262.232 201.085 261.449C199.155 259.604 199.085 256.907 200.923 254.994C201.783 254.095 202.295 253.864 205.622 252.919ZM319.846 501.581C328.199 501.581 334.971 495.897 334.971 488.887C334.971 481.876 328.199 476.192 319.846 476.192C311.492 476.192 304.72 481.876 304.72 488.887C304.72 495.897 311.492 501.581 319.846 501.581Z" fill="#FF4500"/>
<rect x="48.0001" y="240" width="12" height="301" fill="#FF4500"/>
<rect x="48" y="547" width="12" height="172" transform="rotate(-90 48 547)" fill="#FF4500"/>
<rect x="388" y="240" width="12" height="301" fill="#FF4500"/>
<rect x="208" y="380" width="12" height="161" fill="#FF4500"/>
<rect x="39" y="240.043" width="206" height="10" transform="rotate(-25.9191 39 240.043)" fill="#FF4500"/>
<rect x="224.355" y="150" width="206" height="10" transform="rotate(25.8148 224.355 150)" fill="#FF4500"/>
<path fill-rule="evenodd" clip-rule="evenodd" d="M210.622 662.919C218.717 660.591 226.069 659.138 234.234 658.262C238.166 657.824 250.96 657.963 254.589 658.47C269.408 660.545 281.04 665.616 292.183 674.883C294.323 676.659 319.052 701.417 328.218 710.938C334.918 717.9 339.501 724.355 342.781 731.455C345.828 738.071 346.503 739.362 347.992 741.575C348.806 742.797 349.713 744.088 350.016 744.457L350.574 745.125L351.854 744.803C352.552 744.618 354.273 744.48 355.785 744.48C357.949 744.48 358.809 744.595 360.205 745.01C365.044 746.509 368.813 749.644 371.139 754.07C372.442 756.56 373 758.865 373 761.746C373 764.559 372.628 766.173 371.348 768.801C370.395 770.735 370.209 770.921 359.905 781.178L359.879 781.203C354.11 786.966 348.806 792.107 348.108 792.66C340.036 798.861 327.59 795.473 322.867 785.744C321.565 783.047 321.123 781.203 321.123 778.344C321.123 774.564 322.146 771.498 324.263 768.916L325.264 767.694L323.123 765.089C320.215 761.539 317.308 758.865 315.47 757.989C313.306 756.974 312.19 756.905 308.816 757.597C302.628 758.865 296.859 758.104 292.439 755.407C291.834 755.038 291.253 754.738 291.16 754.738C291.066 754.738 282.157 763.498 271.339 774.218L251.682 793.721L254.473 796.418C256.009 797.893 277.992 818.549 303.326 842.293C328.66 866.014 349.806 885.978 350.318 886.646C353.854 891.211 355.483 895.453 355.715 900.778C355.808 903.037 355.762 904.351 355.459 906.034C353.645 916.615 345.503 925.467 334.964 928.326C332.359 929.041 327.148 929.225 324.31 928.695C319.424 927.773 314.307 925.145 310.445 921.548C309.886 921.041 291.508 901.723 269.618 878.67C247.727 855.594 229.023 835.907 228.069 834.916L226.325 833.095L224.347 835.123C223.23 836.23 204.55 855.71 182.822 878.417C161.094 901.101 142.832 920.119 142.251 920.626C140.529 922.148 138.319 923.439 136.319 924.107C134.806 924.591 133.853 924.73 131.526 924.799C128.967 924.891 128.339 924.822 126.362 924.315C123.64 923.623 120.732 922.309 118.452 920.742C116.01 919.082 95.282 898.38 93.7699 896.121C89.1638 889.228 89.6058 882.566 95.0494 876.549C95.8403 875.65 114.73 857.6 136.993 836.461C159.256 815.321 179.263 796.256 181.473 794.09C185.125 790.516 185.451 790.147 185.172 789.733C185.009 789.502 180.519 784.73 175.238 779.151C169.934 773.573 165.444 768.801 165.212 768.547C164.839 768.109 164.444 768.178 145.298 771.797C134.551 773.826 125.315 775.486 124.757 775.486C123.175 775.486 121.942 774.748 120.639 772.996C118.266 769.769 85.744 723.225 85.3486 722.488C84.7437 721.312 84.9531 719.099 85.7673 717.946C86.093 717.439 89.6058 713.866 93.5373 709.97C98.4924 705.106 100.982 702.8 101.61 702.547C102.843 702.04 104.378 702.086 105.541 702.662C106.193 702.985 111.38 707.964 121.081 717.554L135.644 731.962L143.251 729.818C147.438 728.643 150.928 727.605 151.044 727.536C151.161 727.467 152.231 723.986 153.44 719.813L155.627 712.206L140.808 697.452C127.153 683.851 125.99 682.606 125.71 681.615C125.338 680.232 125.571 678.941 126.408 677.696C127.548 676.013 142.227 661.697 143.251 661.282C144.6 660.729 145.926 660.821 147.369 661.559C148.067 661.905 160.373 669.697 174.75 678.895C198.664 694.156 200.921 695.654 201.479 696.576C201.805 697.129 202.131 698.028 202.177 698.582C202.293 699.504 201.177 704.622 194.663 732.93C193.965 735.95 193.407 738.624 193.407 738.855C193.407 739.201 212.367 757.182 220.811 764.859L223.207 767.049L263.662 726.96L263.057 725.116C262.569 723.64 262.429 722.649 262.336 720.159C262.197 716.379 262.522 714.557 263.872 711.791C265.058 709.301 265.384 707.572 265.221 704.875C264.918 699.688 261.894 694.409 256.078 688.807C248.192 681.246 237.235 675.414 226.325 672.97C222.509 672.117 216.647 671.979 213.809 672.647C211.343 673.224 210.854 673.247 208.737 672.763C207.388 672.463 206.923 672.232 206.085 671.449C204.155 669.604 204.085 666.907 205.923 664.994C206.783 664.095 207.295 663.864 210.622 662.919ZM324.846 911.581C333.199 911.581 339.971 905.897 339.971 898.887C339.971 891.876 333.199 886.192 324.846 886.192C316.492 886.192 309.72 891.876 309.72 898.887C309.72 905.897 316.492 911.581 324.846 911.581Z" fill="#FF4500"/>
<rect x="53.0001" y="650" width="12" height="301" fill="#FF4500"/>
<rect x="393" y="650" width="12" height="301" fill="#FF4500"/>
<rect x="44" y="650.043" width="206" height="10" transform="rotate(-25.9191 44 650.043)" fill="#FF4500"/>
<rect x="229.355" y="560" width="206" height="10" transform="rotate(25.8148 229.355 560)" fill="#FF4500"/>
</svg>
